<?xml version="1.0" encoding="UTF-8"?>
<svg xmlns="http://www.w3.org/2000/svg" version="1.1" width="300" height="300" viewBox="0 0 300 300"><rect x="0" y="0" width="300" height="300" fill="#ffffff"/><g transform="scale(10.345)"><g transform="translate(0,0)"><path fill-rule="evenodd" d="M9 0L9 1L8 1L8 3L9 3L9 4L8 4L8 8L6 8L6 9L5 9L5 10L1 10L1 12L2 12L2 13L0 13L0 14L1 14L1 16L2 16L2 17L1 17L1 18L0 18L0 19L1 19L1 18L2 18L2 20L3 20L3 21L8 21L8 23L11 23L11 24L10 24L10 25L8 25L8 26L10 26L10 25L11 25L11 27L10 27L10 28L9 28L9 27L8 27L8 29L11 29L11 28L12 28L12 29L14 29L14 27L15 27L15 26L14 26L14 25L13 25L13 24L14 24L14 23L15 23L15 24L16 24L16 25L17 25L17 27L16 27L16 28L15 28L15 29L16 29L16 28L17 28L17 29L19 29L19 28L20 28L20 29L22 29L22 28L23 28L23 27L18 27L18 24L17 24L17 23L18 23L18 22L19 22L19 21L17 21L17 20L18 20L18 17L19 17L19 15L17 15L17 17L16 17L16 18L17 18L17 20L14 20L14 21L17 21L17 22L16 22L16 23L15 23L15 22L14 22L14 23L13 23L13 20L12 20L12 19L11 19L11 18L13 18L13 19L14 19L14 18L15 18L15 17L13 17L13 16L16 16L16 15L15 15L15 14L14 14L14 13L15 13L15 12L16 12L16 13L17 13L17 14L18 14L18 12L17 12L17 11L20 11L20 12L21 12L21 13L19 13L19 14L20 14L20 17L22 17L22 18L20 18L20 25L19 25L19 26L21 26L21 25L22 25L22 26L23 26L23 25L24 25L24 27L27 27L27 29L28 29L28 27L29 27L29 26L28 26L28 27L27 27L27 26L25 26L25 25L26 25L26 24L28 24L28 25L29 25L29 24L28 24L28 22L29 22L29 21L27 21L27 20L29 20L29 17L28 17L28 15L29 15L29 14L27 14L27 13L29 13L29 12L28 12L28 10L29 10L29 9L28 9L28 8L26 8L26 9L25 9L25 8L22 8L22 9L20 9L20 8L19 8L19 6L20 6L20 7L21 7L21 6L20 6L20 5L19 5L19 4L20 4L20 3L19 3L19 1L20 1L20 2L21 2L21 0L17 0L17 1L18 1L18 2L17 2L17 3L18 3L18 4L16 4L16 0L15 0L15 2L14 2L14 1L13 1L13 0L12 0L12 1L11 1L11 2L9 2L9 1L10 1L10 0ZM13 2L13 3L12 3L12 4L9 4L9 5L10 5L10 6L9 6L9 7L10 7L10 8L8 8L8 9L6 9L6 10L5 10L5 11L6 11L6 12L4 12L4 13L2 13L2 14L5 14L5 15L4 15L4 17L5 17L5 18L3 18L3 17L2 17L2 18L3 18L3 20L4 20L4 19L5 19L5 20L7 20L7 19L8 19L8 18L7 18L7 17L8 17L8 16L9 16L9 19L10 19L10 20L9 20L9 21L10 21L10 22L11 22L11 23L12 23L12 24L11 24L11 25L12 25L12 24L13 24L13 23L12 23L12 22L11 22L11 21L12 21L12 20L11 20L11 19L10 19L10 18L11 18L11 17L12 17L12 16L11 16L11 15L10 15L10 16L9 16L9 14L8 14L8 16L7 16L7 15L6 15L6 14L7 14L7 13L8 13L8 12L9 12L9 13L11 13L11 12L12 12L12 10L13 10L13 11L17 11L17 10L16 10L16 8L17 8L17 9L19 9L19 10L20 10L20 9L19 9L19 8L17 8L17 7L18 7L18 6L17 6L17 5L16 5L16 6L15 6L15 5L14 5L14 6L13 6L13 4L14 4L14 2ZM11 5L11 6L10 6L10 7L11 7L11 6L12 6L12 9L11 9L11 8L10 8L10 10L6 10L6 11L7 11L7 12L6 12L6 13L7 13L7 12L8 12L8 11L11 11L11 10L12 10L12 9L13 9L13 10L14 10L14 9L15 9L15 8L13 8L13 6L12 6L12 5ZM14 6L14 7L15 7L15 6ZM16 6L16 7L17 7L17 6ZM0 8L0 9L2 9L2 8ZM3 8L3 9L4 9L4 8ZM23 9L23 10L25 10L25 9ZM26 9L26 10L28 10L28 9ZM21 11L21 12L23 12L23 13L22 13L22 14L21 14L21 16L22 16L22 17L23 17L23 16L24 16L24 20L25 20L25 24L26 24L26 23L27 23L27 22L26 22L26 20L27 20L27 18L28 18L28 17L27 17L27 15L26 15L26 13L27 13L27 12L26 12L26 13L25 13L25 11L24 11L24 12L23 12L23 11ZM12 14L12 15L14 15L14 14ZM22 14L22 15L25 15L25 17L26 17L26 15L25 15L25 14ZM5 15L5 16L6 16L6 17L7 17L7 16L6 16L6 15ZM10 16L10 17L11 17L11 16ZM5 18L5 19L7 19L7 18ZM25 18L25 19L26 19L26 18ZM22 19L22 20L23 20L23 19ZM0 20L0 21L1 21L1 20ZM21 21L21 24L24 24L24 21ZM22 22L22 23L23 23L23 22ZM13 26L13 27L14 27L14 26ZM25 28L25 29L26 29L26 28ZM0 0L0 7L7 7L7 0ZM1 1L1 6L6 6L6 1ZM2 2L2 5L5 5L5 2ZM22 0L22 7L29 7L29 0ZM23 1L23 6L28 6L28 1ZM24 2L24 5L27 5L27 2ZM0 22L0 29L7 29L7 22ZM1 23L1 28L6 28L6 23ZM2 24L2 27L5 27L5 24Z" fill="#000000"/></g></g></svg>
