<?xml version="1.0" encoding="UTF-8"?>
<svg xmlns="http://www.w3.org/2000/svg" version="1.1" width="300" height="300" viewBox="0 0 300 300"><rect x="0" y="0" width="300" height="300" fill="#ffffff"/><g transform="scale(10.345)"><g transform="translate(0,0)"><path fill-rule="evenodd" d="M8 0L8 4L10 4L10 3L11 3L11 4L12 4L12 2L11 2L11 0ZM12 0L12 1L14 1L14 3L13 3L13 4L14 4L14 3L15 3L15 1L16 1L16 0L15 0L15 1L14 1L14 0ZM18 0L18 1L19 1L19 2L17 2L17 3L16 3L16 8L17 8L17 9L14 9L14 8L13 8L13 6L14 6L14 7L15 7L15 5L11 5L11 6L10 6L10 7L9 7L9 5L8 5L8 7L9 7L9 8L10 8L10 7L11 7L11 6L12 6L12 8L11 8L11 9L8 9L8 10L11 10L11 11L10 11L10 13L8 13L8 14L6 14L6 13L7 13L7 12L9 12L9 11L7 11L7 10L6 10L6 9L7 9L7 8L4 8L4 11L0 11L0 12L1 12L1 13L5 13L5 14L6 14L6 15L7 15L7 16L6 16L6 17L5 17L5 16L4 16L4 14L3 14L3 15L2 15L2 20L0 20L0 21L3 21L3 20L5 20L5 21L7 21L7 20L8 20L8 22L9 22L9 23L8 23L8 25L9 25L9 26L10 26L10 28L9 28L9 27L8 27L8 29L11 29L11 28L12 28L12 29L14 29L14 27L15 27L15 28L16 28L16 27L17 27L17 29L18 29L18 28L19 28L19 29L22 29L22 28L24 28L24 29L25 29L25 27L26 27L26 26L27 26L27 29L28 29L28 28L29 28L29 24L28 24L28 23L29 23L29 17L28 17L28 16L29 16L29 13L28 13L28 12L29 12L29 8L25 8L25 9L24 9L24 8L23 8L23 9L22 9L22 10L23 10L23 13L20 13L20 12L19 12L19 11L18 11L18 10L19 10L19 9L20 9L20 10L21 10L21 9L20 9L20 8L19 8L19 6L20 6L20 7L21 7L21 4L20 4L20 3L21 3L21 2L20 2L20 1L19 1L19 0ZM9 2L9 3L10 3L10 2ZM17 3L17 4L19 4L19 5L18 5L18 6L17 6L17 7L18 7L18 6L19 6L19 5L20 5L20 4L19 4L19 3ZM0 8L0 10L1 10L1 9L2 9L2 10L3 10L3 9L2 9L2 8ZM12 8L12 9L11 9L11 10L12 10L12 9L13 9L13 11L12 11L12 12L11 12L11 13L10 13L10 14L11 14L11 15L9 15L9 14L8 14L8 15L9 15L9 16L8 16L8 17L9 17L9 18L10 18L10 19L11 19L11 18L12 18L12 17L13 17L13 19L12 19L12 20L10 20L10 21L9 21L9 22L10 22L10 24L9 24L9 25L10 25L10 24L12 24L12 25L11 25L11 26L12 26L12 25L13 25L13 26L14 26L14 25L13 25L13 24L15 24L15 25L17 25L17 27L20 27L20 26L21 26L21 27L23 27L23 25L20 25L20 26L19 26L19 24L20 24L20 23L19 23L19 22L20 22L20 20L21 20L21 19L22 19L22 20L26 20L26 21L25 21L25 22L27 22L27 23L25 23L25 25L24 25L24 27L25 27L25 25L27 25L27 26L28 26L28 24L27 24L27 23L28 23L28 20L27 20L27 19L28 19L28 18L27 18L27 15L28 15L28 14L27 14L27 11L28 11L28 10L24 10L24 9L23 9L23 10L24 10L24 13L23 13L23 14L24 14L24 13L26 13L26 14L25 14L25 16L24 16L24 15L23 15L23 16L21 16L21 14L20 14L20 13L19 13L19 12L18 12L18 13L17 13L17 10L18 10L18 9L19 9L19 8L18 8L18 9L17 9L17 10L16 10L16 14L17 14L17 15L16 15L16 16L14 16L14 15L13 15L13 13L14 13L14 14L15 14L15 10L14 10L14 9L13 9L13 8ZM5 10L5 11L4 11L4 12L5 12L5 13L6 13L6 12L7 12L7 11L6 11L6 10ZM21 11L21 12L22 12L22 11ZM12 12L12 13L13 13L13 12ZM0 14L0 16L1 16L1 14ZM26 14L26 15L27 15L27 14ZM12 15L12 16L9 16L9 17L12 17L12 16L13 16L13 15ZM17 15L17 17L14 17L14 20L12 20L12 21L14 21L14 22L15 22L15 24L17 24L17 25L18 25L18 24L19 24L19 23L18 23L18 22L19 22L19 21L18 21L18 19L19 19L19 17L20 17L20 18L21 18L21 17L20 17L20 16L19 16L19 15ZM18 16L18 17L17 17L17 18L16 18L16 19L15 19L15 20L14 20L14 21L16 21L16 19L17 19L17 18L18 18L18 17L19 17L19 16ZM25 16L25 17L24 17L24 19L27 19L27 18L25 18L25 17L26 17L26 16ZM0 17L0 18L1 18L1 17ZM4 17L4 18L3 18L3 19L4 19L4 18L5 18L5 19L6 19L6 20L7 20L7 19L8 19L8 20L9 20L9 19L8 19L8 18L7 18L7 17L6 17L6 18L5 18L5 17ZM22 17L22 18L23 18L23 17ZM6 18L6 19L7 19L7 18ZM10 21L10 22L11 22L11 21ZM17 21L17 22L16 22L16 23L17 23L17 22L18 22L18 21ZM21 21L21 24L24 24L24 21ZM22 22L22 23L23 23L23 22ZM12 23L12 24L13 24L13 23ZM12 27L12 28L13 28L13 27ZM0 0L0 7L7 7L7 0ZM1 1L1 6L6 6L6 1ZM2 2L2 5L5 5L5 2ZM22 0L22 7L29 7L29 0ZM23 1L23 6L28 6L28 1ZM24 2L24 5L27 5L27 2ZM0 22L0 29L7 29L7 22ZM1 23L1 28L6 28L6 23ZM2 24L2 27L5 27L5 24Z" fill="#000000"/></g></g></svg>
