<?xml version="1.0" encoding="UTF-8"?>
<svg xmlns="http://www.w3.org/2000/svg" version="1.1" width="300" height="300" viewBox="0 0 300 300"><rect x="0" y="0" width="300" height="300" fill="#ffffff"/><g transform="scale(9.091)"><g transform="translate(0,0)"><path fill-rule="evenodd" d="M8 0L8 1L9 1L9 2L8 2L8 5L9 5L9 4L11 4L11 5L10 5L10 10L9 10L9 8L8 8L8 9L7 9L7 8L6 8L6 9L7 9L7 10L5 10L5 9L4 9L4 8L0 8L0 9L1 9L1 10L0 10L0 11L1 11L1 12L0 12L0 19L1 19L1 16L3 16L3 15L4 15L4 16L5 16L5 15L7 15L7 16L6 16L6 17L7 17L7 16L8 16L8 17L9 17L9 19L7 19L7 18L5 18L5 17L4 17L4 18L3 18L3 17L2 17L2 18L3 18L3 19L7 19L7 20L6 20L6 21L7 21L7 20L9 20L9 21L8 21L8 22L6 22L6 23L7 23L7 24L6 24L6 25L8 25L8 26L9 26L9 28L10 28L10 26L12 26L12 28L11 28L11 29L12 29L12 30L10 30L10 29L8 29L8 33L14 33L14 32L13 32L13 30L14 30L14 29L12 29L12 28L14 28L14 27L15 27L15 26L16 26L16 27L17 27L17 26L18 26L18 24L20 24L20 23L18 23L18 22L21 22L21 23L23 23L23 27L21 27L21 29L20 29L20 32L18 32L18 29L19 29L19 28L20 28L20 25L19 25L19 28L18 28L18 29L17 29L17 28L16 28L16 29L15 29L15 31L16 31L16 32L17 32L17 33L20 33L20 32L21 32L21 33L22 33L22 32L23 32L23 31L22 31L22 32L21 32L21 29L22 29L22 30L23 30L23 29L25 29L25 30L24 30L24 32L25 32L25 33L26 33L26 32L28 32L28 33L29 33L29 32L28 32L28 31L27 31L27 30L26 30L26 29L32 29L32 30L33 30L33 29L32 29L32 28L33 28L33 27L31 27L31 25L30 25L30 26L29 26L29 24L30 24L30 21L31 21L31 24L32 24L32 25L33 25L33 24L32 24L32 23L33 23L33 21L31 21L31 20L30 20L30 21L29 21L29 24L28 24L28 23L27 23L27 21L26 21L26 20L27 20L27 19L28 19L28 20L29 20L29 19L30 19L30 18L31 18L31 19L32 19L32 20L33 20L33 19L32 19L32 18L33 18L33 16L31 16L31 14L32 14L32 13L30 13L30 14L29 14L29 15L28 15L28 13L29 13L29 11L31 11L31 12L32 12L32 11L33 11L33 8L32 8L32 9L31 9L31 8L28 8L28 9L31 9L31 10L27 10L27 9L26 9L26 8L25 8L25 2L24 2L24 0L23 0L23 3L22 3L22 4L21 4L21 3L20 3L20 4L19 4L19 5L18 5L18 3L19 3L19 1L20 1L20 0L15 0L15 1L14 1L14 0L12 0L12 1L11 1L11 0L10 0L10 1L9 1L9 0ZM21 0L21 2L22 2L22 0ZM13 1L13 2L11 2L11 4L12 4L12 3L13 3L13 2L14 2L14 1ZM15 1L15 3L18 3L18 2L17 2L17 1ZM13 4L13 5L12 5L12 6L11 6L11 8L12 8L12 6L13 6L13 11L11 11L11 13L9 13L9 14L8 14L8 12L7 12L7 11L5 11L5 12L3 12L3 11L2 11L2 10L1 10L1 11L2 11L2 12L1 12L1 15L3 15L3 14L4 14L4 13L5 13L5 14L8 14L8 16L10 16L10 19L9 19L9 20L10 20L10 19L12 19L12 20L11 20L11 21L9 21L9 23L8 23L8 24L9 24L9 23L10 23L10 25L9 25L9 26L10 26L10 25L11 25L11 23L14 23L14 22L15 22L15 23L16 23L16 24L12 24L12 26L13 26L13 27L14 27L14 26L15 26L15 25L17 25L17 24L18 24L18 23L16 23L16 22L17 22L17 21L13 21L13 18L15 18L15 17L16 17L16 16L15 16L15 17L14 17L14 15L13 15L13 14L15 14L15 15L16 15L16 14L17 14L17 18L19 18L19 21L21 21L21 22L23 22L23 21L24 21L24 22L25 22L25 23L26 23L26 24L27 24L27 23L26 23L26 22L25 22L25 20L26 20L26 15L24 15L24 12L25 12L25 13L26 13L26 14L27 14L27 13L28 13L28 11L26 11L26 12L25 12L25 11L24 11L24 12L23 12L23 11L22 11L22 10L23 10L23 8L24 8L24 10L25 10L25 8L24 8L24 4L22 4L22 5L21 5L21 4L20 4L20 5L21 5L21 7L20 7L20 6L19 6L19 7L18 7L18 5L17 5L17 4L16 4L16 5L15 5L15 8L14 8L14 4ZM22 5L22 8L21 8L21 9L19 9L19 8L20 8L20 7L19 7L19 8L18 8L18 7L17 7L17 6L16 6L16 7L17 7L17 9L16 9L16 8L15 8L15 9L14 9L14 11L13 11L13 12L12 12L12 13L11 13L11 14L9 14L9 15L11 15L11 16L12 16L12 17L13 17L13 16L12 16L12 14L13 14L13 13L14 13L14 11L15 11L15 10L17 10L17 11L16 11L16 12L15 12L15 14L16 14L16 13L19 13L19 14L18 14L18 15L20 15L20 19L23 19L23 20L25 20L25 19L23 19L23 18L24 18L24 17L23 17L23 16L24 16L24 15L23 15L23 12L22 12L22 14L20 14L20 12L21 12L21 10L22 10L22 8L23 8L23 5ZM8 6L8 7L9 7L9 6ZM3 9L3 10L4 10L4 9ZM11 9L11 10L12 10L12 9ZM17 9L17 10L18 10L18 9ZM8 10L8 11L9 11L9 10ZM19 10L19 11L20 11L20 10ZM31 10L31 11L32 11L32 10ZM17 11L17 12L18 12L18 11ZM5 12L5 13L7 13L7 12ZM2 13L2 14L3 14L3 13ZM22 15L22 16L23 16L23 15ZM27 15L27 17L28 17L28 15ZM29 15L29 16L30 16L30 15ZM18 16L18 17L19 17L19 16ZM21 17L21 18L23 18L23 17ZM31 17L31 18L32 18L32 17ZM28 18L28 19L29 19L29 18ZM15 19L15 20L16 20L16 19ZM3 20L3 21L0 21L0 22L5 22L5 20ZM21 20L21 21L22 21L22 20ZM1 23L1 24L0 24L0 25L1 25L1 24L3 24L3 25L5 25L5 24L4 24L4 23ZM13 25L13 26L14 26L14 25ZM21 25L21 26L22 26L22 25ZM25 25L25 28L28 28L28 25ZM26 26L26 27L27 27L27 26ZM23 27L23 28L24 28L24 27ZM16 29L16 30L17 30L17 29ZM9 30L9 31L10 31L10 30ZM29 30L29 31L30 31L30 30ZM11 31L11 32L12 32L12 31ZM25 31L25 32L26 32L26 31ZM32 31L32 32L33 32L33 31ZM30 32L30 33L31 33L31 32ZM0 0L0 7L7 7L7 0ZM1 1L1 6L6 6L6 1ZM2 2L2 5L5 5L5 2ZM26 0L26 7L33 7L33 0ZM27 1L27 6L32 6L32 1ZM28 2L28 5L31 5L31 2ZM0 26L0 33L7 33L7 26ZM1 27L1 32L6 32L6 27ZM2 28L2 31L5 31L5 28Z" fill="#000000"/></g></g></svg>
