<?xml version="1.0" encoding="UTF-8"?>
<svg xmlns="http://www.w3.org/2000/svg" version="1.1" width="300" height="300" viewBox="0 0 300 300"><rect x="0" y="0" width="300" height="300" fill="#ffffff"/><g transform="scale(9.091)"><g transform="translate(0,0)"><path fill-rule="evenodd" d="M9 0L9 1L8 1L8 2L9 2L9 3L8 3L8 4L10 4L10 7L11 7L11 4L12 4L12 5L13 5L13 6L12 6L12 9L13 9L13 8L14 8L14 9L16 9L16 10L15 10L15 11L14 11L14 12L15 12L15 11L16 11L16 12L17 12L17 13L16 13L16 14L15 14L15 13L12 13L12 11L13 11L13 10L11 10L11 11L10 11L10 9L11 9L11 8L6 8L6 9L7 9L7 10L5 10L5 8L0 8L0 13L1 13L1 14L0 14L0 15L2 15L2 17L1 17L1 16L0 16L0 17L1 17L1 18L0 18L0 19L1 19L1 21L0 21L0 25L1 25L1 21L3 21L3 20L4 20L4 22L3 22L3 25L7 25L7 24L9 24L9 23L10 23L10 21L8 21L8 23L7 23L7 22L6 22L6 21L7 21L7 20L9 20L9 19L10 19L10 20L11 20L11 21L12 21L12 22L13 22L13 23L12 23L12 25L13 25L13 24L14 24L14 25L15 25L15 27L14 27L14 28L15 28L15 29L12 29L12 27L13 27L13 26L11 26L11 24L10 24L10 26L11 26L11 27L9 27L9 25L8 25L8 27L9 27L9 28L8 28L8 33L11 33L11 32L9 32L9 29L10 29L10 30L11 30L11 29L12 29L12 30L13 30L13 31L12 31L12 33L13 33L13 32L14 32L14 33L15 33L15 32L17 32L17 33L19 33L19 30L20 30L20 32L22 32L22 33L28 33L28 32L29 32L29 33L30 33L30 32L31 32L31 33L32 33L32 32L31 32L31 30L33 30L33 28L31 28L31 27L32 27L32 26L33 26L33 24L32 24L32 26L31 26L31 25L30 25L30 24L31 24L31 23L32 23L32 22L33 22L33 21L32 21L32 20L31 20L31 19L32 19L32 18L33 18L33 17L32 17L32 16L31 16L31 15L32 15L32 14L33 14L33 13L31 13L31 15L30 15L30 16L31 16L31 19L30 19L30 17L29 17L29 15L28 15L28 16L27 16L27 17L26 17L26 15L27 15L27 13L30 13L30 12L31 12L31 11L32 11L32 10L33 10L33 9L32 9L32 8L31 8L31 9L30 9L30 8L29 8L29 9L30 9L30 10L29 10L29 11L30 11L30 12L28 12L28 11L26 11L26 10L27 10L27 9L28 9L28 8L27 8L27 9L26 9L26 8L25 8L25 5L24 5L24 4L25 4L25 3L24 3L24 2L23 2L23 1L25 1L25 0L23 0L23 1L22 1L22 2L21 2L21 0L19 0L19 1L18 1L18 3L17 3L17 2L16 2L16 1L17 1L17 0L16 0L16 1L14 1L14 2L16 2L16 3L15 3L15 4L18 4L18 3L19 3L19 5L14 5L14 4L12 4L12 2L13 2L13 1L11 1L11 2L10 2L10 0ZM19 1L19 3L20 3L20 5L19 5L19 8L18 8L18 6L17 6L17 7L16 7L16 6L15 6L15 7L14 7L14 6L13 6L13 7L14 7L14 8L15 8L15 7L16 7L16 9L17 9L17 10L16 10L16 11L17 11L17 12L18 12L18 13L17 13L17 14L16 14L16 15L17 15L17 16L18 16L18 17L17 17L17 18L16 18L16 20L18 20L18 21L17 21L17 22L16 22L16 24L15 24L15 23L14 23L14 24L15 24L15 25L17 25L17 24L19 24L19 25L20 25L20 23L22 23L22 22L23 22L23 24L24 24L24 23L25 23L25 24L29 24L29 21L30 21L30 23L31 23L31 20L30 20L30 19L29 19L29 17L27 17L27 18L26 18L26 17L25 17L25 18L23 18L23 17L22 17L22 16L20 16L20 14L18 14L18 13L21 13L21 15L22 15L22 14L23 14L23 15L24 15L24 16L25 16L25 15L26 15L26 13L27 13L27 12L26 12L26 11L25 11L25 8L23 8L23 7L24 7L24 5L23 5L23 7L22 7L22 5L21 5L21 4L22 4L22 3L23 3L23 4L24 4L24 3L23 3L23 2L22 2L22 3L20 3L20 1ZM10 3L10 4L11 4L11 3ZM8 5L8 7L9 7L9 5ZM20 5L20 8L22 8L22 9L19 9L19 10L21 10L21 11L20 11L20 12L23 12L23 14L24 14L24 15L25 15L25 14L24 14L24 13L26 13L26 12L24 12L24 11L23 11L23 10L24 10L24 9L23 9L23 8L22 8L22 7L21 7L21 5ZM17 8L17 9L18 9L18 8ZM1 9L1 10L2 10L2 9ZM22 9L22 10L23 10L23 9ZM30 10L30 11L31 11L31 10ZM2 11L2 12L1 12L1 13L2 13L2 15L3 15L3 16L5 16L5 18L3 18L3 17L2 17L2 18L1 18L1 19L2 19L2 20L3 20L3 19L5 19L5 21L6 21L6 20L7 20L7 19L5 19L5 18L7 18L7 17L6 17L6 16L7 16L7 15L9 15L9 14L8 14L8 12L9 12L9 11L8 11L8 12L7 12L7 11L6 11L6 12L7 12L7 13L6 13L6 14L5 14L5 12L4 12L4 11ZM2 12L2 13L3 13L3 15L4 15L4 12ZM10 12L10 13L11 13L11 15L10 15L10 16L8 16L8 19L9 19L9 18L13 18L13 19L12 19L12 21L15 21L15 20L14 20L14 19L15 19L15 17L14 17L14 16L15 16L15 15L14 15L14 16L13 16L13 17L12 17L12 15L13 15L13 14L12 14L12 13L11 13L11 12ZM6 14L6 15L5 15L5 16L6 16L6 15L7 15L7 14ZM10 16L10 17L11 17L11 16ZM19 16L19 17L18 17L18 18L17 18L17 19L18 19L18 20L19 20L19 21L18 21L18 23L19 23L19 22L21 22L21 21L20 21L20 20L23 20L23 18L22 18L22 17L21 17L21 18L20 18L20 16ZM19 18L19 19L20 19L20 18ZM24 19L24 21L23 21L23 22L24 22L24 21L25 21L25 23L26 23L26 22L27 22L27 23L28 23L28 22L27 22L27 21L29 21L29 20L27 20L27 19ZM26 20L26 21L27 21L27 20ZM5 22L5 24L7 24L7 23L6 23L6 22ZM21 24L21 25L22 25L22 26L24 26L24 25L22 25L22 24ZM25 25L25 28L28 28L28 25ZM29 25L29 26L30 26L30 27L31 27L31 26L30 26L30 25ZM16 26L16 27L17 27L17 28L16 28L16 29L15 29L15 30L16 30L16 29L17 29L17 30L19 30L19 29L17 29L17 28L19 28L19 27L21 27L21 26ZM26 26L26 27L27 27L27 26ZM10 28L10 29L11 29L11 28ZM20 28L20 29L22 29L22 28ZM23 28L23 31L22 31L22 30L21 30L21 31L22 31L22 32L23 32L23 31L24 31L24 32L25 32L25 31L26 31L26 30L27 30L27 32L28 32L28 31L29 31L29 30L31 30L31 28L29 28L29 30L28 30L28 29L26 29L26 30L25 30L25 29L24 29L24 28ZM24 30L24 31L25 31L25 30ZM14 31L14 32L15 32L15 31ZM17 31L17 32L18 32L18 31ZM0 0L0 7L7 7L7 0ZM1 1L1 6L6 6L6 1ZM2 2L2 5L5 5L5 2ZM26 0L26 7L33 7L33 0ZM27 1L27 6L32 6L32 1ZM28 2L28 5L31 5L31 2ZM0 26L0 33L7 33L7 26ZM1 27L1 32L6 32L6 27ZM2 28L2 31L5 31L5 28Z" fill="#000000"/></g></g></svg>
