<?xml version="1.0" encoding="UTF-8"?>
<svg xmlns="http://www.w3.org/2000/svg" version="1.1" width="300" height="300" viewBox="0 0 300 300"><rect x="0" y="0" width="300" height="300" fill="#ffffff"/><g transform="scale(9.091)"><g transform="translate(0,0)"><path fill-rule="evenodd" d="M10 0L10 2L11 2L11 0ZM12 0L12 1L13 1L13 0ZM16 0L16 1L15 1L15 2L14 2L14 4L15 4L15 6L14 6L14 5L11 5L11 6L10 6L10 4L11 4L11 3L8 3L8 4L9 4L9 5L8 5L8 7L9 7L9 8L6 8L6 9L7 9L7 10L6 10L6 11L7 11L7 12L6 12L6 13L7 13L7 12L8 12L8 13L9 13L9 15L8 15L8 14L6 14L6 15L7 15L7 16L6 16L6 17L5 17L5 18L4 18L4 16L5 16L5 15L4 15L4 16L3 16L3 15L2 15L2 14L4 14L4 13L5 13L5 12L4 12L4 10L5 10L5 8L0 8L0 9L1 9L1 10L2 10L2 11L3 11L3 12L4 12L4 13L2 13L2 12L1 12L1 11L0 11L0 15L2 15L2 16L3 16L3 19L1 19L1 18L2 18L2 17L1 17L1 16L0 16L0 17L1 17L1 18L0 18L0 19L1 19L1 21L0 21L0 25L1 25L1 21L2 21L2 22L3 22L3 23L2 23L2 25L5 25L5 24L6 24L6 25L7 25L7 24L8 24L8 27L9 27L9 26L11 26L11 25L12 25L12 26L13 26L13 27L12 27L12 29L13 29L13 28L14 28L14 29L15 29L15 28L17 28L17 29L18 29L18 30L15 30L15 31L14 31L14 32L15 32L15 33L16 33L16 31L18 31L18 32L17 32L17 33L18 33L18 32L20 32L20 33L21 33L21 32L22 32L22 33L25 33L25 32L22 32L22 31L23 31L23 30L25 30L25 31L27 31L27 32L26 32L26 33L27 33L27 32L28 32L28 31L27 31L27 30L29 30L29 33L30 33L30 32L31 32L31 33L32 33L32 32L31 32L31 31L30 31L30 30L33 30L33 28L32 28L32 26L33 26L33 24L32 24L32 26L29 26L29 24L31 24L31 23L32 23L32 22L33 22L33 21L32 21L32 20L31 20L31 19L32 19L32 18L33 18L33 17L32 17L32 16L31 16L31 15L32 15L32 14L33 14L33 13L31 13L31 15L30 15L30 13L29 13L29 12L28 12L28 13L29 13L29 15L30 15L30 16L31 16L31 19L30 19L30 17L29 17L29 16L28 16L28 15L25 15L25 16L24 16L24 15L23 15L23 14L24 14L24 13L23 13L23 12L25 12L25 13L26 13L26 14L27 14L27 13L26 13L26 11L29 11L29 10L27 10L27 9L28 9L28 8L27 8L27 9L26 9L26 8L24 8L24 7L25 7L25 6L24 6L24 7L23 7L23 5L25 5L25 3L24 3L24 2L25 2L25 1L24 1L24 0L21 0L21 1L20 1L20 0ZM8 1L8 2L9 2L9 1ZM16 1L16 3L15 3L15 4L17 4L17 3L18 3L18 4L22 4L22 5L23 5L23 4L22 4L22 3L23 3L23 2L24 2L24 1L23 1L23 2L22 2L22 1L21 1L21 2L20 2L20 1ZM12 2L12 4L13 4L13 2ZM21 2L21 3L22 3L22 2ZM17 5L17 7L16 7L16 6L15 6L15 7L14 7L14 6L13 6L13 7L12 7L12 6L11 6L11 7L12 7L12 9L11 9L11 8L10 8L10 9L8 9L8 11L9 11L9 12L11 12L11 13L10 13L10 16L9 16L9 18L10 18L10 19L8 19L8 20L7 20L7 19L5 19L5 23L6 23L6 24L7 24L7 23L6 23L6 22L8 22L8 23L9 23L9 20L11 20L11 21L10 21L10 22L13 22L13 23L12 23L12 25L15 25L15 24L18 24L18 25L19 25L19 24L20 24L20 26L17 26L17 28L18 28L18 29L19 29L19 27L20 27L20 26L21 26L21 25L22 25L22 26L24 26L24 23L25 23L25 22L26 22L26 21L27 21L27 24L29 24L29 22L30 22L30 23L31 23L31 22L30 22L30 21L31 21L31 20L30 20L30 21L27 21L27 20L28 20L28 19L29 19L29 17L27 17L27 16L26 16L26 17L27 17L27 18L26 18L26 19L24 19L24 18L25 18L25 17L24 17L24 18L23 18L23 16L21 16L21 15L20 15L20 14L16 14L16 13L17 13L17 12L20 12L20 13L22 13L22 14L23 14L23 13L22 13L22 12L21 12L21 11L22 11L22 10L23 10L23 11L24 11L24 10L25 10L25 11L26 11L26 9L24 9L24 8L20 8L20 6L21 6L21 7L22 7L22 6L21 6L21 5ZM9 6L9 7L10 7L10 6ZM18 6L18 8L15 8L15 10L14 10L14 9L12 9L12 10L13 10L13 11L12 11L12 13L13 13L13 12L14 12L14 13L16 13L16 12L17 12L17 9L18 9L18 11L19 11L19 10L20 10L20 11L21 11L21 9L20 9L20 8L19 8L19 6ZM18 8L18 9L19 9L19 8ZM29 8L29 9L30 9L30 8ZM31 8L31 10L33 10L33 9L32 9L32 8ZM3 9L3 10L4 10L4 9ZM10 9L10 11L11 11L11 9ZM23 9L23 10L24 10L24 9ZM14 11L14 12L15 12L15 11ZM30 11L30 12L31 12L31 11ZM1 13L1 14L2 14L2 13ZM11 14L11 16L10 16L10 18L11 18L11 17L12 17L12 18L13 18L13 19L12 19L12 21L13 21L13 20L14 20L14 21L15 21L15 20L14 20L14 19L16 19L16 18L15 18L15 17L18 17L18 18L17 18L17 19L18 19L18 20L16 20L16 22L15 22L15 23L14 23L14 24L15 24L15 23L16 23L16 22L17 22L17 21L18 21L18 23L19 23L19 22L20 22L20 24L22 24L22 25L23 25L23 24L22 24L22 22L25 22L25 21L26 21L26 20L24 20L24 19L23 19L23 18L22 18L22 19L21 19L21 20L22 20L22 21L18 21L18 20L20 20L20 19L19 19L19 18L21 18L21 17L18 17L18 16L16 16L16 14L15 14L15 15L14 15L14 16L15 16L15 17L12 17L12 15L13 15L13 14ZM7 16L7 17L6 17L6 18L8 18L8 16ZM2 20L2 21L4 21L4 20ZM6 20L6 21L7 21L7 20ZM3 23L3 24L4 24L4 23ZM10 23L10 24L9 24L9 25L11 25L11 23ZM25 25L25 28L28 28L28 25ZM26 26L26 27L27 27L27 26ZM14 27L14 28L15 28L15 27ZM8 28L8 33L12 33L12 31L13 31L13 30L11 30L11 28ZM20 28L20 29L22 29L22 30L23 30L23 29L24 29L24 28L23 28L23 29L22 29L22 28ZM30 28L30 29L29 29L29 30L30 30L30 29L31 29L31 28ZM9 29L9 30L10 30L10 29ZM26 29L26 30L27 30L27 29ZM19 30L19 31L20 31L20 32L21 32L21 30ZM9 31L9 32L11 32L11 31ZM0 0L0 7L7 7L7 0ZM1 1L1 6L6 6L6 1ZM2 2L2 5L5 5L5 2ZM26 0L26 7L33 7L33 0ZM27 1L27 6L32 6L32 1ZM28 2L28 5L31 5L31 2ZM0 26L0 33L7 33L7 26ZM1 27L1 32L6 32L6 27ZM2 28L2 31L5 31L5 28Z" fill="#000000"/></g></g></svg>
