<?xml version="1.0" encoding="UTF-8"?>
<svg xmlns="http://www.w3.org/2000/svg" version="1.1" width="300" height="300" viewBox="0 0 300 300"><rect x="0" y="0" width="300" height="300" fill="#ffffff"/><g transform="scale(8.571)"><g transform="translate(1,1)"><path fill-rule="evenodd" d="M10 0L10 3L11 3L11 4L9 4L9 2L8 2L8 8L9 8L9 10L8 10L8 11L7 11L7 10L6 10L6 9L7 9L7 8L2 8L2 9L4 9L4 10L5 10L5 13L4 13L4 12L3 12L3 10L1 10L1 12L0 12L0 15L1 15L1 17L0 17L0 25L1 25L1 22L2 22L2 23L3 23L3 24L4 24L4 23L7 23L7 22L5 22L5 21L7 21L7 20L8 20L8 22L9 22L9 23L8 23L8 24L10 24L10 26L12 26L12 27L11 27L11 28L15 28L15 31L13 31L13 30L12 30L12 31L13 31L13 33L14 33L14 32L15 32L15 33L18 33L18 32L16 32L16 31L18 31L18 30L19 30L19 29L17 29L17 28L20 28L20 29L23 29L23 30L26 30L26 31L25 31L25 32L24 32L24 33L25 33L25 32L26 32L26 31L28 31L28 32L27 32L27 33L28 33L28 32L29 32L29 33L30 33L30 32L31 32L31 33L32 33L32 32L31 32L31 29L32 29L32 30L33 30L33 27L32 27L32 26L33 26L33 23L32 23L32 22L33 22L33 21L32 21L32 19L31 19L31 17L30 17L30 16L31 16L31 15L32 15L32 14L33 14L33 11L32 11L32 10L33 10L33 9L31 9L31 8L26 8L26 10L28 10L28 13L25 13L25 15L24 15L24 16L25 16L25 18L27 18L27 20L28 20L28 21L25 21L25 19L22 19L22 18L24 18L24 17L23 17L23 15L22 15L22 13L23 13L23 14L24 14L24 13L23 13L23 12L22 12L22 11L23 11L23 10L24 10L24 11L25 11L25 10L24 10L24 9L25 9L25 5L24 5L24 4L25 4L25 3L24 3L24 4L23 4L23 1L24 1L24 0L23 0L23 1L22 1L22 0L18 0L18 2L19 2L19 3L18 3L18 4L16 4L16 3L17 3L17 2L16 2L16 1L17 1L17 0L16 0L16 1L15 1L15 2L14 2L14 3L15 3L15 4L14 4L14 8L11 8L11 6L12 6L12 7L13 7L13 3L11 3L11 0ZM12 0L12 2L13 2L13 0ZM19 1L19 2L20 2L20 3L19 3L19 4L18 4L18 5L15 5L15 8L14 8L14 10L16 10L16 11L14 11L14 12L11 12L11 10L12 10L12 11L13 11L13 9L11 9L11 8L10 8L10 6L9 6L9 8L10 8L10 9L11 9L11 10L10 10L10 12L11 12L11 13L14 13L14 14L11 14L11 15L10 15L10 14L9 14L9 16L8 16L8 15L4 15L4 13L3 13L3 12L1 12L1 13L2 13L2 14L1 14L1 15L2 15L2 14L3 14L3 15L4 15L4 16L2 16L2 18L1 18L1 19L3 19L3 21L2 21L2 20L1 20L1 21L2 21L2 22L4 22L4 19L5 19L5 20L7 20L7 19L8 19L8 20L9 20L9 19L10 19L10 21L9 21L9 22L10 22L10 24L11 24L11 23L12 23L12 22L13 22L13 20L12 20L12 19L11 19L11 16L12 16L12 17L13 17L13 16L14 16L14 19L15 19L15 20L16 20L16 21L18 21L18 23L17 23L17 22L14 22L14 23L13 23L13 26L16 26L16 27L15 27L15 28L17 28L17 26L16 26L16 25L17 25L17 24L18 24L18 25L19 25L19 24L18 24L18 23L19 23L19 22L20 22L20 23L22 23L22 24L21 24L21 27L20 27L20 26L18 26L18 27L20 27L20 28L23 28L23 29L24 29L24 28L23 28L23 27L22 27L22 26L23 26L23 25L22 25L22 24L25 24L25 23L27 23L27 22L25 22L25 21L24 21L24 20L22 20L22 22L20 22L20 21L21 21L21 20L20 20L20 19L21 19L21 18L19 18L19 19L18 19L18 17L17 17L17 16L19 16L19 17L22 17L22 16L21 16L21 15L20 15L20 14L21 14L21 13L22 13L22 12L21 12L21 13L19 13L19 12L17 12L17 13L16 13L16 11L17 11L17 10L16 10L16 6L17 6L17 8L18 8L18 9L19 9L19 7L20 7L20 6L21 6L21 7L22 7L22 6L21 6L21 5L23 5L23 7L24 7L24 5L23 5L23 4L22 4L22 3L21 3L21 1ZM15 2L15 3L16 3L16 2ZM20 4L20 5L18 5L18 7L19 7L19 6L20 6L20 5L21 5L21 4ZM0 8L0 9L1 9L1 8ZM21 8L21 11L22 11L22 10L23 10L23 9L24 9L24 8L23 8L23 9L22 9L22 8ZM28 9L28 10L29 10L29 11L30 11L30 10L29 10L29 9ZM18 10L18 11L20 11L20 10ZM6 11L6 12L7 12L7 11ZM14 12L14 13L15 13L15 17L16 17L16 15L17 15L17 14L16 14L16 13L15 13L15 12ZM30 12L30 13L28 13L28 16L29 16L29 14L30 14L30 15L31 15L31 14L30 14L30 13L31 13L31 12ZM6 13L6 14L8 14L8 13ZM18 13L18 15L19 15L19 13ZM4 16L4 17L7 17L7 18L5 18L5 19L7 19L7 18L8 18L8 17L7 17L7 16ZM26 16L26 17L27 17L27 16ZM32 16L32 18L33 18L33 16ZM9 17L9 18L10 18L10 17ZM28 17L28 18L29 18L29 19L30 19L30 18L29 18L29 17ZM3 18L3 19L4 19L4 18ZM15 18L15 19L16 19L16 20L17 20L17 18ZM11 20L11 21L10 21L10 22L12 22L12 20ZM18 20L18 21L19 21L19 20ZM30 20L30 21L31 21L31 22L29 22L29 21L28 21L28 24L30 24L30 25L29 25L29 27L30 27L30 25L31 25L31 26L32 26L32 25L31 25L31 24L30 24L30 23L31 23L31 22L32 22L32 21L31 21L31 20ZM23 21L23 22L22 22L22 23L23 23L23 22L24 22L24 21ZM14 23L14 24L15 24L15 23ZM16 23L16 24L17 24L17 23ZM6 24L6 25L7 25L7 24ZM8 25L8 26L9 26L9 25ZM25 25L25 28L28 28L28 25ZM26 26L26 27L27 27L27 26ZM8 27L8 31L9 31L9 30L11 30L11 29L10 29L10 28L9 28L9 27ZM30 28L30 29L29 29L29 30L28 30L28 29L26 29L26 30L28 30L28 31L29 31L29 32L30 32L30 29L31 29L31 28ZM16 29L16 30L17 30L17 29ZM20 30L20 31L21 31L21 32L22 32L22 33L23 33L23 31L22 31L22 30ZM10 31L10 33L11 33L11 31ZM8 32L8 33L9 33L9 32ZM0 0L0 7L7 7L7 0ZM1 1L1 6L6 6L6 1ZM2 2L2 5L5 5L5 2ZM26 0L26 7L33 7L33 0ZM27 1L27 6L32 6L32 1ZM28 2L28 5L31 5L31 2ZM0 26L0 33L7 33L7 26ZM1 27L1 32L6 32L6 27ZM2 28L2 31L5 31L5 28Z" fill="#000000"/></g></g></svg>
