<?xml version="1.0" encoding="UTF-8"?>
<svg xmlns="http://www.w3.org/2000/svg" version="1.1" width="300" height="300" viewBox="0 0 300 300"><rect x="0" y="0" width="300" height="300" fill="#ffffff"/><g transform="scale(10.345)"><g transform="translate(0,0)"><path fill-rule="evenodd" d="M10 0L10 1L8 1L8 3L9 3L9 4L8 4L8 8L6 8L6 9L4 9L4 8L3 8L3 9L2 9L2 8L0 8L0 9L2 9L2 10L1 10L1 11L0 11L0 12L1 12L1 13L0 13L0 15L2 15L2 13L4 13L4 14L5 14L5 15L7 15L7 14L6 14L6 13L7 13L7 12L8 12L8 10L10 10L10 9L8 9L8 8L9 8L9 5L10 5L10 8L11 8L11 9L12 9L12 11L9 11L9 12L10 12L10 13L11 13L11 12L12 12L12 14L9 14L9 13L8 13L8 14L9 14L9 15L10 15L10 16L12 16L12 17L8 17L8 16L6 16L6 17L5 17L5 16L2 16L2 17L1 17L1 16L0 16L0 17L1 17L1 18L0 18L0 19L1 19L1 18L2 18L2 17L3 17L3 19L2 19L2 21L3 21L3 20L6 20L6 21L7 21L7 20L6 20L6 19L7 19L7 18L6 18L6 17L8 17L8 18L10 18L10 19L9 19L9 20L8 20L8 23L9 23L9 25L8 25L8 26L10 26L10 27L8 27L8 29L10 29L10 28L12 28L12 27L13 27L13 28L16 28L16 29L21 29L21 27L22 27L22 26L24 26L24 28L23 28L23 29L24 29L24 28L25 28L25 29L26 29L26 28L25 28L25 26L27 26L27 25L25 25L25 20L24 20L24 17L22 17L22 16L24 16L24 15L25 15L25 17L26 17L26 15L27 15L27 17L28 17L28 18L27 18L27 20L26 20L26 22L27 22L27 23L26 23L26 24L27 24L27 23L28 23L28 22L29 22L29 21L27 21L27 20L29 20L29 17L28 17L28 15L29 15L29 14L27 14L27 13L29 13L29 12L28 12L28 10L29 10L29 9L28 9L28 8L26 8L26 9L25 9L25 8L22 8L22 9L21 9L21 8L20 8L20 9L21 9L21 10L19 10L19 9L16 9L16 11L15 11L15 12L14 12L14 11L13 11L13 9L15 9L15 8L12 8L12 7L13 7L13 6L14 6L14 7L15 7L15 6L16 6L16 7L17 7L17 8L19 8L19 6L20 6L20 7L21 7L21 4L20 4L20 5L19 5L19 4L16 4L16 3L14 3L14 4L12 4L12 7L11 7L11 4L10 4L10 3L9 3L9 2L11 2L11 0ZM13 0L13 2L16 2L16 0ZM18 0L18 1L17 1L17 3L18 3L18 2L19 2L19 3L21 3L21 1L20 1L20 0ZM19 1L19 2L20 2L20 1ZM14 4L14 6L15 6L15 4ZM16 5L16 6L17 6L17 7L18 7L18 6L17 6L17 5ZM3 9L3 10L4 10L4 9ZM6 9L6 10L8 10L8 9ZM23 9L23 11L22 11L22 10L21 10L21 11L22 11L22 12L23 12L23 13L22 13L22 15L21 15L21 12L18 12L18 11L17 11L17 12L18 12L18 13L20 13L20 14L17 14L17 13L16 13L16 12L15 12L15 13L14 13L14 14L12 14L12 15L14 15L14 14L15 14L15 15L18 15L18 16L19 16L19 15L20 15L20 17L19 17L19 19L18 19L18 17L17 17L17 16L16 16L16 17L15 17L15 16L13 16L13 17L15 17L15 18L11 18L11 19L10 19L10 20L9 20L9 21L10 21L10 22L9 22L9 23L10 23L10 24L11 24L11 26L12 26L12 25L13 25L13 23L12 23L12 21L13 21L13 20L15 20L15 21L14 21L14 24L15 24L15 25L14 25L14 26L13 26L13 27L14 27L14 26L15 26L15 27L16 27L16 28L17 28L17 27L16 27L16 25L17 25L17 24L19 24L19 27L18 27L18 28L20 28L20 24L19 24L19 23L20 23L20 21L19 21L19 23L18 23L18 22L17 22L17 21L18 21L18 20L23 20L23 19L22 19L22 17L21 17L21 16L22 16L22 15L24 15L24 14L25 14L25 15L26 15L26 13L27 13L27 12L26 12L26 13L25 13L25 12L23 12L23 11L24 11L24 10L25 10L25 9ZM26 9L26 10L28 10L28 9ZM1 11L1 12L3 12L3 11ZM6 11L6 12L7 12L7 11ZM12 11L12 12L13 12L13 11ZM4 12L4 13L5 13L5 12ZM4 17L4 18L5 18L5 19L6 19L6 18L5 18L5 17ZM20 17L20 19L21 19L21 17ZM25 18L25 19L26 19L26 18ZM11 19L11 20L10 20L10 21L12 21L12 20L13 20L13 19ZM15 19L15 20L18 20L18 19ZM0 20L0 21L1 21L1 20ZM21 21L21 24L24 24L24 21ZM10 22L10 23L11 23L11 24L12 24L12 23L11 23L11 22ZM22 22L22 23L23 23L23 22ZM15 23L15 24L16 24L16 23ZM28 24L28 25L29 25L29 24ZM21 25L21 26L22 26L22 25ZM28 26L28 27L27 27L27 29L28 29L28 27L29 27L29 26ZM0 0L0 7L7 7L7 0ZM1 1L1 6L6 6L6 1ZM2 2L2 5L5 5L5 2ZM22 0L22 7L29 7L29 0ZM23 1L23 6L28 6L28 1ZM24 2L24 5L27 5L27 2ZM0 22L0 29L7 29L7 22ZM1 23L1 28L6 28L6 23ZM2 24L2 27L5 27L5 24Z" fill="#000000"/></g></g></svg>
