<?xml version="1.0" encoding="UTF-8"?>
<svg xmlns="http://www.w3.org/2000/svg" version="1.1" width="300" height="300" viewBox="0 0 300 300"><rect x="0" y="0" width="300" height="300" fill="#ffffff"/><g transform="scale(9.091)"><g transform="translate(0,0)"><path fill-rule="evenodd" d="M10 0L10 2L11 2L11 0ZM12 0L12 1L13 1L13 2L12 2L12 4L13 4L13 3L14 3L14 4L15 4L15 5L17 5L17 6L16 6L16 9L12 9L12 7L13 7L13 5L11 5L11 6L10 6L10 4L11 4L11 3L8 3L8 4L9 4L9 5L8 5L8 7L9 7L9 8L6 8L6 9L5 9L5 8L0 8L0 10L4 10L4 11L1 11L1 12L0 12L0 14L1 14L1 12L2 12L2 13L3 13L3 14L4 14L4 15L3 15L3 16L2 16L2 15L0 15L0 17L3 17L3 16L4 16L4 17L5 17L5 18L6 18L6 19L7 19L7 20L6 20L6 21L8 21L8 23L7 23L7 22L4 22L4 21L5 21L5 20L4 20L4 21L3 21L3 22L2 22L2 25L3 25L3 24L4 24L4 25L7 25L7 24L8 24L8 23L9 23L9 24L10 24L10 23L11 23L11 25L8 25L8 27L9 27L9 28L8 28L8 33L10 33L10 32L9 32L9 30L10 30L10 31L11 31L11 33L12 33L12 31L13 31L13 30L11 30L11 25L12 25L12 26L13 26L13 27L12 27L12 29L13 29L13 28L14 28L14 29L16 29L16 30L15 30L15 31L14 31L14 32L15 32L15 33L16 33L16 32L17 32L17 33L18 33L18 32L19 32L19 31L18 31L18 30L23 30L23 28L24 28L24 29L25 29L25 30L24 30L24 31L20 31L20 32L22 32L22 33L28 33L28 32L29 32L29 33L30 33L30 32L31 32L31 33L32 33L32 32L31 32L31 30L33 30L33 29L32 29L32 28L33 28L33 27L32 27L32 26L33 26L33 24L32 24L32 26L31 26L31 25L30 25L30 24L31 24L31 23L32 23L32 22L33 22L33 21L32 21L32 20L31 20L31 19L32 19L32 18L33 18L33 17L32 17L32 16L31 16L31 15L32 15L32 14L33 14L33 13L31 13L31 15L30 15L30 16L31 16L31 19L30 19L30 17L29 17L29 15L28 15L28 16L27 16L27 17L26 17L26 15L27 15L27 13L30 13L30 12L31 12L31 11L32 11L32 10L33 10L33 9L32 9L32 8L31 8L31 9L30 9L30 8L29 8L29 9L30 9L30 10L29 10L29 11L30 11L30 12L28 12L28 11L26 11L26 10L27 10L27 9L28 9L28 8L27 8L27 9L26 9L26 8L25 8L25 5L24 5L24 4L25 4L25 3L24 3L24 2L23 2L23 1L25 1L25 0L23 0L23 1L22 1L22 2L20 2L20 3L22 3L22 4L19 4L19 5L17 5L17 4L18 4L18 3L17 3L17 4L16 4L16 2L17 2L17 1L16 1L16 0ZM18 0L18 2L19 2L19 1L21 1L21 0ZM8 1L8 2L9 2L9 1ZM14 2L14 3L15 3L15 2ZM22 2L22 3L23 3L23 4L24 4L24 3L23 3L23 2ZM19 5L19 7L18 7L18 6L17 6L17 8L18 8L18 9L16 9L16 10L17 10L17 11L16 11L16 13L17 13L17 12L18 12L18 11L19 11L19 13L21 13L21 15L22 15L22 14L23 14L23 15L24 15L24 16L25 16L25 15L26 15L26 13L27 13L27 12L26 12L26 11L25 11L25 8L23 8L23 7L24 7L24 5L23 5L23 7L22 7L22 5L21 5L21 7L20 7L20 5ZM9 6L9 7L10 7L10 6ZM11 6L11 7L12 7L12 6ZM14 6L14 8L15 8L15 6ZM19 7L19 8L20 8L20 9L18 9L18 10L20 10L20 11L21 11L21 12L23 12L23 14L24 14L24 15L25 15L25 14L24 14L24 13L26 13L26 12L24 12L24 11L23 11L23 10L24 10L24 9L23 9L23 8L22 8L22 7L21 7L21 8L20 8L20 7ZM10 8L10 9L6 9L6 10L8 10L8 12L7 12L7 11L6 11L6 12L5 12L5 11L4 11L4 13L5 13L5 14L8 14L8 15L9 15L9 16L10 16L10 15L9 15L9 13L8 13L8 12L11 12L11 13L10 13L10 14L13 14L13 15L12 15L12 17L10 17L10 18L11 18L11 22L13 22L13 23L12 23L12 25L15 25L15 24L14 24L14 23L15 23L15 22L16 22L16 24L17 24L17 27L14 27L14 28L16 28L16 29L17 29L17 30L18 30L18 29L22 29L22 28L21 28L21 27L20 27L20 26L18 26L18 25L20 25L20 24L21 24L21 25L22 25L22 27L23 27L23 26L24 26L24 25L22 25L22 24L21 24L21 23L22 23L22 22L23 22L23 24L24 24L24 23L25 23L25 24L29 24L29 21L30 21L30 23L31 23L31 20L30 20L30 19L29 19L29 17L27 17L27 18L26 18L26 17L25 17L25 18L23 18L23 17L22 17L22 16L20 16L20 14L15 14L15 13L14 13L14 12L15 12L15 11L14 11L14 12L13 12L13 13L12 13L12 11L13 11L13 10L12 10L12 9L11 9L11 8ZM21 8L21 9L22 9L22 10L23 10L23 9L22 9L22 8ZM4 9L4 10L5 10L5 9ZM10 9L10 11L11 11L11 9ZM30 10L30 11L31 11L31 10ZM6 12L6 13L7 13L7 12ZM6 15L6 16L7 16L7 17L6 17L6 18L7 18L7 19L8 19L8 20L10 20L10 19L9 19L9 17L8 17L8 16L7 16L7 15ZM14 15L14 16L15 16L15 15ZM16 15L16 16L17 16L17 15ZM19 16L19 18L20 18L20 16ZM12 17L12 18L13 18L13 19L12 19L12 21L13 21L13 20L14 20L14 21L16 21L16 22L17 22L17 21L18 21L18 20L17 20L17 18L16 18L16 17ZM21 17L21 19L20 19L20 20L23 20L23 18L22 18L22 17ZM0 18L0 19L1 19L1 20L2 20L2 19L3 19L3 18ZM14 19L14 20L15 20L15 19ZM24 19L24 21L23 21L23 22L24 22L24 21L25 21L25 23L26 23L26 22L27 22L27 23L28 23L28 22L27 22L27 21L29 21L29 20L27 20L27 19ZM16 20L16 21L17 21L17 20ZM26 20L26 21L27 21L27 20ZM0 21L0 25L1 25L1 21ZM19 21L19 22L20 22L20 23L18 23L18 24L20 24L20 23L21 23L21 21ZM4 23L4 24L7 24L7 23ZM25 25L25 28L28 28L28 25ZM29 25L29 26L30 26L30 27L31 27L31 26L30 26L30 25ZM9 26L9 27L10 27L10 26ZM26 26L26 27L27 27L27 26ZM18 27L18 28L17 28L17 29L18 29L18 28L19 28L19 27ZM9 28L9 29L10 29L10 28ZM29 28L29 30L28 30L28 29L26 29L26 30L25 30L25 31L24 31L24 32L25 32L25 31L26 31L26 30L27 30L27 32L28 32L28 31L29 31L29 30L31 30L31 28ZM17 31L17 32L18 32L18 31ZM0 0L0 7L7 7L7 0ZM1 1L1 6L6 6L6 1ZM2 2L2 5L5 5L5 2ZM26 0L26 7L33 7L33 0ZM27 1L27 6L32 6L32 1ZM28 2L28 5L31 5L31 2ZM0 26L0 33L7 33L7 26ZM1 27L1 32L6 32L6 27ZM2 28L2 31L5 31L5 28Z" fill="#000000"/></g></g></svg>
