<?xml version="1.0" encoding="UTF-8"?>
<svg xmlns="http://www.w3.org/2000/svg" version="1.1" width="300" height="300" viewBox="0 0 300 300"><rect x="0" y="0" width="300" height="300" fill="#ffffff"/><g transform="scale(9.091)"><g transform="translate(0,0)"><path fill-rule="evenodd" d="M9 0L9 1L8 1L8 2L9 2L9 3L8 3L8 4L10 4L10 7L11 7L11 4L12 4L12 5L13 5L13 4L14 4L14 5L15 5L15 6L14 6L14 8L13 8L13 6L12 6L12 9L16 9L16 10L15 10L15 11L14 11L14 10L11 10L11 11L10 11L10 9L11 9L11 8L6 8L6 9L5 9L5 8L0 8L0 10L1 10L1 11L0 11L0 13L1 13L1 14L6 14L6 15L4 15L4 16L3 16L3 17L2 17L2 18L1 18L1 16L0 16L0 18L1 18L1 19L0 19L0 20L3 20L3 19L2 19L2 18L3 18L3 17L5 17L5 18L4 18L4 19L5 19L5 21L7 21L7 20L10 20L10 21L9 21L9 23L7 23L7 22L4 22L4 21L3 21L3 22L2 22L2 21L0 21L0 25L1 25L1 22L2 22L2 23L3 23L3 24L5 24L5 25L7 25L7 24L9 24L9 23L10 23L10 22L11 22L11 21L12 21L12 22L13 22L13 23L12 23L12 25L13 25L13 24L14 24L14 25L15 25L15 24L17 24L17 25L18 25L18 27L19 27L19 26L21 26L21 28L20 28L20 29L18 29L18 28L17 28L17 26L15 26L15 27L14 27L14 28L15 28L15 29L12 29L12 27L13 27L13 26L10 26L10 27L9 27L9 25L8 25L8 27L9 27L9 28L8 28L8 33L10 33L10 31L11 31L11 30L9 30L9 29L12 29L12 30L13 30L13 31L12 31L12 33L13 33L13 32L14 32L14 33L16 33L16 32L14 32L14 31L18 31L18 32L17 32L17 33L18 33L18 32L19 32L19 33L20 33L20 32L24 32L24 33L25 33L25 32L24 32L24 31L27 31L27 30L29 30L29 32L31 32L31 33L32 33L32 32L31 32L31 31L30 31L30 30L33 30L33 27L32 27L32 26L33 26L33 24L32 24L32 26L31 26L31 27L30 27L30 25L29 25L29 24L31 24L31 23L32 23L32 22L33 22L33 21L32 21L32 20L31 20L31 19L32 19L32 18L33 18L33 17L32 17L32 16L31 16L31 15L32 15L32 14L33 14L33 13L31 13L31 15L30 15L30 13L29 13L29 12L28 12L28 11L29 11L29 10L28 10L28 11L27 11L27 12L28 12L28 13L29 13L29 14L28 14L28 16L27 16L27 13L25 13L25 11L26 11L26 10L27 10L27 9L28 9L28 8L27 8L27 9L26 9L26 8L25 8L25 6L24 6L24 7L23 7L23 5L24 5L24 4L25 4L25 3L24 3L24 4L23 4L23 2L21 2L21 3L20 3L20 4L19 4L19 5L17 5L17 4L18 4L18 3L16 3L16 5L15 5L15 4L14 4L14 3L13 3L13 4L12 4L12 2L14 2L14 0L13 0L13 1L11 1L11 2L10 2L10 0ZM16 0L16 1L15 1L15 2L16 2L16 1L17 1L17 2L18 2L18 1L24 1L24 0ZM10 3L10 4L11 4L11 3ZM21 3L21 7L22 7L22 5L23 5L23 4L22 4L22 3ZM8 5L8 7L9 7L9 5ZM16 5L16 6L15 6L15 8L16 8L16 9L17 9L17 8L18 8L18 6L17 6L17 5ZM19 5L19 8L20 8L20 10L17 10L17 12L18 12L18 13L17 13L17 14L18 14L18 13L20 13L20 12L21 12L21 14L22 14L22 15L24 15L24 16L25 16L25 17L27 17L27 18L28 18L28 19L29 19L29 17L30 17L30 19L31 19L31 16L30 16L30 15L29 15L29 17L27 17L27 16L26 16L26 14L25 14L25 13L24 13L24 11L25 11L25 8L23 8L23 9L24 9L24 10L21 10L21 9L22 9L22 8L20 8L20 5ZM16 6L16 7L17 7L17 6ZM29 8L29 9L30 9L30 8ZM31 8L31 10L33 10L33 9L32 9L32 8ZM6 9L6 10L7 10L7 11L6 11L6 12L7 12L7 11L9 11L9 10L8 10L8 9ZM4 10L4 13L5 13L5 10ZM20 10L20 11L19 11L19 12L20 12L20 11L21 11L21 12L22 12L22 13L23 13L23 14L24 14L24 13L23 13L23 12L22 12L22 11L21 11L21 10ZM1 11L1 13L3 13L3 12L2 12L2 11ZM12 11L12 13L11 13L11 12L10 12L10 13L11 13L11 14L10 14L10 15L9 15L9 16L7 16L7 15L6 15L6 16L7 16L7 17L6 17L6 18L5 18L5 19L6 19L6 20L7 20L7 19L9 19L9 18L13 18L13 19L12 19L12 21L15 21L15 22L16 22L16 21L17 21L17 20L18 20L18 21L21 21L21 22L23 22L23 23L24 23L24 24L28 24L28 23L30 23L30 22L31 22L31 20L29 20L29 21L27 21L27 19L26 19L26 18L23 18L23 17L22 17L22 16L20 16L20 17L22 17L22 19L23 19L23 20L19 20L19 19L20 19L20 18L19 18L19 19L18 19L18 18L16 18L16 19L17 19L17 20L14 20L14 19L15 19L15 17L14 17L14 16L15 16L15 15L14 15L14 16L13 16L13 17L12 17L12 15L13 15L13 14L12 14L12 13L14 13L14 14L16 14L16 13L15 13L15 12L14 12L14 11ZM30 11L30 12L31 12L31 11ZM8 12L8 13L6 13L6 14L9 14L9 12ZM19 14L19 15L20 15L20 14ZM16 15L16 16L18 16L18 17L19 17L19 16L18 16L18 15ZM8 17L8 18L9 18L9 17ZM6 18L6 19L7 19L7 18ZM24 20L24 21L23 21L23 22L24 22L24 21L25 21L25 22L27 22L27 23L28 23L28 22L27 22L27 21L25 21L25 20ZM29 21L29 22L30 22L30 21ZM18 22L18 23L17 23L17 24L18 24L18 25L22 25L22 26L24 26L24 25L22 25L22 24L21 24L21 23L20 23L20 22ZM6 23L6 24L7 24L7 23ZM14 23L14 24L15 24L15 23ZM18 23L18 24L19 24L19 23ZM10 24L10 25L11 25L11 24ZM25 25L25 28L28 28L28 25ZM26 26L26 27L27 27L27 26ZM22 27L22 28L21 28L21 29L22 29L22 30L23 30L23 31L24 31L24 27ZM31 27L31 28L29 28L29 30L30 30L30 29L31 29L31 28L32 28L32 27ZM16 28L16 29L15 29L15 30L16 30L16 29L17 29L17 28ZM22 28L22 29L23 29L23 28ZM25 29L25 30L27 30L27 29ZM18 30L18 31L19 31L19 32L20 32L20 30ZM27 32L27 33L28 33L28 32ZM0 0L0 7L7 7L7 0ZM1 1L1 6L6 6L6 1ZM2 2L2 5L5 5L5 2ZM26 0L26 7L33 7L33 0ZM27 1L27 6L32 6L32 1ZM28 2L28 5L31 5L31 2ZM0 26L0 33L7 33L7 26ZM1 27L1 32L6 32L6 27ZM2 28L2 31L5 31L5 28Z" fill="#000000"/></g></g></svg>
