<?xml version="1.0" encoding="UTF-8"?>
<svg xmlns="http://www.w3.org/2000/svg" version="1.1" width="300" height="300" viewBox="0 0 300 300"><rect x="0" y="0" width="300" height="300" fill="#ffffff"/><g transform="scale(9.091)"><g transform="translate(0,0)"><path fill-rule="evenodd" d="M8 0L8 1L9 1L9 2L8 2L8 5L9 5L9 4L11 4L11 5L10 5L10 10L9 10L9 8L8 8L8 10L9 10L9 12L6 12L6 11L7 11L7 10L6 10L6 11L5 11L5 9L4 9L4 8L0 8L0 12L1 12L1 10L3 10L3 11L4 11L4 12L5 12L5 13L7 13L7 14L5 14L5 17L3 17L3 19L4 19L4 18L5 18L5 19L7 19L7 20L3 20L3 23L1 23L1 24L0 24L0 25L1 25L1 24L2 24L2 25L3 25L3 24L6 24L6 25L7 25L7 24L8 24L8 26L9 26L9 28L11 28L11 29L12 29L12 30L10 30L10 29L8 29L8 33L14 33L14 32L13 32L13 30L14 30L14 29L12 29L12 28L14 28L14 27L15 27L15 31L16 31L16 32L15 32L15 33L22 33L22 32L23 32L23 29L25 29L25 30L24 30L24 32L25 32L25 33L26 33L26 32L28 32L28 33L29 33L29 32L28 32L28 31L27 31L27 30L26 30L26 29L31 29L31 31L32 31L32 32L33 32L33 31L32 31L32 29L33 29L33 28L32 28L32 27L31 27L31 25L30 25L30 26L29 26L29 24L30 24L30 21L31 21L31 24L32 24L32 25L33 25L33 24L32 24L32 23L33 23L33 21L31 21L31 20L30 20L30 21L29 21L29 24L28 24L28 23L27 23L27 21L26 21L26 20L27 20L27 19L28 19L28 20L29 20L29 19L30 19L30 18L31 18L31 19L32 19L32 20L33 20L33 19L32 19L32 18L33 18L33 16L31 16L31 14L32 14L32 13L30 13L30 14L29 14L29 15L28 15L28 13L29 13L29 11L31 11L31 12L32 12L32 11L33 11L33 8L32 8L32 9L31 9L31 8L28 8L28 9L31 9L31 10L27 10L27 9L26 9L26 8L25 8L25 6L24 6L24 7L23 7L23 5L20 5L20 4L21 4L21 3L20 3L20 4L19 4L19 5L17 5L17 4L18 4L18 3L19 3L19 1L21 1L21 2L22 2L22 0L17 0L17 1L16 1L16 2L17 2L17 1L18 1L18 3L17 3L17 4L16 4L16 3L15 3L15 0L14 0L14 2L13 2L13 0L12 0L12 1L11 1L11 0L10 0L10 1L9 1L9 0ZM23 0L23 2L24 2L24 5L25 5L25 1L24 1L24 0ZM11 2L11 4L12 4L12 3L13 3L13 2ZM22 3L22 4L23 4L23 3ZM14 4L14 5L12 5L12 6L11 6L11 8L12 8L12 6L13 6L13 11L11 11L11 13L9 13L9 14L8 14L8 15L6 15L6 16L10 16L10 17L9 17L9 18L11 18L11 19L12 19L12 20L11 20L11 21L9 21L9 20L10 20L10 19L8 19L8 18L7 18L7 17L6 17L6 18L7 18L7 19L8 19L8 21L9 21L9 22L11 22L11 23L13 23L13 22L14 22L14 24L12 24L12 26L10 26L10 27L11 27L11 28L12 28L12 26L13 26L13 27L14 27L14 26L13 26L13 25L15 25L15 24L16 24L16 25L17 25L17 24L18 24L18 26L15 26L15 27L17 27L17 28L16 28L16 29L17 29L17 30L16 30L16 31L19 31L19 32L20 32L20 31L21 31L21 32L22 32L22 31L21 31L21 30L20 30L20 28L21 28L21 27L19 27L19 29L18 29L18 26L19 26L19 25L20 25L20 26L22 26L22 24L23 24L23 23L22 23L22 22L23 22L23 21L24 21L24 22L25 22L25 23L26 23L26 24L27 24L27 23L26 23L26 22L25 22L25 20L26 20L26 15L24 15L24 11L23 11L23 8L22 8L22 6L21 6L21 7L20 7L20 6L19 6L19 7L18 7L18 6L17 6L17 5L15 5L15 4ZM8 6L8 7L9 7L9 6ZM14 6L14 9L15 9L15 6ZM16 6L16 7L17 7L17 8L16 8L16 11L18 11L18 12L17 12L17 15L16 15L16 16L15 16L15 19L14 19L14 20L13 20L13 21L16 21L16 24L17 24L17 23L18 23L18 24L19 24L19 22L20 22L20 23L21 23L21 22L22 22L22 20L21 20L21 18L22 18L22 19L23 19L23 20L25 20L25 19L23 19L23 18L24 18L24 17L23 17L23 16L24 16L24 15L22 15L22 13L23 13L23 12L22 12L22 13L21 13L21 14L20 14L20 12L21 12L21 11L19 11L19 10L21 10L21 9L22 9L22 8L21 8L21 9L20 9L20 8L18 8L18 7L17 7L17 6ZM6 8L6 9L7 9L7 8ZM24 8L24 10L25 10L25 8ZM11 9L11 10L12 10L12 9ZM17 9L17 10L18 10L18 9ZM14 10L14 11L13 11L13 12L12 12L12 13L11 13L11 15L10 15L10 14L9 14L9 15L10 15L10 16L12 16L12 17L14 17L14 16L12 16L12 14L14 14L14 15L15 15L15 14L16 14L16 13L15 13L15 10ZM31 10L31 11L32 11L32 10ZM26 11L26 12L25 12L25 13L26 13L26 14L27 14L27 13L28 13L28 11ZM2 12L2 13L3 13L3 12ZM18 12L18 13L19 13L19 12ZM0 14L0 15L1 15L1 16L0 16L0 17L2 17L2 16L4 16L4 14L3 14L3 15L2 15L2 14ZM18 14L18 15L17 15L17 16L16 16L16 19L17 19L17 17L18 17L18 19L19 19L19 20L18 20L18 21L19 21L19 20L20 20L20 21L21 21L21 20L20 20L20 18L21 18L21 17L18 17L18 15L19 15L19 16L20 16L20 15L19 15L19 14ZM27 15L27 17L28 17L28 15ZM29 15L29 16L30 16L30 15ZM31 17L31 18L32 18L32 17ZM28 18L28 19L29 19L29 18ZM1 19L1 20L0 20L0 22L1 22L1 21L2 21L2 19ZM4 21L4 23L6 23L6 24L7 24L7 23L8 23L8 24L9 24L9 23L8 23L8 22L7 22L7 21ZM6 22L6 23L7 23L7 22ZM10 24L10 25L11 25L11 24ZM20 24L20 25L21 25L21 24ZM25 25L25 28L28 28L28 25ZM26 26L26 27L27 27L27 26ZM23 27L23 28L22 28L22 29L23 29L23 28L24 28L24 27ZM31 28L31 29L32 29L32 28ZM29 30L29 31L30 31L30 30ZM10 31L10 32L12 32L12 31ZM25 31L25 32L26 32L26 31ZM30 32L30 33L31 33L31 32ZM0 0L0 7L7 7L7 0ZM1 1L1 6L6 6L6 1ZM2 2L2 5L5 5L5 2ZM26 0L26 7L33 7L33 0ZM27 1L27 6L32 6L32 1ZM28 2L28 5L31 5L31 2ZM0 26L0 33L7 33L7 26ZM1 27L1 32L6 32L6 27ZM2 28L2 31L5 31L5 28Z" fill="#000000"/></g></g></svg>
