<?xml version="1.0" encoding="UTF-8"?>
<svg xmlns="http://www.w3.org/2000/svg" version="1.1" width="300" height="300" viewBox="0 0 300 300"><rect x="0" y="0" width="300" height="300" fill="#ffffff"/><g transform="scale(9.091)"><g transform="translate(0,0)"><path fill-rule="evenodd" d="M8 0L8 1L10 1L10 0ZM13 0L13 2L11 2L11 4L10 4L10 3L9 3L9 2L8 2L8 5L9 5L9 6L8 6L8 7L9 7L9 8L8 8L8 10L10 10L10 9L9 9L9 8L10 8L10 7L11 7L11 8L12 8L12 7L13 7L13 6L14 6L14 8L13 8L13 9L14 9L14 10L13 10L13 11L11 11L11 13L10 13L10 12L9 12L9 11L7 11L7 10L6 10L6 11L3 11L3 12L4 12L4 13L5 13L5 14L4 14L4 15L3 15L3 14L2 14L2 16L1 16L1 13L0 13L0 16L1 16L1 18L0 18L0 19L1 19L1 20L2 20L2 21L0 21L0 22L4 22L4 20L5 20L5 19L8 19L8 20L6 20L6 21L5 21L5 24L4 24L4 23L3 23L3 24L2 24L2 23L1 23L1 24L0 24L0 25L1 25L1 24L2 24L2 25L3 25L3 24L4 24L4 25L7 25L7 24L8 24L8 23L10 23L10 24L9 24L9 25L8 25L8 26L9 26L9 27L11 27L11 28L9 28L9 29L8 29L8 33L9 33L9 29L11 29L11 28L12 28L12 29L13 29L13 28L12 28L12 26L13 26L13 27L14 27L14 30L13 30L13 33L19 33L19 32L20 32L20 31L19 31L19 32L18 32L18 31L17 31L17 30L16 30L16 29L17 29L17 28L16 28L16 29L15 29L15 27L14 27L14 26L16 26L16 27L18 27L18 26L19 26L19 28L18 28L18 30L19 30L19 29L20 29L20 30L21 30L21 31L22 31L22 32L21 32L21 33L22 33L22 32L23 32L23 29L25 29L25 30L24 30L24 32L25 32L25 33L26 33L26 32L28 32L28 33L29 33L29 32L28 32L28 31L27 31L27 30L26 30L26 29L32 29L32 30L33 30L33 29L32 29L32 28L33 28L33 27L32 27L32 28L31 28L31 25L30 25L30 26L29 26L29 24L30 24L30 21L31 21L31 24L32 24L32 25L33 25L33 24L32 24L32 23L33 23L33 21L31 21L31 20L30 20L30 21L29 21L29 24L28 24L28 23L27 23L27 21L26 21L26 20L27 20L27 19L28 19L28 20L29 20L29 19L30 19L30 18L31 18L31 19L32 19L32 20L33 20L33 19L32 19L32 18L33 18L33 16L31 16L31 14L32 14L32 13L30 13L30 14L29 14L29 15L28 15L28 13L29 13L29 11L31 11L31 12L32 12L32 11L33 11L33 8L32 8L32 9L31 9L31 8L28 8L28 9L31 9L31 10L27 10L27 9L26 9L26 8L25 8L25 6L24 6L24 9L23 9L23 10L21 10L21 9L22 9L22 8L21 8L21 9L20 9L20 8L19 8L19 6L20 6L20 7L21 7L21 5L20 5L20 4L21 4L21 3L20 3L20 4L19 4L19 6L18 6L18 7L17 7L17 5L18 5L18 3L19 3L19 2L18 2L18 1L20 1L20 2L22 2L22 5L23 5L23 2L24 2L24 5L25 5L25 1L24 1L24 0L23 0L23 1L21 1L21 0L16 0L16 2L18 2L18 3L14 3L14 2L15 2L15 0ZM12 3L12 5L10 5L10 6L9 6L9 7L10 7L10 6L11 6L11 7L12 7L12 5L14 5L14 6L15 6L15 7L16 7L16 5L15 5L15 4L14 4L14 3ZM22 6L22 7L23 7L23 6ZM0 8L0 9L2 9L2 10L1 10L1 11L2 11L2 10L5 10L5 9L4 9L4 8ZM6 8L6 9L7 9L7 8ZM15 8L15 11L14 11L14 12L12 12L12 14L10 14L10 13L9 13L9 14L8 14L8 15L6 15L6 14L7 14L7 13L6 13L6 14L5 14L5 18L8 18L8 19L9 19L9 20L8 20L8 22L7 22L7 21L6 21L6 22L7 22L7 23L6 23L6 24L7 24L7 23L8 23L8 22L9 22L9 20L10 20L10 19L11 19L11 20L12 20L12 19L11 19L11 18L12 18L12 17L14 17L14 18L13 18L13 20L14 20L14 21L15 21L15 22L14 22L14 23L11 23L11 22L12 22L12 21L10 21L10 23L11 23L11 25L12 25L12 24L13 24L13 26L14 26L14 24L15 24L15 25L16 25L16 26L17 26L17 24L18 24L18 25L19 25L19 24L18 24L18 23L21 23L21 24L20 24L20 25L21 25L21 27L23 27L23 28L22 28L22 29L23 29L23 28L24 28L24 27L23 27L23 25L22 25L22 24L23 24L23 23L22 23L22 22L18 22L18 23L16 23L16 22L17 22L17 19L18 19L18 20L20 20L20 21L21 21L21 20L22 20L22 21L24 21L24 22L25 22L25 23L26 23L26 24L27 24L27 23L26 23L26 22L25 22L25 20L26 20L26 15L24 15L24 11L20 11L20 10L19 10L19 12L18 12L18 11L17 11L17 10L16 10L16 8ZM18 8L18 9L19 9L19 8ZM24 9L24 10L25 10L25 9ZM31 10L31 11L32 11L32 10ZM6 11L6 12L7 12L7 11ZM16 11L16 12L15 12L15 13L13 13L13 14L12 14L12 16L9 16L9 17L10 17L10 18L9 18L9 19L10 19L10 18L11 18L11 17L12 17L12 16L14 16L14 15L15 15L15 13L16 13L16 17L17 17L17 18L18 18L18 19L19 19L19 16L18 16L18 17L17 17L17 14L18 14L18 15L20 15L20 18L21 18L21 19L22 19L22 20L25 20L25 19L22 19L22 18L21 18L21 17L23 17L23 18L24 18L24 17L23 17L23 16L24 16L24 15L21 15L21 14L22 14L22 13L21 13L21 14L20 14L20 13L19 13L19 14L18 14L18 12L17 12L17 11ZM26 11L26 12L25 12L25 13L26 13L26 14L27 14L27 13L28 13L28 11ZM13 14L13 15L14 15L14 14ZM27 15L27 17L28 17L28 15ZM29 15L29 16L30 16L30 15ZM2 16L2 17L3 17L3 16ZM6 16L6 17L8 17L8 16ZM31 17L31 18L32 18L32 17ZM3 18L3 19L2 19L2 20L3 20L3 19L4 19L4 18ZM15 18L15 20L16 20L16 18ZM28 18L28 19L29 19L29 18ZM9 25L9 26L10 26L10 25ZM25 25L25 28L28 28L28 25ZM26 26L26 27L27 27L27 26ZM10 30L10 33L11 33L11 32L12 32L12 31L11 31L11 30ZM29 30L29 31L30 31L30 30ZM15 31L15 32L17 32L17 31ZM25 31L25 32L26 32L26 31ZM32 31L32 32L33 32L33 31ZM30 32L30 33L31 33L31 32ZM0 0L0 7L7 7L7 0ZM1 1L1 6L6 6L6 1ZM2 2L2 5L5 5L5 2ZM26 0L26 7L33 7L33 0ZM27 1L27 6L32 6L32 1ZM28 2L28 5L31 5L31 2ZM0 26L0 33L7 33L7 26ZM1 27L1 32L6 32L6 27ZM2 28L2 31L5 31L5 28Z" fill="#000000"/></g></g></svg>
