<?xml version="1.0" encoding="UTF-8"?>
<svg xmlns="http://www.w3.org/2000/svg" version="1.1" width="300" height="300" viewBox="0 0 300 300"><rect x="0" y="0" width="300" height="300" fill="#ffffff"/><g transform="scale(10.345)"><g transform="translate(0,0)"><path fill-rule="evenodd" d="M9 0L9 3L8 3L8 5L9 5L9 6L8 6L8 7L9 7L9 9L10 9L10 10L8 10L8 8L5 8L5 9L4 9L4 10L3 10L3 9L2 9L2 8L0 8L0 10L1 10L1 11L0 11L0 12L1 12L1 11L2 11L2 15L1 15L1 17L0 17L0 21L1 21L1 19L2 19L2 21L3 21L3 20L4 20L4 21L5 21L5 19L7 19L7 18L8 18L8 17L9 17L9 15L11 15L11 16L12 16L12 15L13 15L13 14L12 14L12 15L11 15L11 12L13 12L13 10L15 10L15 11L14 11L14 12L15 12L15 11L16 11L16 13L15 13L15 15L18 15L18 16L17 16L17 17L16 17L16 16L13 16L13 17L15 17L15 19L14 19L14 20L13 20L13 18L12 18L12 17L10 17L10 18L9 18L9 19L8 19L8 24L9 24L9 27L8 27L8 29L9 29L9 27L10 27L10 26L12 26L12 24L11 24L11 22L10 22L10 18L11 18L11 21L12 21L12 20L13 20L13 22L12 22L12 23L14 23L14 25L13 25L13 26L14 26L14 27L15 27L15 28L13 28L13 27L12 27L12 29L15 29L15 28L16 28L16 27L17 27L17 26L16 26L16 25L17 25L17 23L18 23L18 24L19 24L19 25L20 25L20 27L18 27L18 28L17 28L17 29L18 29L18 28L20 28L20 27L21 27L21 25L23 25L23 26L22 26L22 28L23 28L23 26L24 26L24 27L26 27L26 28L24 28L24 29L27 29L27 27L28 27L28 28L29 28L29 27L28 27L28 26L29 26L29 23L27 23L27 22L26 22L26 21L29 21L29 20L26 20L26 21L25 21L25 19L22 19L22 20L19 20L19 21L18 21L18 20L17 20L17 19L18 19L18 18L19 18L19 19L21 19L21 18L20 18L20 17L22 17L22 18L23 18L23 17L22 17L22 16L24 16L24 15L22 15L22 14L23 14L23 10L22 10L22 12L21 12L21 15L20 15L20 17L18 17L18 16L19 16L19 15L18 15L18 14L16 14L16 13L17 13L17 10L16 10L16 9L18 9L18 10L21 10L21 8L20 8L20 9L18 9L18 8L16 8L16 7L17 7L17 6L18 6L18 7L19 7L19 6L18 6L18 5L20 5L20 4L21 4L21 1L20 1L20 2L19 2L19 3L16 3L16 2L17 2L17 1L19 1L19 0L17 0L17 1L16 1L16 2L15 2L15 0L14 0L14 1L13 1L13 0L12 0L12 2L11 2L11 3L10 3L10 0ZM13 2L13 3L14 3L14 4L12 4L12 3L11 3L11 4L10 4L10 3L9 3L9 5L11 5L11 7L10 7L10 6L9 6L9 7L10 7L10 8L11 8L11 9L12 9L12 10L10 10L10 11L8 11L8 10L7 10L7 9L5 9L5 10L4 10L4 12L3 12L3 13L4 13L4 15L2 15L2 17L4 17L4 18L2 18L2 19L4 19L4 18L5 18L5 17L6 17L6 18L7 18L7 17L6 17L6 16L8 16L8 15L9 15L9 14L10 14L10 13L9 13L9 12L10 12L10 11L12 11L12 10L13 10L13 8L15 8L15 7L16 7L16 3L15 3L15 2ZM11 4L11 5L12 5L12 7L13 7L13 5L12 5L12 4ZM14 4L14 7L15 7L15 4ZM20 6L20 7L21 7L21 6ZM24 8L24 12L25 12L25 9L26 9L26 10L28 10L28 9L26 9L26 8ZM1 9L1 10L2 10L2 9ZM5 10L5 11L7 11L7 10ZM4 12L4 13L7 13L7 14L5 14L5 16L6 16L6 15L7 15L7 14L8 14L8 13L7 13L7 12ZM19 12L19 14L20 14L20 12ZM28 12L28 13L26 13L26 17L24 17L24 18L28 18L28 19L29 19L29 17L27 17L27 14L29 14L29 12ZM24 13L24 14L25 14L25 13ZM21 15L21 16L22 16L22 15ZM28 15L28 16L29 16L29 15ZM17 17L17 18L18 18L18 17ZM15 19L15 20L16 20L16 22L17 22L17 20L16 20L16 19ZM6 20L6 21L7 21L7 20ZM21 21L21 24L24 24L24 21ZM18 22L18 23L19 23L19 24L20 24L20 23L19 23L19 22ZM22 22L22 23L23 23L23 22ZM15 23L15 25L14 25L14 26L15 26L15 25L16 25L16 23ZM25 23L25 25L24 25L24 26L26 26L26 27L27 27L27 23ZM10 24L10 25L11 25L11 24ZM10 28L10 29L11 29L11 28ZM0 0L0 7L7 7L7 0ZM1 1L1 6L6 6L6 1ZM2 2L2 5L5 5L5 2ZM22 0L22 7L29 7L29 0ZM23 1L23 6L28 6L28 1ZM24 2L24 5L27 5L27 2ZM0 22L0 29L7 29L7 22ZM1 23L1 28L6 28L6 23ZM2 24L2 27L5 27L5 24Z" fill="#000000"/></g></g></svg>
