<?xml version="1.0" encoding="UTF-8"?>
<svg xmlns="http://www.w3.org/2000/svg" version="1.1" width="300" height="300" viewBox="0 0 300 300"><rect x="0" y="0" width="300" height="300" fill="#ffffff"/><g transform="scale(10.345)"><g transform="translate(0,0)"><path fill-rule="evenodd" d="M9 0L9 1L8 1L8 2L9 2L9 3L8 3L8 4L10 4L10 7L11 7L11 4L12 4L12 5L13 5L13 6L12 6L12 9L13 9L13 10L11 10L11 11L10 11L10 9L11 9L11 8L6 8L6 9L5 9L5 8L0 8L0 11L1 11L1 12L0 12L0 13L1 13L1 12L2 12L2 11L1 11L1 9L3 9L3 10L4 10L4 13L5 13L5 14L4 14L4 15L3 15L3 14L0 14L0 15L1 15L1 16L3 16L3 17L4 17L4 15L7 15L7 16L5 16L5 18L4 18L4 19L2 19L2 20L4 20L4 21L8 21L8 23L9 23L9 24L8 24L8 29L10 29L10 28L11 28L11 29L13 29L13 28L12 28L12 27L13 27L13 26L9 26L9 24L10 24L10 25L11 25L11 24L10 24L10 23L9 23L9 21L12 21L12 22L14 22L14 21L17 21L17 22L15 22L15 24L13 24L13 23L12 23L12 25L14 25L14 28L15 28L15 27L16 27L16 28L17 28L17 29L18 29L18 28L21 28L21 29L22 29L22 28L21 28L21 25L25 25L25 26L22 26L22 27L23 27L23 29L24 29L24 27L25 27L25 28L26 28L26 29L27 29L27 28L28 28L28 26L29 26L29 23L28 23L28 24L26 24L26 23L27 23L27 22L29 22L29 20L28 20L28 19L27 19L27 16L28 16L28 15L27 15L27 12L28 12L28 11L27 11L27 12L25 12L25 13L21 13L21 12L22 12L22 11L23 11L23 12L24 12L24 11L25 11L25 9L26 9L26 8L25 8L25 9L24 9L24 8L23 8L23 9L22 9L22 8L20 8L20 9L18 9L18 8L17 8L17 6L18 6L18 7L19 7L19 6L18 6L18 5L20 5L20 3L21 3L21 0L18 0L18 1L20 1L20 2L19 2L19 3L16 3L16 2L17 2L17 0L16 0L16 1L15 1L15 0L13 0L13 1L11 1L11 2L10 2L10 0ZM13 1L13 2L12 2L12 4L13 4L13 3L14 3L14 2L15 2L15 1ZM10 3L10 4L11 4L11 3ZM15 4L15 5L14 5L14 6L13 6L13 8L15 8L15 10L14 10L14 11L12 11L12 13L11 13L11 12L10 12L10 13L11 13L11 14L10 14L10 15L9 15L9 17L8 17L8 16L7 16L7 17L6 17L6 18L5 18L5 19L4 19L4 20L7 20L7 19L8 19L8 18L9 18L9 20L10 20L10 19L11 19L11 18L13 18L13 19L12 19L12 21L13 21L13 20L14 20L14 19L15 19L15 18L17 18L17 19L16 19L16 20L18 20L18 21L19 21L19 20L22 20L22 19L23 19L23 20L24 20L24 19L25 19L25 21L26 21L26 20L27 20L27 19L25 19L25 18L24 18L24 19L23 19L23 18L22 18L22 17L26 17L26 16L27 16L27 15L26 15L26 13L25 13L25 16L24 16L24 15L23 15L23 16L22 16L22 14L21 14L21 13L20 13L20 12L21 12L21 9L20 9L20 10L18 10L18 9L17 9L17 8L15 8L15 7L16 7L16 6L15 6L15 5L17 5L17 4ZM8 5L8 7L9 7L9 5ZM14 6L14 7L15 7L15 6ZM20 6L20 7L21 7L21 6ZM27 8L27 9L28 9L28 10L29 10L29 9L28 9L28 8ZM6 9L6 10L7 10L7 11L5 11L5 13L6 13L6 14L7 14L7 15L8 15L8 14L9 14L9 11L8 11L8 10L7 10L7 9ZM15 10L15 11L17 11L17 10ZM23 10L23 11L24 11L24 10ZM6 12L6 13L7 13L7 14L8 14L8 13L7 13L7 12ZM13 12L13 13L12 13L12 14L14 14L14 13L18 13L18 12ZM19 13L19 14L20 14L20 13ZM28 13L28 14L29 14L29 13ZM15 14L15 15L14 15L14 17L13 17L13 15L12 15L12 17L13 17L13 18L14 18L14 17L18 17L18 18L20 18L20 17L21 17L21 16L20 16L20 17L18 17L18 16L19 16L19 15L18 15L18 14L17 14L17 15L18 15L18 16L15 16L15 15L16 15L16 14ZM10 16L10 17L9 17L9 18L10 18L10 17L11 17L11 16ZM0 17L0 21L1 21L1 18L2 18L2 17ZM28 17L28 18L29 18L29 17ZM6 18L6 19L7 19L7 18ZM21 18L21 19L22 19L22 18ZM21 21L21 24L24 24L24 21ZM18 22L18 23L17 23L17 24L15 24L15 26L17 26L17 28L18 28L18 27L20 27L20 23L19 23L19 22ZM22 22L22 23L23 23L23 22ZM18 23L18 24L17 24L17 25L18 25L18 24L19 24L19 23ZM25 24L25 25L26 25L26 24ZM25 26L25 27L26 27L26 28L27 28L27 26ZM9 27L9 28L10 28L10 27ZM0 0L0 7L7 7L7 0ZM1 1L1 6L6 6L6 1ZM2 2L2 5L5 5L5 2ZM22 0L22 7L29 7L29 0ZM23 1L23 6L28 6L28 1ZM24 2L24 5L27 5L27 2ZM0 22L0 29L7 29L7 22ZM1 23L1 28L6 28L6 23ZM2 24L2 27L5 27L5 24Z" fill="#000000"/></g></g></svg>
