<?xml version="1.0" encoding="UTF-8"?>
<svg xmlns="http://www.w3.org/2000/svg" version="1.1" width="300" height="300" viewBox="0 0 300 300"><rect x="0" y="0" width="300" height="300" fill="#ffffff"/><g transform="scale(10.345)"><g transform="translate(0,0)"><path fill-rule="evenodd" d="M9 0L9 1L8 1L8 2L9 2L9 3L8 3L8 4L10 4L10 7L11 7L11 4L12 4L12 8L13 8L13 9L11 9L11 8L6 8L6 9L7 9L7 10L6 10L6 11L3 11L3 12L2 12L2 13L1 13L1 12L0 12L0 14L1 14L1 15L0 15L0 21L1 21L1 17L2 17L2 18L3 18L3 21L4 21L4 20L5 20L5 19L7 19L7 18L6 18L6 17L7 17L7 16L8 16L8 17L10 17L10 19L9 19L9 18L8 18L8 19L9 19L9 20L6 20L6 21L8 21L8 23L9 23L9 24L8 24L8 29L9 29L9 28L10 28L10 27L9 27L9 26L12 26L12 25L9 25L9 24L10 24L10 23L11 23L11 22L10 22L10 20L11 20L11 21L14 21L14 22L13 22L13 23L12 23L12 24L13 24L13 25L14 25L14 26L13 26L13 27L12 27L12 28L11 28L11 29L13 29L13 27L14 27L14 26L15 26L15 27L16 27L16 28L17 28L17 29L18 29L18 28L22 28L22 27L23 27L23 26L24 26L24 27L26 27L26 26L24 26L24 25L28 25L28 26L27 26L27 28L24 28L24 29L27 29L27 28L28 28L28 26L29 26L29 25L28 25L28 24L25 24L25 23L27 23L27 22L29 22L29 20L28 20L28 19L27 19L27 16L28 16L28 15L27 15L27 12L28 12L28 11L27 11L27 12L25 12L25 9L26 9L26 8L25 8L25 9L24 9L24 8L23 8L23 9L22 9L22 8L20 8L20 9L18 9L18 8L16 8L16 7L17 7L17 6L18 6L18 7L19 7L19 6L18 6L18 5L20 5L20 3L21 3L21 0L18 0L18 1L20 1L20 2L19 2L19 3L15 3L15 2L16 2L16 1L17 1L17 0L16 0L16 1L15 1L15 0L14 0L14 3L12 3L12 2L13 2L13 1L11 1L11 2L10 2L10 0ZM10 3L10 4L11 4L11 3ZM13 4L13 8L14 8L14 5L16 5L16 6L15 6L15 7L16 7L16 6L17 6L17 5L16 5L16 4ZM8 5L8 7L9 7L9 5ZM20 6L20 7L21 7L21 6ZM0 8L0 9L1 9L1 11L2 11L2 10L5 10L5 8ZM27 8L27 9L28 9L28 10L29 10L29 9L28 9L28 8ZM8 9L8 10L7 10L7 11L6 11L6 12L5 12L5 13L3 13L3 14L4 14L4 15L5 15L5 16L3 16L3 15L1 15L1 16L2 16L2 17L4 17L4 18L5 18L5 16L7 16L7 15L8 15L8 16L11 16L11 20L12 20L12 18L13 18L13 20L14 20L14 18L16 18L16 19L17 19L17 20L16 20L16 21L15 21L15 22L16 22L16 21L17 21L17 20L18 20L18 21L19 21L19 20L21 20L21 19L22 19L22 18L21 18L21 17L20 17L20 16L21 16L21 14L22 14L22 17L23 17L23 18L24 18L24 19L25 19L25 21L26 21L26 20L27 20L27 19L25 19L25 18L24 18L24 17L26 17L26 16L27 16L27 15L26 15L26 13L25 13L25 12L24 12L24 9L23 9L23 12L22 12L22 13L20 13L20 12L21 12L21 11L22 11L22 10L21 10L21 9L20 9L20 10L18 10L18 9L17 9L17 12L15 12L15 10L16 10L16 9L13 9L13 10L14 10L14 11L13 11L13 12L15 12L15 13L12 13L12 12L10 12L10 13L9 13L9 14L7 14L7 13L8 13L8 12L9 12L9 11L8 11L8 10L9 10L9 9ZM10 9L10 11L12 11L12 10L11 10L11 9ZM6 12L6 13L5 13L5 14L6 14L6 15L7 15L7 14L6 14L6 13L7 13L7 12ZM17 12L17 13L18 13L18 12ZM23 12L23 13L22 13L22 14L23 14L23 13L24 13L24 14L25 14L25 13L24 13L24 12ZM10 13L10 15L11 15L11 16L13 16L13 18L14 18L14 16L15 16L15 17L16 17L16 18L17 18L17 17L18 17L18 18L20 18L20 17L18 17L18 16L19 16L19 15L18 15L18 14L15 14L15 15L14 15L14 16L13 16L13 15L11 15L11 13ZM19 13L19 14L20 14L20 13ZM28 13L28 14L29 14L29 13ZM17 15L17 16L16 16L16 17L17 17L17 16L18 16L18 15ZM23 15L23 16L24 16L24 15ZM28 17L28 18L29 18L29 17ZM21 21L21 24L24 24L24 21ZM9 22L9 23L10 23L10 22ZM18 22L18 23L17 23L17 24L14 24L14 23L13 23L13 24L14 24L14 25L15 25L15 26L17 26L17 28L18 28L18 27L20 27L20 23L19 23L19 22ZM22 22L22 23L23 23L23 22ZM18 23L18 24L17 24L17 25L18 25L18 24L19 24L19 23ZM22 25L22 26L21 26L21 27L22 27L22 26L23 26L23 25ZM14 28L14 29L15 29L15 28ZM0 0L0 7L7 7L7 0ZM1 1L1 6L6 6L6 1ZM2 2L2 5L5 5L5 2ZM22 0L22 7L29 7L29 0ZM23 1L23 6L28 6L28 1ZM24 2L24 5L27 5L27 2ZM0 22L0 29L7 29L7 22ZM1 23L1 28L6 28L6 23ZM2 24L2 27L5 27L5 24Z" fill="#000000"/></g></g></svg>
