<?xml version="1.0" encoding="UTF-8"?>
<svg xmlns="http://www.w3.org/2000/svg" version="1.1" width="300" height="300" viewBox="0 0 300 300"><rect x="0" y="0" width="300" height="300" fill="#ffffff"/><g transform="scale(10.345)"><g transform="translate(0,0)"><path fill-rule="evenodd" d="M9 0L9 1L8 1L8 2L9 2L9 3L8 3L8 4L10 4L10 7L11 7L11 8L6 8L6 9L9 9L9 13L8 13L8 11L7 11L7 10L6 10L6 11L4 11L4 10L5 10L5 8L0 8L0 9L1 9L1 10L2 10L2 9L4 9L4 10L3 10L3 11L2 11L2 12L1 12L1 11L0 11L0 13L1 13L1 14L3 14L3 15L2 15L2 16L1 16L1 17L0 17L0 21L1 21L1 17L7 17L7 18L6 18L6 19L7 19L7 20L5 20L5 19L4 19L4 18L2 18L2 19L3 19L3 20L2 20L2 21L3 21L3 20L5 20L5 21L8 21L8 23L9 23L9 21L8 21L8 20L11 20L11 21L10 21L10 22L12 22L12 23L11 23L11 24L10 24L10 26L11 26L11 24L12 24L12 25L13 25L13 24L12 24L12 23L13 23L13 22L15 22L15 24L14 24L14 26L12 26L12 27L16 27L16 28L17 28L17 29L18 29L18 28L21 28L21 29L22 29L22 28L21 28L21 25L25 25L25 26L22 26L22 27L23 27L23 29L24 29L24 27L25 27L25 28L26 28L26 29L27 29L27 28L28 28L28 26L29 26L29 25L28 25L28 24L26 24L26 23L27 23L27 22L29 22L29 20L28 20L28 19L27 19L27 16L28 16L28 15L27 15L27 12L28 12L28 11L27 11L27 12L25 12L25 13L21 13L21 12L22 12L22 11L23 11L23 12L24 12L24 11L25 11L25 9L26 9L26 8L25 8L25 9L24 9L24 8L23 8L23 9L22 9L22 8L20 8L20 9L18 9L18 8L16 8L16 7L17 7L17 6L18 6L18 7L19 7L19 6L18 6L18 5L20 5L20 3L21 3L21 0L18 0L18 1L20 1L20 2L19 2L19 3L15 3L15 2L16 2L16 1L17 1L17 0L16 0L16 1L15 1L15 0L14 0L14 3L12 3L12 2L13 2L13 1L11 1L11 2L10 2L10 0ZM10 3L10 4L11 4L11 7L12 7L12 8L11 8L11 9L10 9L10 11L11 11L11 12L10 12L10 13L11 13L11 15L12 15L12 14L13 14L13 16L12 16L12 17L11 17L11 16L10 16L10 17L8 17L8 19L9 19L9 18L10 18L10 19L11 19L11 20L12 20L12 21L13 21L13 20L14 20L14 21L15 21L15 22L16 22L16 21L17 21L17 20L18 20L18 21L19 21L19 20L22 20L22 19L23 19L23 20L24 20L24 19L25 19L25 21L26 21L26 20L27 20L27 19L25 19L25 18L24 18L24 19L23 19L23 18L22 18L22 17L26 17L26 16L27 16L27 15L26 15L26 13L25 13L25 16L24 16L24 15L23 15L23 16L22 16L22 14L21 14L21 13L20 13L20 12L21 12L21 9L20 9L20 10L18 10L18 9L17 9L17 12L15 12L15 10L16 10L16 9L13 9L13 8L14 8L14 5L16 5L16 6L15 6L15 7L16 7L16 6L17 6L17 5L16 5L16 4L13 4L13 7L12 7L12 4L11 4L11 3ZM8 5L8 7L9 7L9 5ZM20 6L20 7L21 7L21 6ZM27 8L27 9L28 9L28 10L29 10L29 9L28 9L28 8ZM11 9L11 10L13 10L13 11L12 11L12 12L11 12L11 13L12 13L12 12L13 12L13 13L15 13L15 12L13 12L13 11L14 11L14 10L13 10L13 9ZM23 10L23 11L24 11L24 10ZM6 11L6 12L7 12L7 11ZM3 12L3 13L4 13L4 15L3 15L3 16L4 16L4 15L5 15L5 12ZM17 12L17 13L18 13L18 12ZM6 13L6 14L7 14L7 15L6 15L6 16L9 16L9 15L10 15L10 14L8 14L8 13ZM19 13L19 14L20 14L20 13ZM28 13L28 14L29 14L29 13ZM15 14L15 15L14 15L14 16L13 16L13 18L12 18L12 20L13 20L13 18L14 18L14 20L15 20L15 21L16 21L16 20L17 20L17 19L16 19L16 18L17 18L17 17L18 17L18 18L20 18L20 17L21 17L21 16L20 16L20 17L18 17L18 16L19 16L19 15L18 15L18 14ZM17 15L17 16L16 16L16 17L15 17L15 16L14 16L14 18L16 18L16 17L17 17L17 16L18 16L18 15ZM10 17L10 18L11 18L11 17ZM28 17L28 18L29 18L29 17ZM21 18L21 19L22 19L22 18ZM21 21L21 24L24 24L24 21ZM18 22L18 23L17 23L17 24L15 24L15 26L17 26L17 28L18 28L18 27L20 27L20 23L19 23L19 22ZM22 22L22 23L23 23L23 22ZM18 23L18 24L17 24L17 25L18 25L18 24L19 24L19 23ZM8 24L8 29L9 29L9 24ZM25 24L25 25L26 25L26 24ZM27 25L27 26L25 26L25 27L26 27L26 28L27 28L27 26L28 26L28 25ZM12 28L12 29L13 29L13 28ZM14 28L14 29L15 29L15 28ZM0 0L0 7L7 7L7 0ZM1 1L1 6L6 6L6 1ZM2 2L2 5L5 5L5 2ZM22 0L22 7L29 7L29 0ZM23 1L23 6L28 6L28 1ZM24 2L24 5L27 5L27 2ZM0 22L0 29L7 29L7 22ZM1 23L1 28L6 28L6 23ZM2 24L2 27L5 27L5 24Z" fill="#000000"/></g></g></svg>
