<?xml version="1.0" encoding="UTF-8"?>
<svg xmlns="http://www.w3.org/2000/svg" version="1.1" width="300" height="300" viewBox="0 0 300 300"><rect x="0" y="0" width="300" height="300" fill="#ffffff"/><g transform="scale(10.345)"><g transform="translate(0,0)"><path fill-rule="evenodd" d="M9 0L9 1L8 1L8 2L9 2L9 3L8 3L8 4L10 4L10 7L11 7L11 4L12 4L12 5L13 5L13 4L16 4L16 5L14 5L14 8L13 8L13 6L12 6L12 8L6 8L6 9L7 9L7 10L4 10L4 11L5 11L5 13L4 13L4 12L3 12L3 10L1 10L1 9L5 9L5 8L0 8L0 11L1 11L1 12L3 12L3 13L4 13L4 14L5 14L5 13L7 13L7 12L6 12L6 11L8 11L8 13L10 13L10 14L11 14L11 13L10 13L10 12L12 12L12 13L15 13L15 12L17 12L17 13L18 13L18 12L17 12L17 9L18 9L18 10L20 10L20 9L21 9L21 12L20 12L20 13L19 13L19 14L20 14L20 13L21 13L21 14L22 14L22 16L23 16L23 15L24 15L24 16L25 16L25 13L26 13L26 15L27 15L27 16L26 16L26 17L22 17L22 18L21 18L21 19L22 19L22 20L19 20L19 21L18 21L18 20L17 20L17 19L16 19L16 18L17 18L17 17L18 17L18 18L20 18L20 17L21 17L21 16L20 16L20 17L18 17L18 16L19 16L19 15L18 15L18 14L15 14L15 15L14 15L14 16L13 16L13 14L12 14L12 16L10 16L10 15L9 15L9 14L8 14L8 15L7 15L7 14L6 14L6 15L3 15L3 14L1 14L1 15L2 15L2 16L4 16L4 17L8 17L8 16L10 16L10 19L11 19L11 18L12 18L12 20L11 20L11 22L15 22L15 23L14 23L14 28L13 28L13 26L12 26L12 27L11 27L11 26L10 26L10 25L9 25L9 24L10 24L10 20L8 20L8 18L5 18L5 20L3 20L3 19L4 19L4 18L2 18L2 17L1 17L1 16L0 16L0 21L1 21L1 18L2 18L2 21L5 21L5 20L6 20L6 21L7 21L7 20L8 20L8 23L9 23L9 24L8 24L8 29L9 29L9 26L10 26L10 28L13 28L13 29L14 29L14 28L15 28L15 27L16 27L16 28L17 28L17 29L18 29L18 28L21 28L21 29L22 29L22 28L21 28L21 25L25 25L25 26L22 26L22 27L23 27L23 29L24 29L24 27L25 27L25 28L26 28L26 29L27 29L27 28L28 28L28 26L29 26L29 25L28 25L28 24L26 24L26 23L27 23L27 22L29 22L29 20L28 20L28 19L27 19L27 16L28 16L28 15L27 15L27 12L28 12L28 11L27 11L27 12L25 12L25 13L21 13L21 12L22 12L22 11L23 11L23 12L24 12L24 11L25 11L25 9L26 9L26 8L25 8L25 9L24 9L24 8L23 8L23 9L22 9L22 8L20 8L20 9L18 9L18 8L16 8L16 7L17 7L17 6L18 6L18 7L19 7L19 6L18 6L18 5L20 5L20 3L21 3L21 0L18 0L18 1L20 1L20 2L19 2L19 3L15 3L15 2L16 2L16 1L17 1L17 0L16 0L16 1L15 1L15 0L14 0L14 3L12 3L12 2L13 2L13 1L11 1L11 2L10 2L10 0ZM10 3L10 4L11 4L11 3ZM8 5L8 7L9 7L9 5ZM16 5L16 6L15 6L15 7L16 7L16 6L17 6L17 5ZM20 6L20 7L21 7L21 6ZM12 8L12 10L11 10L11 9L10 9L10 11L12 11L12 12L15 12L15 10L16 10L16 9L13 9L13 8ZM27 8L27 9L28 9L28 10L29 10L29 9L28 9L28 8ZM8 9L8 11L9 11L9 9ZM13 10L13 11L14 11L14 10ZM23 10L23 11L24 11L24 10ZM28 13L28 14L29 14L29 13ZM6 15L6 16L7 16L7 15ZM17 15L17 16L16 16L16 17L15 17L15 16L14 16L14 18L13 18L13 16L12 16L12 18L13 18L13 20L12 20L12 21L13 21L13 20L14 20L14 18L16 18L16 17L17 17L17 16L18 16L18 15ZM28 17L28 18L29 18L29 17ZM22 18L22 19L23 19L23 20L24 20L24 19L25 19L25 21L26 21L26 20L27 20L27 19L25 19L25 18L24 18L24 19L23 19L23 18ZM6 19L6 20L7 20L7 19ZM16 20L16 21L15 21L15 22L16 22L16 21L17 21L17 20ZM21 21L21 24L24 24L24 21ZM18 22L18 23L17 23L17 24L15 24L15 26L17 26L17 28L18 28L18 27L20 27L20 23L19 23L19 22ZM22 22L22 23L23 23L23 22ZM11 23L11 24L12 24L12 25L13 25L13 23ZM18 23L18 24L17 24L17 25L18 25L18 24L19 24L19 23ZM25 24L25 25L26 25L26 24ZM27 25L27 26L25 26L25 27L26 27L26 28L27 28L27 26L28 26L28 25ZM0 0L0 7L7 7L7 0ZM1 1L1 6L6 6L6 1ZM2 2L2 5L5 5L5 2ZM22 0L22 7L29 7L29 0ZM23 1L23 6L28 6L28 1ZM24 2L24 5L27 5L27 2ZM0 22L0 29L7 29L7 22ZM1 23L1 28L6 28L6 23ZM2 24L2 27L5 27L5 24Z" fill="#000000"/></g></g></svg>
