<?xml version="1.0" encoding="UTF-8"?>
<svg xmlns="http://www.w3.org/2000/svg" version="1.1" width="300" height="300" viewBox="0 0 300 300"><rect x="0" y="0" width="300" height="300" fill="#ffffff"/><g transform="scale(10.345)"><g transform="translate(0,0)"><path fill-rule="evenodd" d="M10 0L10 1L8 1L8 2L9 2L9 3L8 3L8 4L9 4L9 5L8 5L8 7L9 7L9 8L6 8L6 9L5 9L5 8L0 8L0 10L1 10L1 11L0 11L0 12L1 12L1 11L3 11L3 10L2 10L2 9L5 9L5 10L6 10L6 11L5 11L5 12L2 12L2 13L4 13L4 14L6 14L6 15L7 15L7 14L6 14L6 13L8 13L8 14L9 14L9 15L8 15L8 16L10 16L10 15L11 15L11 16L12 16L12 17L11 17L11 18L12 18L12 20L13 20L13 21L10 21L10 20L8 20L8 19L9 19L9 17L8 17L8 18L6 18L6 19L5 19L5 18L4 18L4 17L5 17L5 15L3 15L3 14L2 14L2 15L3 15L3 16L2 16L2 17L3 17L3 18L4 18L4 21L5 21L5 20L6 20L6 21L8 21L8 23L9 23L9 24L8 24L8 29L14 29L14 28L15 28L15 29L16 29L16 28L17 28L17 29L18 29L18 28L22 28L22 27L23 27L23 26L24 26L24 27L26 27L26 26L24 26L24 25L27 25L27 24L28 24L28 23L27 23L27 22L29 22L29 20L28 20L28 19L27 19L27 16L28 16L28 15L27 15L27 12L28 12L28 11L27 11L27 12L25 12L25 9L26 9L26 8L25 8L25 9L24 9L24 8L23 8L23 9L22 9L22 8L20 8L20 9L18 9L18 8L17 8L17 6L18 6L18 7L19 7L19 6L18 6L18 5L20 5L20 3L21 3L21 0L18 0L18 1L20 1L20 2L19 2L19 3L17 3L17 0L16 0L16 1L15 1L15 0L14 0L14 1L13 1L13 2L10 2L10 1L12 1L12 0ZM13 2L13 3L11 3L11 4L13 4L13 5L11 5L11 7L12 7L12 6L13 6L13 8L10 8L10 9L9 9L9 10L7 10L7 9L6 9L6 10L7 10L7 11L6 11L6 12L5 12L5 13L6 13L6 12L8 12L8 13L9 13L9 12L11 12L11 13L10 13L10 14L11 14L11 15L12 15L12 16L15 16L15 15L14 15L14 13L12 13L12 12L15 12L15 14L16 14L16 13L17 13L17 12L18 12L18 13L20 13L20 14L18 14L18 15L17 15L17 16L16 16L16 17L14 17L14 18L16 18L16 19L17 19L17 20L16 20L16 21L15 21L15 20L14 20L14 19L13 19L13 20L14 20L14 22L13 22L13 24L12 24L12 26L11 26L11 28L14 28L14 27L15 27L15 26L19 26L19 27L20 27L20 23L19 23L19 24L18 24L18 23L17 23L17 24L14 24L14 22L16 22L16 21L17 21L17 22L18 22L18 21L19 21L19 20L21 20L21 19L22 19L22 18L21 18L21 17L20 17L20 16L21 16L21 14L22 14L22 17L23 17L23 18L24 18L24 19L25 19L25 21L26 21L26 20L27 20L27 19L25 19L25 18L24 18L24 17L26 17L26 16L27 16L27 15L26 15L26 13L25 13L25 12L24 12L24 9L23 9L23 12L22 12L22 13L20 13L20 12L21 12L21 11L22 11L22 10L21 10L21 9L20 9L20 10L18 10L18 11L17 11L17 8L15 8L15 9L14 9L14 10L16 10L16 11L17 11L17 12L15 12L15 11L12 11L12 10L13 10L13 8L14 8L14 5L16 5L16 4L17 4L17 3L16 3L16 4L13 4L13 3L15 3L15 2ZM9 3L9 4L10 4L10 3ZM9 6L9 7L10 7L10 6ZM15 6L15 7L16 7L16 6ZM20 6L20 7L21 7L21 6ZM27 8L27 9L28 9L28 10L29 10L29 9L28 9L28 8ZM10 10L10 11L11 11L11 12L12 12L12 11L11 11L11 10ZM18 11L18 12L19 12L19 11ZM23 12L23 13L22 13L22 14L23 14L23 13L24 13L24 14L25 14L25 13L24 13L24 12ZM0 13L0 15L1 15L1 13ZM28 13L28 14L29 14L29 13ZM12 14L12 15L13 15L13 14ZM23 15L23 16L24 16L24 15ZM0 16L0 21L1 21L1 16ZM3 16L3 17L4 17L4 16ZM6 16L6 17L7 17L7 16ZM17 16L17 17L16 17L16 18L20 18L20 17L18 17L18 16ZM12 17L12 18L13 18L13 17ZM28 17L28 18L29 18L29 17ZM2 19L2 20L3 20L3 19ZM6 19L6 20L7 20L7 19ZM17 20L17 21L18 21L18 20ZM9 21L9 22L10 22L10 23L12 23L12 22L10 22L10 21ZM21 21L21 24L24 24L24 21ZM22 22L22 23L23 23L23 22ZM25 23L25 24L27 24L27 23ZM9 24L9 27L10 27L10 24ZM13 24L13 25L14 25L14 26L15 26L15 25L14 25L14 24ZM17 24L17 25L18 25L18 24ZM22 25L22 26L21 26L21 27L22 27L22 26L23 26L23 25ZM28 25L28 26L27 26L27 28L24 28L24 29L27 29L27 28L28 28L28 26L29 26L29 25ZM17 27L17 28L18 28L18 27ZM0 0L0 7L7 7L7 0ZM1 1L1 6L6 6L6 1ZM2 2L2 5L5 5L5 2ZM22 0L22 7L29 7L29 0ZM23 1L23 6L28 6L28 1ZM24 2L24 5L27 5L27 2ZM0 22L0 29L7 29L7 22ZM1 23L1 28L6 28L6 23ZM2 24L2 27L5 27L5 24Z" fill="#000000"/></g></g></svg>
