<?xml version="1.0" encoding="UTF-8"?>
<svg xmlns="http://www.w3.org/2000/svg" version="1.1" width="300" height="300" viewBox="0 0 300 300"><rect x="0" y="0" width="300" height="300" fill="#ffffff"/><g transform="scale(9.091)"><g transform="translate(0,0)"><path fill-rule="evenodd" d="M10 0L10 2L11 2L11 0ZM12 0L12 1L13 1L13 2L12 2L12 4L13 4L13 3L14 3L14 4L15 4L15 5L17 5L17 6L16 6L16 8L17 8L17 9L18 9L18 8L17 8L17 6L18 6L18 7L19 7L19 5L20 5L20 8L19 8L19 10L20 10L20 8L22 8L22 9L21 9L21 10L24 10L24 12L26 12L26 11L25 11L25 10L27 10L27 11L28 11L28 12L27 12L27 13L25 13L25 14L26 14L26 16L28 16L28 17L25 17L25 16L24 16L24 15L23 15L23 14L24 14L24 13L23 13L23 14L21 14L21 13L20 13L20 12L22 12L22 11L20 11L20 12L19 12L19 11L18 11L18 12L16 12L16 9L12 9L12 7L13 7L13 5L11 5L11 6L10 6L10 4L11 4L11 3L8 3L8 4L9 4L9 5L8 5L8 7L9 7L9 8L6 8L6 9L10 9L10 11L11 11L11 9L12 9L12 10L13 10L13 11L12 11L12 13L13 13L13 12L14 12L14 13L15 13L15 12L16 12L16 14L15 14L15 15L14 15L14 16L15 16L15 17L12 17L12 15L13 15L13 14L11 14L11 17L10 17L10 16L9 16L9 17L10 17L10 18L6 18L6 17L7 17L7 16L6 16L6 17L5 17L5 16L4 16L4 15L5 15L5 13L2 13L2 14L0 14L0 20L1 20L1 19L2 19L2 21L0 21L0 25L1 25L1 22L2 22L2 21L3 21L3 22L4 22L4 21L3 21L3 20L4 20L4 17L5 17L5 18L6 18L6 19L7 19L7 20L6 20L6 21L5 21L5 22L6 22L6 23L7 23L7 24L6 24L6 25L8 25L8 27L9 27L9 28L8 28L8 33L9 33L9 32L10 32L10 33L12 33L12 31L13 31L13 30L9 30L9 28L11 28L11 26L10 26L10 25L12 25L12 26L13 26L13 27L12 27L12 29L13 29L13 28L14 28L14 29L15 29L15 31L14 31L14 32L15 32L15 31L16 31L16 30L17 30L17 29L15 29L15 28L17 28L17 26L18 26L18 27L19 27L19 30L21 30L21 29L20 29L20 28L22 28L22 29L23 29L23 27L24 27L24 31L23 31L23 30L22 30L22 31L20 31L20 33L21 33L21 32L22 32L22 33L23 33L23 32L24 32L24 33L25 33L25 32L24 32L24 31L27 31L27 32L28 32L28 33L29 33L29 31L30 31L30 32L31 32L31 33L32 33L32 32L31 32L31 31L30 31L30 30L33 30L33 28L32 28L32 26L33 26L33 24L32 24L32 26L31 26L31 25L30 25L30 24L31 24L31 23L32 23L32 22L33 22L33 21L32 21L32 20L31 20L31 19L32 19L32 18L33 18L33 17L32 17L32 16L31 16L31 15L32 15L32 14L33 14L33 13L31 13L31 15L30 15L30 13L29 13L29 10L28 10L28 8L27 8L27 9L26 9L26 8L25 8L25 5L24 5L24 4L25 4L25 2L24 2L24 3L23 3L23 1L24 1L24 0L23 0L23 1L21 1L21 0L18 0L18 2L19 2L19 1L20 1L20 3L19 3L19 5L17 5L17 4L18 4L18 3L17 3L17 4L16 4L16 2L17 2L17 1L16 1L16 0ZM8 1L8 2L9 2L9 1ZM14 2L14 3L15 3L15 2ZM20 3L20 4L22 4L22 5L23 5L23 7L24 7L24 5L23 5L23 4L22 4L22 3ZM9 6L9 7L10 7L10 6ZM11 6L11 7L12 7L12 6ZM14 6L14 8L15 8L15 6ZM21 6L21 7L22 7L22 6ZM0 8L0 11L1 11L1 12L0 12L0 13L1 13L1 12L2 12L2 11L3 11L3 12L4 12L4 11L3 11L3 9L4 9L4 10L5 10L5 12L6 12L6 13L9 13L9 14L8 14L8 15L9 15L9 14L10 14L10 13L11 13L11 12L9 12L9 11L7 11L7 10L5 10L5 8ZM10 8L10 9L11 9L11 8ZM23 8L23 9L24 9L24 10L25 10L25 8ZM29 8L29 9L30 9L30 8ZM31 8L31 10L33 10L33 9L32 9L32 8ZM1 10L1 11L2 11L2 10ZM6 11L6 12L7 12L7 11ZM14 11L14 12L15 12L15 11ZM30 11L30 12L31 12L31 11ZM18 12L18 13L17 13L17 14L16 14L16 16L18 16L18 17L17 17L17 18L19 18L19 21L22 21L22 20L20 20L20 19L21 19L21 18L19 18L19 17L22 17L22 18L23 18L23 21L24 21L24 22L23 22L23 23L22 23L22 22L21 22L21 23L22 23L22 24L20 24L20 22L17 22L17 21L14 21L14 20L15 20L15 19L14 19L14 20L13 20L13 21L12 21L12 19L13 19L13 18L12 18L12 17L11 17L11 22L9 22L9 23L10 23L10 24L11 24L11 22L13 22L13 23L12 23L12 25L15 25L15 26L16 26L16 25L18 25L18 26L19 26L19 27L20 27L20 26L21 26L21 25L22 25L22 26L24 26L24 25L22 25L22 24L23 24L23 23L24 23L24 24L27 24L27 22L25 22L25 21L27 21L27 20L28 20L28 19L26 19L26 18L23 18L23 17L22 17L22 16L20 16L20 14L18 14L18 13L19 13L19 12ZM28 13L28 16L29 16L29 17L28 17L28 18L29 18L29 17L30 17L30 19L29 19L29 20L30 20L30 21L28 21L28 24L30 24L30 23L29 23L29 22L30 22L30 21L31 21L31 20L30 20L30 19L31 19L31 16L30 16L30 15L29 15L29 13ZM3 14L3 15L4 15L4 14ZM6 14L6 15L7 15L7 14ZM1 15L1 16L2 16L2 17L1 17L1 18L2 18L2 19L3 19L3 18L2 18L2 17L3 17L3 16L2 16L2 15ZM9 19L9 21L10 21L10 19ZM17 19L17 20L18 20L18 19ZM24 20L24 21L25 21L25 20ZM6 21L6 22L7 22L7 23L8 23L8 22L7 22L7 21ZM15 22L15 23L14 23L14 24L16 24L16 23L17 23L17 22ZM4 23L4 24L2 24L2 25L5 25L5 23ZM8 24L8 25L9 25L9 24ZM19 24L19 26L20 26L20 24ZM25 25L25 28L28 28L28 25ZM29 25L29 28L30 28L30 29L32 29L32 28L30 28L30 27L31 27L31 26L30 26L30 25ZM26 26L26 27L27 27L27 26ZM14 27L14 28L15 28L15 27ZM25 29L25 30L28 30L28 31L29 31L29 30L28 30L28 29ZM10 31L10 32L11 32L11 31ZM18 31L18 32L16 32L16 33L18 33L18 32L19 32L19 31ZM22 31L22 32L23 32L23 31ZM0 0L0 7L7 7L7 0ZM1 1L1 6L6 6L6 1ZM2 2L2 5L5 5L5 2ZM26 0L26 7L33 7L33 0ZM27 1L27 6L32 6L32 1ZM28 2L28 5L31 5L31 2ZM0 26L0 33L7 33L7 26ZM1 27L1 32L6 32L6 27ZM2 28L2 31L5 31L5 28Z" fill="#000000"/></g></g></svg>
