<?xml version="1.0" standalone="no"?>
<svg xmlns="http://www.w3.org/2000/svg" version="1.1" width="297" height="297">
	<!-- Created with https://api.qrserver.com (QR Code API, see goQR.me/api for information) -->
	<title>QR Code</title>
	<desc>http://localhost/e/sv000003-evento-prueba-qr-1</desc>
	<rect style="fill:rgb(255, 255, 255);fill-opacity:1" x="0" y="0" width="297" height="297" />
	<g id="elements">
		<path style="fill:rgb(0, 0, 0)" d="M 0,0 l 9,0 0,9 -9,0 z M 9,0 l 9,0 0,9 -9,0 z M 18,0 l 9,0 0,9 -9,0 z M 27,0 l 9,0 0,9 -9,0 z M 36,0 l 9,0 0,9 -9,0 z M 45,0 l 9,0 0,9 -9,0 z M 54,0 l 9,0 0,9 -9,0 z M 90,0 l 9,0 0,9 -9,0 z M 99,0 l 9,0 0,9 -9,0 z M 108,0 l 9,0 0,9 -9,0 z M 126,0 l 9,0 0,9 -9,0 z M 135,0 l 9,0 0,9 -9,0 z M 162,0 l 9,0 0,9 -9,0 z M 180,0 l 9,0 0,9 -9,0 z M 189,0 l 9,0 0,9 -9,0 z M 207,0 l 9,0 0,9 -9,0 z M 234,0 l 9,0 0,9 -9,0 z M 243,0 l 9,0 0,9 -9,0 z M 252,0 l 9,0 0,9 -9,0 z M 261,0 l 9,0 0,9 -9,0 z M 270,0 l 9,0 0,9 -9,0 z M 279,0 l 9,0 0,9 -9,0 z M 288,0 l 9,0 0,9 -9,0 z M 0,9 l 9,0 0,9 -9,0 z M 54,9 l 9,0 0,9 -9,0 z M 90,9 l 9,0 0,9 -9,0 z M 135,9 l 9,0 0,9 -9,0 z M 162,9 l 9,0 0,9 -9,0 z M 189,9 l 9,0 0,9 -9,0 z M 198,9 l 9,0 0,9 -9,0 z M 216,9 l 9,0 0,9 -9,0 z M 234,9 l 9,0 0,9 -9,0 z M 288,9 l 9,0 0,9 -9,0 z M 0,18 l 9,0 0,9 -9,0 z M 18,18 l 9,0 0,9 -9,0 z M 27,18 l 9,0 0,9 -9,0 z M 36,18 l 9,0 0,9 -9,0 z M 54,18 l 9,0 0,9 -9,0 z M 72,18 l 9,0 0,9 -9,0 z M 81,18 l 9,0 0,9 -9,0 z M 108,18 l 9,0 0,9 -9,0 z M 126,18 l 9,0 0,9 -9,0 z M 135,18 l 9,0 0,9 -9,0 z M 144,18 l 9,0 0,9 -9,0 z M 171,18 l 9,0 0,9 -9,0 z M 180,18 l 9,0 0,9 -9,0 z M 198,18 l 9,0 0,9 -9,0 z M 216,18 l 9,0 0,9 -9,0 z M 234,18 l 9,0 0,9 -9,0 z M 252,18 l 9,0 0,9 -9,0 z M 261,18 l 9,0 0,9 -9,0 z M 270,18 l 9,0 0,9 -9,0 z M 288,18 l 9,0 0,9 -9,0 z M 0,27 l 9,0 0,9 -9,0 z M 18,27 l 9,0 0,9 -9,0 z M 27,27 l 9,0 0,9 -9,0 z M 36,27 l 9,0 0,9 -9,0 z M 54,27 l 9,0 0,9 -9,0 z M 72,27 l 9,0 0,9 -9,0 z M 81,27 l 9,0 0,9 -9,0 z M 90,27 l 9,0 0,9 -9,0 z M 108,27 l 9,0 0,9 -9,0 z M 162,27 l 9,0 0,9 -9,0 z M 189,27 l 9,0 0,9 -9,0 z M 198,27 l 9,0 0,9 -9,0 z M 207,27 l 9,0 0,9 -9,0 z M 234,27 l 9,0 0,9 -9,0 z M 252,27 l 9,0 0,9 -9,0 z M 261,27 l 9,0 0,9 -9,0 z M 270,27 l 9,0 0,9 -9,0 z M 288,27 l 9,0 0,9 -9,0 z M 0,36 l 9,0 0,9 -9,0 z M 18,36 l 9,0 0,9 -9,0 z M 27,36 l 9,0 0,9 -9,0 z M 36,36 l 9,0 0,9 -9,0 z M 54,36 l 9,0 0,9 -9,0 z M 72,36 l 9,0 0,9 -9,0 z M 81,36 l 9,0 0,9 -9,0 z M 126,36 l 9,0 0,9 -9,0 z M 135,36 l 9,0 0,9 -9,0 z M 144,36 l 9,0 0,9 -9,0 z M 180,36 l 9,0 0,9 -9,0 z M 207,36 l 9,0 0,9 -9,0 z M 216,36 l 9,0 0,9 -9,0 z M 234,36 l 9,0 0,9 -9,0 z M 252,36 l 9,0 0,9 -9,0 z M 261,36 l 9,0 0,9 -9,0 z M 270,36 l 9,0 0,9 -9,0 z M 288,36 l 9,0 0,9 -9,0 z M 0,45 l 9,0 0,9 -9,0 z M 54,45 l 9,0 0,9 -9,0 z M 72,45 l 9,0 0,9 -9,0 z M 81,45 l 9,0 0,9 -9,0 z M 99,45 l 9,0 0,9 -9,0 z M 108,45 l 9,0 0,9 -9,0 z M 162,45 l 9,0 0,9 -9,0 z M 171,45 l 9,0 0,9 -9,0 z M 198,45 l 9,0 0,9 -9,0 z M 207,45 l 9,0 0,9 -9,0 z M 216,45 l 9,0 0,9 -9,0 z M 234,45 l 9,0 0,9 -9,0 z M 288,45 l 9,0 0,9 -9,0 z M 0,54 l 9,0 0,9 -9,0 z M 9,54 l 9,0 0,9 -9,0 z M 18,54 l 9,0 0,9 -9,0 z M 27,54 l 9,0 0,9 -9,0 z M 36,54 l 9,0 0,9 -9,0 z M 45,54 l 9,0 0,9 -9,0 z M 54,54 l 9,0 0,9 -9,0 z M 72,54 l 9,0 0,9 -9,0 z M 90,54 l 9,0 0,9 -9,0 z M 108,54 l 9,0 0,9 -9,0 z M 126,54 l 9,0 0,9 -9,0 z M 144,54 l 9,0 0,9 -9,0 z M 162,54 l 9,0 0,9 -9,0 z M 180,54 l 9,0 0,9 -9,0 z M 198,54 l 9,0 0,9 -9,0 z M 216,54 l 9,0 0,9 -9,0 z M 234,54 l 9,0 0,9 -9,0 z M 243,54 l 9,0 0,9 -9,0 z M 252,54 l 9,0 0,9 -9,0 z M 261,54 l 9,0 0,9 -9,0 z M 270,54 l 9,0 0,9 -9,0 z M 279,54 l 9,0 0,9 -9,0 z M 288,54 l 9,0 0,9 -9,0 z M 72,63 l 9,0 0,9 -9,0 z M 81,63 l 9,0 0,9 -9,0 z M 108,63 l 9,0 0,9 -9,0 z M 144,63 l 9,0 0,9 -9,0 z M 162,63 l 9,0 0,9 -9,0 z M 171,63 l 9,0 0,9 -9,0 z M 180,63 l 9,0 0,9 -9,0 z M 189,63 l 9,0 0,9 -9,0 z M 198,63 l 9,0 0,9 -9,0 z M 0,72 l 9,0 0,9 -9,0 z M 18,72 l 9,0 0,9 -9,0 z M 27,72 l 9,0 0,9 -9,0 z M 36,72 l 9,0 0,9 -9,0 z M 45,72 l 9,0 0,9 -9,0 z M 54,72 l 9,0 0,9 -9,0 z M 90,72 l 9,0 0,9 -9,0 z M 108,72 l 9,0 0,9 -9,0 z M 126,72 l 9,0 0,9 -9,0 z M 162,72 l 9,0 0,9 -9,0 z M 171,72 l 9,0 0,9 -9,0 z M 180,72 l 9,0 0,9 -9,0 z M 198,72 l 9,0 0,9 -9,0 z M 216,72 l 9,0 0,9 -9,0 z M 234,72 l 9,0 0,9 -9,0 z M 243,72 l 9,0 0,9 -9,0 z M 252,72 l 9,0 0,9 -9,0 z M 261,72 l 9,0 0,9 -9,0 z M 270,72 l 9,0 0,9 -9,0 z M 9,81 l 9,0 0,9 -9,0 z M 18,81 l 9,0 0,9 -9,0 z M 27,81 l 9,0 0,9 -9,0 z M 36,81 l 9,0 0,9 -9,0 z M 72,81 l 9,0 0,9 -9,0 z M 81,81 l 9,0 0,9 -9,0 z M 99,81 l 9,0 0,9 -9,0 z M 117,81 l 9,0 0,9 -9,0 z M 153,81 l 9,0 0,9 -9,0 z M 171,81 l 9,0 0,9 -9,0 z M 180,81 l 9,0 0,9 -9,0 z M 189,81 l 9,0 0,9 -9,0 z M 198,81 l 9,0 0,9 -9,0 z M 207,81 l 9,0 0,9 -9,0 z M 234,81 l 9,0 0,9 -9,0 z M 261,81 l 9,0 0,9 -9,0 z M 270,81 l 9,0 0,9 -9,0 z M 279,81 l 9,0 0,9 -9,0 z M 9,90 l 9,0 0,9 -9,0 z M 18,90 l 9,0 0,9 -9,0 z M 27,90 l 9,0 0,9 -9,0 z M 54,90 l 9,0 0,9 -9,0 z M 63,90 l 9,0 0,9 -9,0 z M 99,90 l 9,0 0,9 -9,0 z M 108,90 l 9,0 0,9 -9,0 z M 117,90 l 9,0 0,9 -9,0 z M 126,90 l 9,0 0,9 -9,0 z M 135,90 l 9,0 0,9 -9,0 z M 153,90 l 9,0 0,9 -9,0 z M 180,90 l 9,0 0,9 -9,0 z M 189,90 l 9,0 0,9 -9,0 z M 198,90 l 9,0 0,9 -9,0 z M 216,90 l 9,0 0,9 -9,0 z M 252,90 l 9,0 0,9 -9,0 z M 270,90 l 9,0 0,9 -9,0 z M 288,90 l 9,0 0,9 -9,0 z M 0,99 l 9,0 0,9 -9,0 z M 9,99 l 9,0 0,9 -9,0 z M 27,99 l 9,0 0,9 -9,0 z M 36,99 l 9,0 0,9 -9,0 z M 63,99 l 9,0 0,9 -9,0 z M 81,99 l 9,0 0,9 -9,0 z M 90,99 l 9,0 0,9 -9,0 z M 99,99 l 9,0 0,9 -9,0 z M 108,99 l 9,0 0,9 -9,0 z M 117,99 l 9,0 0,9 -9,0 z M 135,99 l 9,0 0,9 -9,0 z M 153,99 l 9,0 0,9 -9,0 z M 162,99 l 9,0 0,9 -9,0 z M 171,99 l 9,0 0,9 -9,0 z M 198,99 l 9,0 0,9 -9,0 z M 225,99 l 9,0 0,9 -9,0 z M 252,99 l 9,0 0,9 -9,0 z M 261,99 l 9,0 0,9 -9,0 z M 270,99 l 9,0 0,9 -9,0 z M 279,99 l 9,0 0,9 -9,0 z M 0,108 l 9,0 0,9 -9,0 z M 18,108 l 9,0 0,9 -9,0 z M 36,108 l 9,0 0,9 -9,0 z M 45,108 l 9,0 0,9 -9,0 z M 54,108 l 9,0 0,9 -9,0 z M 81,108 l 9,0 0,9 -9,0 z M 90,108 l 9,0 0,9 -9,0 z M 99,108 l 9,0 0,9 -9,0 z M 126,108 l 9,0 0,9 -9,0 z M 135,108 l 9,0 0,9 -9,0 z M 144,108 l 9,0 0,9 -9,0 z M 180,108 l 9,0 0,9 -9,0 z M 189,108 l 9,0 0,9 -9,0 z M 198,108 l 9,0 0,9 -9,0 z M 207,108 l 9,0 0,9 -9,0 z M 216,108 l 9,0 0,9 -9,0 z M 225,108 l 9,0 0,9 -9,0 z M 234,108 l 9,0 0,9 -9,0 z M 243,108 l 9,0 0,9 -9,0 z M 261,108 l 9,0 0,9 -9,0 z M 288,108 l 9,0 0,9 -9,0 z M 0,117 l 9,0 0,9 -9,0 z M 9,117 l 9,0 0,9 -9,0 z M 18,117 l 9,0 0,9 -9,0 z M 36,117 l 9,0 0,9 -9,0 z M 63,117 l 9,0 0,9 -9,0 z M 72,117 l 9,0 0,9 -9,0 z M 99,117 l 9,0 0,9 -9,0 z M 108,117 l 9,0 0,9 -9,0 z M 117,117 l 9,0 0,9 -9,0 z M 135,117 l 9,0 0,9 -9,0 z M 162,117 l 9,0 0,9 -9,0 z M 189,117 l 9,0 0,9 -9,0 z M 216,117 l 9,0 0,9 -9,0 z M 252,117 l 9,0 0,9 -9,0 z M 261,117 l 9,0 0,9 -9,0 z M 270,117 l 9,0 0,9 -9,0 z M 279,117 l 9,0 0,9 -9,0 z M 288,117 l 9,0 0,9 -9,0 z M 0,126 l 9,0 0,9 -9,0 z M 18,126 l 9,0 0,9 -9,0 z M 54,126 l 9,0 0,9 -9,0 z M 63,126 l 9,0 0,9 -9,0 z M 99,126 l 9,0 0,9 -9,0 z M 126,126 l 9,0 0,9 -9,0 z M 135,126 l 9,0 0,9 -9,0 z M 144,126 l 9,0 0,9 -9,0 z M 153,126 l 9,0 0,9 -9,0 z M 162,126 l 9,0 0,9 -9,0 z M 180,126 l 9,0 0,9 -9,0 z M 207,126 l 9,0 0,9 -9,0 z M 225,126 l 9,0 0,9 -9,0 z M 234,126 l 9,0 0,9 -9,0 z M 261,126 l 9,0 0,9 -9,0 z M 270,126 l 9,0 0,9 -9,0 z M 279,126 l 9,0 0,9 -9,0 z M 9,135 l 9,0 0,9 -9,0 z M 18,135 l 9,0 0,9 -9,0 z M 27,135 l 9,0 0,9 -9,0 z M 36,135 l 9,0 0,9 -9,0 z M 45,135 l 9,0 0,9 -9,0 z M 81,135 l 9,0 0,9 -9,0 z M 90,135 l 9,0 0,9 -9,0 z M 108,135 l 9,0 0,9 -9,0 z M 117,135 l 9,0 0,9 -9,0 z M 135,135 l 9,0 0,9 -9,0 z M 189,135 l 9,0 0,9 -9,0 z M 198,135 l 9,0 0,9 -9,0 z M 216,135 l 9,0 0,9 -9,0 z M 27,144 l 9,0 0,9 -9,0 z M 54,144 l 9,0 0,9 -9,0 z M 108,144 l 9,0 0,9 -9,0 z M 126,144 l 9,0 0,9 -9,0 z M 135,144 l 9,0 0,9 -9,0 z M 162,144 l 9,0 0,9 -9,0 z M 180,144 l 9,0 0,9 -9,0 z M 198,144 l 9,0 0,9 -9,0 z M 207,144 l 9,0 0,9 -9,0 z M 216,144 l 9,0 0,9 -9,0 z M 225,144 l 9,0 0,9 -9,0 z M 243,144 l 9,0 0,9 -9,0 z M 252,144 l 9,0 0,9 -9,0 z M 261,144 l 9,0 0,9 -9,0 z M 288,144 l 9,0 0,9 -9,0 z M 0,153 l 9,0 0,9 -9,0 z M 9,153 l 9,0 0,9 -9,0 z M 27,153 l 9,0 0,9 -9,0 z M 36,153 l 9,0 0,9 -9,0 z M 45,153 l 9,0 0,9 -9,0 z M 90,153 l 9,0 0,9 -9,0 z M 99,153 l 9,0 0,9 -9,0 z M 135,153 l 9,0 0,9 -9,0 z M 162,153 l 9,0 0,9 -9,0 z M 171,153 l 9,0 0,9 -9,0 z M 180,153 l 9,0 0,9 -9,0 z M 198,153 l 9,0 0,9 -9,0 z M 207,153 l 9,0 0,9 -9,0 z M 234,153 l 9,0 0,9 -9,0 z M 243,153 l 9,0 0,9 -9,0 z M 261,153 l 9,0 0,9 -9,0 z M 270,153 l 9,0 0,9 -9,0 z M 279,153 l 9,0 0,9 -9,0 z M 0,162 l 9,0 0,9 -9,0 z M 18,162 l 9,0 0,9 -9,0 z M 36,162 l 9,0 0,9 -9,0 z M 54,162 l 9,0 0,9 -9,0 z M 63,162 l 9,0 0,9 -9,0 z M 72,162 l 9,0 0,9 -9,0 z M 117,162 l 9,0 0,9 -9,0 z M 126,162 l 9,0 0,9 -9,0 z M 135,162 l 9,0 0,9 -9,0 z M 162,162 l 9,0 0,9 -9,0 z M 180,162 l 9,0 0,9 -9,0 z M 189,162 l 9,0 0,9 -9,0 z M 234,162 l 9,0 0,9 -9,0 z M 252,162 l 9,0 0,9 -9,0 z M 270,162 l 9,0 0,9 -9,0 z M 279,162 l 9,0 0,9 -9,0 z M 288,162 l 9,0 0,9 -9,0 z M 0,171 l 9,0 0,9 -9,0 z M 9,171 l 9,0 0,9 -9,0 z M 27,171 l 9,0 0,9 -9,0 z M 63,171 l 9,0 0,9 -9,0 z M 90,171 l 9,0 0,9 -9,0 z M 99,171 l 9,0 0,9 -9,0 z M 108,171 l 9,0 0,9 -9,0 z M 126,171 l 9,0 0,9 -9,0 z M 135,171 l 9,0 0,9 -9,0 z M 171,171 l 9,0 0,9 -9,0 z M 180,171 l 9,0 0,9 -9,0 z M 216,171 l 9,0 0,9 -9,0 z M 225,171 l 9,0 0,9 -9,0 z M 252,171 l 9,0 0,9 -9,0 z M 261,171 l 9,0 0,9 -9,0 z M 270,171 l 9,0 0,9 -9,0 z M 279,171 l 9,0 0,9 -9,0 z M 27,180 l 9,0 0,9 -9,0 z M 45,180 l 9,0 0,9 -9,0 z M 54,180 l 9,0 0,9 -9,0 z M 90,180 l 9,0 0,9 -9,0 z M 108,180 l 9,0 0,9 -9,0 z M 126,180 l 9,0 0,9 -9,0 z M 135,180 l 9,0 0,9 -9,0 z M 162,180 l 9,0 0,9 -9,0 z M 171,180 l 9,0 0,9 -9,0 z M 216,180 l 9,0 0,9 -9,0 z M 225,180 l 9,0 0,9 -9,0 z M 234,180 l 9,0 0,9 -9,0 z M 252,180 l 9,0 0,9 -9,0 z M 261,180 l 9,0 0,9 -9,0 z M 279,180 l 9,0 0,9 -9,0 z M 0,189 l 9,0 0,9 -9,0 z M 9,189 l 9,0 0,9 -9,0 z M 27,189 l 9,0 0,9 -9,0 z M 45,189 l 9,0 0,9 -9,0 z M 63,189 l 9,0 0,9 -9,0 z M 90,189 l 9,0 0,9 -9,0 z M 99,189 l 9,0 0,9 -9,0 z M 117,189 l 9,0 0,9 -9,0 z M 135,189 l 9,0 0,9 -9,0 z M 144,189 l 9,0 0,9 -9,0 z M 180,189 l 9,0 0,9 -9,0 z M 189,189 l 9,0 0,9 -9,0 z M 198,189 l 9,0 0,9 -9,0 z M 216,189 l 9,0 0,9 -9,0 z M 225,189 l 9,0 0,9 -9,0 z M 243,189 l 9,0 0,9 -9,0 z M 252,189 l 9,0 0,9 -9,0 z M 288,189 l 9,0 0,9 -9,0 z M 0,198 l 9,0 0,9 -9,0 z M 18,198 l 9,0 0,9 -9,0 z M 36,198 l 9,0 0,9 -9,0 z M 45,198 l 9,0 0,9 -9,0 z M 54,198 l 9,0 0,9 -9,0 z M 63,198 l 9,0 0,9 -9,0 z M 72,198 l 9,0 0,9 -9,0 z M 81,198 l 9,0 0,9 -9,0 z M 90,198 l 9,0 0,9 -9,0 z M 99,198 l 9,0 0,9 -9,0 z M 108,198 l 9,0 0,9 -9,0 z M 117,198 l 9,0 0,9 -9,0 z M 126,198 l 9,0 0,9 -9,0 z M 153,198 l 9,0 0,9 -9,0 z M 162,198 l 9,0 0,9 -9,0 z M 171,198 l 9,0 0,9 -9,0 z M 189,198 l 9,0 0,9 -9,0 z M 198,198 l 9,0 0,9 -9,0 z M 207,198 l 9,0 0,9 -9,0 z M 225,198 l 9,0 0,9 -9,0 z M 234,198 l 9,0 0,9 -9,0 z M 243,198 l 9,0 0,9 -9,0 z M 261,198 l 9,0 0,9 -9,0 z M 270,198 l 9,0 0,9 -9,0 z M 279,198 l 9,0 0,9 -9,0 z M 0,207 l 9,0 0,9 -9,0 z M 45,207 l 9,0 0,9 -9,0 z M 63,207 l 9,0 0,9 -9,0 z M 72,207 l 9,0 0,9 -9,0 z M 81,207 l 9,0 0,9 -9,0 z M 90,207 l 9,0 0,9 -9,0 z M 99,207 l 9,0 0,9 -9,0 z M 108,207 l 9,0 0,9 -9,0 z M 144,207 l 9,0 0,9 -9,0 z M 162,207 l 9,0 0,9 -9,0 z M 171,207 l 9,0 0,9 -9,0 z M 180,207 l 9,0 0,9 -9,0 z M 189,207 l 9,0 0,9 -9,0 z M 225,207 l 9,0 0,9 -9,0 z M 234,207 l 9,0 0,9 -9,0 z M 252,207 l 9,0 0,9 -9,0 z M 261,207 l 9,0 0,9 -9,0 z M 279,207 l 9,0 0,9 -9,0 z M 0,216 l 9,0 0,9 -9,0 z M 36,216 l 9,0 0,9 -9,0 z M 54,216 l 9,0 0,9 -9,0 z M 72,216 l 9,0 0,9 -9,0 z M 81,216 l 9,0 0,9 -9,0 z M 108,216 l 9,0 0,9 -9,0 z M 126,216 l 9,0 0,9 -9,0 z M 162,216 l 9,0 0,9 -9,0 z M 171,216 l 9,0 0,9 -9,0 z M 216,216 l 9,0 0,9 -9,0 z M 225,216 l 9,0 0,9 -9,0 z M 234,216 l 9,0 0,9 -9,0 z M 243,216 l 9,0 0,9 -9,0 z M 252,216 l 9,0 0,9 -9,0 z M 261,216 l 9,0 0,9 -9,0 z M 270,216 l 9,0 0,9 -9,0 z M 279,216 l 9,0 0,9 -9,0 z M 72,225 l 9,0 0,9 -9,0 z M 81,225 l 9,0 0,9 -9,0 z M 126,225 l 9,0 0,9 -9,0 z M 135,225 l 9,0 0,9 -9,0 z M 153,225 l 9,0 0,9 -9,0 z M 162,225 l 9,0 0,9 -9,0 z M 171,225 l 9,0 0,9 -9,0 z M 189,225 l 9,0 0,9 -9,0 z M 216,225 l 9,0 0,9 -9,0 z M 252,225 l 9,0 0,9 -9,0 z M 270,225 l 9,0 0,9 -9,0 z M 279,225 l 9,0 0,9 -9,0 z M 0,234 l 9,0 0,9 -9,0 z M 9,234 l 9,0 0,9 -9,0 z M 18,234 l 9,0 0,9 -9,0 z M 27,234 l 9,0 0,9 -9,0 z M 36,234 l 9,0 0,9 -9,0 z M 45,234 l 9,0 0,9 -9,0 z M 54,234 l 9,0 0,9 -9,0 z M 81,234 l 9,0 0,9 -9,0 z M 90,234 l 9,0 0,9 -9,0 z M 108,234 l 9,0 0,9 -9,0 z M 135,234 l 9,0 0,9 -9,0 z M 153,234 l 9,0 0,9 -9,0 z M 180,234 l 9,0 0,9 -9,0 z M 189,234 l 9,0 0,9 -9,0 z M 198,234 l 9,0 0,9 -9,0 z M 207,234 l 9,0 0,9 -9,0 z M 216,234 l 9,0 0,9 -9,0 z M 234,234 l 9,0 0,9 -9,0 z M 252,234 l 9,0 0,9 -9,0 z M 270,234 l 9,0 0,9 -9,0 z M 288,234 l 9,0 0,9 -9,0 z M 0,243 l 9,0 0,9 -9,0 z M 54,243 l 9,0 0,9 -9,0 z M 72,243 l 9,0 0,9 -9,0 z M 81,243 l 9,0 0,9 -9,0 z M 108,243 l 9,0 0,9 -9,0 z M 117,243 l 9,0 0,9 -9,0 z M 126,243 l 9,0 0,9 -9,0 z M 135,243 l 9,0 0,9 -9,0 z M 153,243 l 9,0 0,9 -9,0 z M 162,243 l 9,0 0,9 -9,0 z M 180,243 l 9,0 0,9 -9,0 z M 207,243 l 9,0 0,9 -9,0 z M 216,243 l 9,0 0,9 -9,0 z M 252,243 l 9,0 0,9 -9,0 z M 270,243 l 9,0 0,9 -9,0 z M 279,243 l 9,0 0,9 -9,0 z M 0,252 l 9,0 0,9 -9,0 z M 18,252 l 9,0 0,9 -9,0 z M 27,252 l 9,0 0,9 -9,0 z M 36,252 l 9,0 0,9 -9,0 z M 54,252 l 9,0 0,9 -9,0 z M 72,252 l 9,0 0,9 -9,0 z M 90,252 l 9,0 0,9 -9,0 z M 99,252 l 9,0 0,9 -9,0 z M 126,252 l 9,0 0,9 -9,0 z M 135,252 l 9,0 0,9 -9,0 z M 144,252 l 9,0 0,9 -9,0 z M 189,252 l 9,0 0,9 -9,0 z M 198,252 l 9,0 0,9 -9,0 z M 216,252 l 9,0 0,9 -9,0 z M 225,252 l 9,0 0,9 -9,0 z M 234,252 l 9,0 0,9 -9,0 z M 243,252 l 9,0 0,9 -9,0 z M 252,252 l 9,0 0,9 -9,0 z M 261,252 l 9,0 0,9 -9,0 z M 288,252 l 9,0 0,9 -9,0 z M 0,261 l 9,0 0,9 -9,0 z M 18,261 l 9,0 0,9 -9,0 z M 27,261 l 9,0 0,9 -9,0 z M 36,261 l 9,0 0,9 -9,0 z M 54,261 l 9,0 0,9 -9,0 z M 72,261 l 9,0 0,9 -9,0 z M 117,261 l 9,0 0,9 -9,0 z M 135,261 l 9,0 0,9 -9,0 z M 162,261 l 9,0 0,9 -9,0 z M 207,261 l 9,0 0,9 -9,0 z M 225,261 l 9,0 0,9 -9,0 z M 243,261 l 9,0 0,9 -9,0 z M 252,261 l 9,0 0,9 -9,0 z M 270,261 l 9,0 0,9 -9,0 z M 279,261 l 9,0 0,9 -9,0 z M 0,270 l 9,0 0,9 -9,0 z M 18,270 l 9,0 0,9 -9,0 z M 27,270 l 9,0 0,9 -9,0 z M 36,270 l 9,0 0,9 -9,0 z M 54,270 l 9,0 0,9 -9,0 z M 72,270 l 9,0 0,9 -9,0 z M 90,270 l 9,0 0,9 -9,0 z M 99,270 l 9,0 0,9 -9,0 z M 108,270 l 9,0 0,9 -9,0 z M 126,270 l 9,0 0,9 -9,0 z M 135,270 l 9,0 0,9 -9,0 z M 144,270 l 9,0 0,9 -9,0 z M 153,270 l 9,0 0,9 -9,0 z M 162,270 l 9,0 0,9 -9,0 z M 198,270 l 9,0 0,9 -9,0 z M 216,270 l 9,0 0,9 -9,0 z M 234,270 l 9,0 0,9 -9,0 z M 243,270 l 9,0 0,9 -9,0 z M 261,270 l 9,0 0,9 -9,0 z M 270,270 l 9,0 0,9 -9,0 z M 0,279 l 9,0 0,9 -9,0 z M 54,279 l 9,0 0,9 -9,0 z M 90,279 l 9,0 0,9 -9,0 z M 108,279 l 9,0 0,9 -9,0 z M 117,279 l 9,0 0,9 -9,0 z M 135,279 l 9,0 0,9 -9,0 z M 180,279 l 9,0 0,9 -9,0 z M 189,279 l 9,0 0,9 -9,0 z M 198,279 l 9,0 0,9 -9,0 z M 207,279 l 9,0 0,9 -9,0 z M 216,279 l 9,0 0,9 -9,0 z M 225,279 l 9,0 0,9 -9,0 z M 243,279 l 9,0 0,9 -9,0 z M 252,279 l 9,0 0,9 -9,0 z M 0,288 l 9,0 0,9 -9,0 z M 9,288 l 9,0 0,9 -9,0 z M 18,288 l 9,0 0,9 -9,0 z M 27,288 l 9,0 0,9 -9,0 z M 36,288 l 9,0 0,9 -9,0 z M 45,288 l 9,0 0,9 -9,0 z M 54,288 l 9,0 0,9 -9,0 z M 72,288 l 9,0 0,9 -9,0 z M 99,288 l 9,0 0,9 -9,0 z M 117,288 l 9,0 0,9 -9,0 z M 126,288 l 9,0 0,9 -9,0 z M 135,288 l 9,0 0,9 -9,0 z M 162,288 l 9,0 0,9 -9,0 z M 198,288 l 9,0 0,9 -9,0 z M 225,288 l 9,0 0,9 -9,0 z M 243,288 l 9,0 0,9 -9,0 z M 252,288 l 9,0 0,9 -9,0 z M 261,288 l 9,0 0,9 -9,0 z M 279,288 l 9,0 0,9 -9,0 z " />
	</g>
</svg>
