<?xml version="1.0" encoding="UTF-8"?>
<svg xmlns="http://www.w3.org/2000/svg" version="1.1" width="300" height="300" viewBox="0 0 300 300"><rect x="0" y="0" width="300" height="300" fill="#ffffff"/><g transform="scale(7.692)"><g transform="translate(1,1)"><path fill-rule="evenodd" d="M8 0L8 3L10 3L10 4L8 4L8 5L10 5L10 7L11 7L11 6L12 6L12 8L10 8L10 11L9 11L9 8L3 8L3 9L1 9L1 8L0 8L0 9L1 9L1 10L0 10L0 12L2 12L2 13L4 13L4 12L6 12L6 13L7 13L7 14L6 14L6 15L7 15L7 16L5 16L5 17L3 17L3 16L4 16L4 14L1 14L1 13L0 13L0 14L1 14L1 16L0 16L0 19L1 19L1 17L2 17L2 20L1 20L1 21L2 21L2 23L1 23L1 25L0 25L0 29L1 29L1 27L2 27L2 29L3 29L3 28L4 28L4 29L7 29L7 28L6 28L6 27L7 27L7 26L8 26L8 25L7 25L7 24L11 24L11 23L8 23L8 22L6 22L6 21L9 21L9 22L10 22L10 21L11 21L11 22L12 22L12 21L13 21L13 23L14 23L14 24L12 24L12 26L11 26L11 25L9 25L9 27L10 27L10 26L11 26L11 28L9 28L9 29L8 29L8 34L10 34L10 35L11 35L11 36L8 36L8 37L11 37L11 36L12 36L12 37L14 37L14 36L13 36L13 35L12 35L12 33L13 33L13 34L14 34L14 35L15 35L15 36L16 36L16 35L15 35L15 34L14 34L14 33L17 33L17 32L15 32L15 31L19 31L19 32L18 32L18 33L20 33L20 34L21 34L21 33L22 33L22 36L23 36L23 37L24 37L24 36L25 36L25 35L26 35L26 36L28 36L28 37L29 37L29 36L28 36L28 35L26 35L26 34L27 34L27 33L28 33L28 34L31 34L31 33L33 33L33 34L32 34L32 36L31 36L31 35L30 35L30 37L32 37L32 36L33 36L33 37L34 37L34 36L36 36L36 37L37 37L37 33L36 33L36 32L37 32L37 30L36 30L36 29L37 29L37 26L34 26L34 25L32 25L32 24L35 24L35 23L34 23L34 22L36 22L36 25L37 25L37 22L36 22L36 21L34 21L34 22L33 22L33 20L34 20L34 17L35 17L35 15L37 15L37 14L34 14L34 12L36 12L36 13L37 13L37 10L36 10L36 9L37 9L37 8L34 8L34 9L33 9L33 8L32 8L32 10L36 10L36 11L31 11L31 10L29 10L29 9L30 9L30 8L27 8L27 6L26 6L26 7L25 7L25 5L23 5L23 4L26 4L26 5L27 5L27 4L28 4L28 5L29 5L29 4L28 4L28 2L29 2L29 1L28 1L28 2L27 2L27 4L26 4L26 2L25 2L25 1L26 1L26 0L25 0L25 1L24 1L24 0L22 0L22 1L21 1L21 0L19 0L19 1L18 1L18 0L14 0L14 1L17 1L17 2L16 2L16 3L15 3L15 2L13 2L13 3L14 3L14 4L15 4L15 5L14 5L14 7L13 7L13 5L11 5L11 3L12 3L12 1L13 1L13 0L11 0L11 1L10 1L10 0ZM20 1L20 3L19 3L19 2L17 2L17 3L16 3L16 4L17 4L17 5L16 5L16 6L15 6L15 7L14 7L14 8L13 8L13 9L15 9L15 10L13 10L13 11L12 11L12 10L11 10L11 11L12 11L12 12L11 12L11 15L12 15L12 16L9 16L9 15L8 15L8 16L9 16L9 19L8 19L8 20L9 20L9 21L10 21L10 20L11 20L11 19L12 19L12 18L13 18L13 19L14 19L14 18L13 18L13 17L15 17L15 19L16 19L16 18L17 18L17 16L19 16L19 17L18 17L18 18L20 18L20 19L21 19L21 20L20 20L20 22L19 22L19 21L18 21L18 22L16 22L16 23L15 23L15 24L16 24L16 25L14 25L14 27L13 27L13 26L12 26L12 28L13 28L13 29L12 29L12 30L13 30L13 33L14 33L14 31L15 31L15 28L16 28L16 27L17 27L17 29L18 29L18 30L19 30L19 29L18 29L18 25L20 25L20 26L19 26L19 27L20 27L20 28L21 28L21 29L20 29L20 32L21 32L21 31L22 31L22 33L24 33L24 34L25 34L25 33L26 33L26 32L27 32L27 31L28 31L28 29L27 29L27 28L26 28L26 27L25 27L25 26L24 26L24 24L23 24L23 22L22 22L22 19L24 19L24 20L25 20L25 21L24 21L24 23L25 23L25 25L27 25L27 24L28 24L28 25L30 25L30 26L29 26L29 27L30 27L30 28L31 28L31 27L32 27L32 28L33 28L33 26L32 26L32 25L30 25L30 24L31 24L31 23L27 23L27 21L26 21L26 20L27 20L27 19L26 19L26 17L28 17L28 20L29 20L29 17L30 17L30 19L31 19L31 20L32 20L32 18L33 18L33 17L34 17L34 16L33 16L33 15L32 15L32 13L33 13L33 12L31 12L31 11L28 11L28 12L26 12L26 10L27 10L27 9L26 9L26 8L25 8L25 7L24 7L24 6L23 6L23 7L24 7L24 9L21 9L21 8L22 8L22 5L21 5L21 1ZM22 2L22 4L23 4L23 2ZM24 2L24 3L25 3L25 2ZM17 3L17 4L18 4L18 3ZM19 4L19 5L20 5L20 7L21 7L21 5L20 5L20 4ZM8 6L8 7L9 7L9 6ZM16 6L16 7L15 7L15 9L16 9L16 10L15 10L15 11L16 11L16 12L13 12L13 13L12 13L12 14L13 14L13 15L14 15L14 16L15 16L15 17L16 17L16 15L17 15L17 14L16 14L16 13L17 13L17 12L18 12L18 13L19 13L19 12L20 12L20 14L18 14L18 15L21 15L21 17L22 17L22 18L24 18L24 19L25 19L25 20L26 20L26 19L25 19L25 18L24 18L24 17L26 17L26 16L27 16L27 15L28 15L28 14L29 14L29 16L30 16L30 17L31 17L31 18L32 18L32 17L31 17L31 16L32 16L32 15L30 15L30 14L29 14L29 12L28 12L28 13L25 13L25 11L24 11L24 10L26 10L26 9L24 9L24 10L23 10L23 11L22 11L22 12L23 12L23 14L27 14L27 15L26 15L26 16L25 16L25 15L24 15L24 16L23 16L23 15L21 15L21 14L22 14L22 13L21 13L21 10L19 10L19 9L18 9L18 10L19 10L19 11L17 11L17 9L16 9L16 7L17 7L17 8L19 8L19 6L18 6L18 7L17 7L17 6ZM28 6L28 7L29 7L29 6ZM3 9L3 10L2 10L2 11L6 11L6 12L8 12L8 13L9 13L9 14L10 14L10 12L9 12L9 11L6 11L6 10L7 10L7 9L6 9L6 10L4 10L4 9ZM30 12L30 13L31 13L31 12ZM14 14L14 15L15 15L15 14ZM2 15L2 16L3 16L3 15ZM12 16L12 17L13 17L13 16ZM36 16L36 17L37 17L37 16ZM5 17L5 18L7 18L7 17ZM3 18L3 19L4 19L4 18ZM10 18L10 19L9 19L9 20L10 20L10 19L11 19L11 18ZM36 18L36 20L37 20L37 18ZM6 19L6 20L7 20L7 19ZM17 19L17 20L15 20L15 21L14 21L14 22L15 22L15 21L17 21L17 20L18 20L18 19ZM2 20L2 21L3 21L3 20ZM4 20L4 21L5 21L5 20ZM28 21L28 22L29 22L29 21ZM30 21L30 22L32 22L32 23L33 23L33 22L32 22L32 21ZM3 22L3 24L2 24L2 25L1 25L1 26L4 26L4 27L6 27L6 26L7 26L7 25L6 25L6 24L7 24L7 23L6 23L6 22L5 22L5 25L6 25L6 26L4 26L4 25L3 25L3 24L4 24L4 22ZM21 22L21 23L18 23L18 24L17 24L17 23L16 23L16 24L17 24L17 25L18 25L18 24L20 24L20 25L21 25L21 26L23 26L23 24L21 24L21 23L22 23L22 22ZM26 23L26 24L27 24L27 23ZM15 26L15 27L14 27L14 28L15 28L15 27L16 27L16 26ZM30 26L30 27L31 27L31 26ZM22 27L22 29L21 29L21 30L22 30L22 29L26 29L26 28L25 28L25 27L24 27L24 28L23 28L23 27ZM35 27L35 28L36 28L36 27ZM9 29L9 30L10 30L10 31L9 31L9 33L10 33L10 34L11 34L11 33L12 33L12 32L10 32L10 31L11 31L11 29ZM13 29L13 30L14 30L14 29ZM29 29L29 32L32 32L32 29ZM33 29L33 33L34 33L34 34L33 34L33 36L34 36L34 34L35 34L35 35L36 35L36 33L35 33L35 31L36 31L36 30L34 30L34 29ZM23 30L23 32L24 32L24 33L25 33L25 32L26 32L26 30ZM30 30L30 31L31 31L31 30ZM17 34L17 36L18 36L18 37L21 37L21 36L19 36L19 34ZM23 35L23 36L24 36L24 35ZM0 0L0 7L7 7L7 0ZM1 1L1 6L6 6L6 1ZM2 2L2 5L5 5L5 2ZM30 0L30 7L37 7L37 0ZM31 1L31 6L36 6L36 1ZM32 2L32 5L35 5L35 2ZM0 30L0 37L7 37L7 30ZM1 31L1 36L6 36L6 31ZM2 32L2 35L5 35L5 32Z" fill="#000000"/></g></g></svg>
