<?xml version="1.0" encoding="UTF-8"?>
<svg xmlns="http://www.w3.org/2000/svg" version="1.1" width="300" height="300" viewBox="0 0 300 300"><rect x="0" y="0" width="300" height="300" fill="#ffffff"/><g transform="scale(8.571)"><g transform="translate(1,1)"><path fill-rule="evenodd" d="M13 0L13 2L11 2L11 3L10 3L10 2L8 2L8 8L9 8L9 10L8 10L8 12L5 12L5 13L4 13L4 11L5 11L5 10L4 10L4 9L7 9L7 8L2 8L2 9L3 9L3 10L4 10L4 11L2 11L2 10L1 10L1 8L0 8L0 10L1 10L1 11L0 11L0 17L2 17L2 18L1 18L1 19L0 19L0 20L1 20L1 21L0 21L0 25L1 25L1 22L2 22L2 18L3 18L3 17L4 17L4 19L3 19L3 24L2 24L2 25L3 25L3 24L4 24L4 25L5 25L5 24L4 24L4 23L7 23L7 22L8 22L8 24L6 24L6 25L8 25L8 26L9 26L9 27L8 27L8 31L9 31L9 32L8 32L8 33L10 33L10 32L11 32L11 31L13 31L13 30L14 30L14 28L15 28L15 30L17 30L17 31L16 31L16 33L18 33L18 32L17 32L17 31L18 31L18 30L21 30L21 32L22 32L22 33L23 33L23 31L22 31L22 30L26 30L26 31L25 31L25 32L24 32L24 33L26 33L26 31L28 31L28 32L27 32L27 33L28 33L28 32L29 32L29 33L30 33L30 32L31 32L31 33L32 33L32 32L31 32L31 30L33 30L33 27L32 27L32 26L33 26L33 24L32 24L32 26L31 26L31 25L30 25L30 24L31 24L31 23L32 23L32 22L33 22L33 21L32 21L32 19L31 19L31 17L30 17L30 16L31 16L31 15L32 15L32 14L33 14L33 11L32 11L32 10L33 10L33 9L31 9L31 8L26 8L26 10L28 10L28 13L25 13L25 15L24 15L24 16L25 16L25 18L27 18L27 20L28 20L28 21L25 21L25 19L22 19L22 18L24 18L24 17L23 17L23 15L22 15L22 13L23 13L23 14L24 14L24 13L23 13L23 12L22 12L22 11L23 11L23 10L24 10L24 11L25 11L25 10L24 10L24 9L25 9L25 5L24 5L24 4L25 4L25 3L24 3L24 4L23 4L23 1L24 1L24 0L23 0L23 1L22 1L22 0L18 0L18 1L21 1L21 3L22 3L22 4L23 4L23 5L21 5L21 4L19 4L19 5L18 5L18 3L17 3L17 2L16 2L16 1L17 1L17 0L16 0L16 1L14 1L14 0ZM14 2L14 3L11 3L11 4L12 4L12 5L13 5L13 7L12 7L12 6L11 6L11 5L10 5L10 3L9 3L9 5L10 5L10 6L9 6L9 8L14 8L14 9L13 9L13 12L11 12L11 11L12 11L12 10L10 10L10 11L9 11L9 13L8 13L8 14L7 14L7 13L6 13L6 14L7 14L7 15L5 15L5 21L4 21L4 22L5 22L5 21L6 21L6 22L7 22L7 21L9 21L9 23L10 23L10 24L11 24L11 25L12 25L12 26L10 26L10 25L9 25L9 26L10 26L10 27L9 27L9 29L10 29L10 28L11 28L11 27L12 27L12 30L13 30L13 28L14 28L14 26L16 26L16 27L15 27L15 28L16 28L16 29L18 29L18 28L19 28L19 29L21 29L21 30L22 30L22 28L21 28L21 27L20 27L20 26L18 26L18 25L20 25L20 22L18 22L18 23L16 23L16 25L15 25L15 23L14 23L14 22L15 22L15 21L14 21L14 22L13 22L13 21L12 21L12 20L16 20L16 19L14 19L14 18L17 18L17 16L19 16L19 17L22 17L22 16L21 16L21 14L19 14L19 15L18 15L18 13L19 13L19 11L20 11L20 10L19 10L19 11L18 11L18 10L16 10L16 9L15 9L15 8L14 8L14 5L15 5L15 4L14 4L14 3L16 3L16 2ZM19 2L19 3L20 3L20 2ZM16 4L16 5L17 5L17 7L16 7L16 6L15 6L15 7L16 7L16 8L18 8L18 9L20 9L20 8L21 8L21 11L22 11L22 10L23 10L23 9L24 9L24 8L23 8L23 9L22 9L22 8L21 8L21 7L22 7L22 6L21 6L21 5L19 5L19 7L18 7L18 5L17 5L17 4ZM23 5L23 7L24 7L24 5ZM10 6L10 7L11 7L11 6ZM20 6L20 7L19 7L19 8L20 8L20 7L21 7L21 6ZM28 9L28 10L29 10L29 11L30 11L30 10L29 10L29 9ZM6 10L6 11L7 11L7 10ZM15 10L15 11L14 11L14 12L15 12L15 11L16 11L16 12L17 12L17 13L14 13L14 14L13 14L13 13L11 13L11 15L10 15L10 14L8 14L8 15L7 15L7 16L6 16L6 17L7 17L7 16L8 16L8 15L9 15L9 17L8 17L8 18L6 18L6 19L7 19L7 20L6 20L6 21L7 21L7 20L8 20L8 18L11 18L11 19L9 19L9 20L10 20L10 22L12 22L12 25L13 25L13 26L12 26L12 27L13 27L13 26L14 26L14 25L13 25L13 22L12 22L12 21L11 21L11 20L12 20L12 18L13 18L13 17L15 17L15 16L13 16L13 17L11 17L11 16L12 16L12 15L15 15L15 14L17 14L17 13L18 13L18 12L17 12L17 11L16 11L16 10ZM21 12L21 13L22 13L22 12ZM30 12L30 13L28 13L28 16L29 16L29 14L30 14L30 15L31 15L31 14L30 14L30 13L31 13L31 12ZM1 14L1 16L2 16L2 17L3 17L3 16L2 16L2 14ZM3 14L3 15L4 15L4 14ZM16 15L16 16L17 16L17 15ZM19 15L19 16L20 16L20 15ZM26 16L26 17L27 17L27 16ZM32 16L32 18L33 18L33 16ZM28 17L28 18L29 18L29 19L30 19L30 18L29 18L29 17ZM18 18L18 19L17 19L17 20L18 20L18 21L22 21L22 22L21 22L21 23L22 23L22 24L21 24L21 26L23 26L23 25L22 25L22 24L25 24L25 23L27 23L27 22L25 22L25 21L24 21L24 20L20 20L20 19L21 19L21 18ZM18 19L18 20L19 20L19 19ZM30 20L30 21L31 21L31 22L29 22L29 21L28 21L28 24L30 24L30 23L31 23L31 22L32 22L32 21L31 21L31 20ZM16 21L16 22L17 22L17 21ZM23 21L23 22L22 22L22 23L23 23L23 22L24 22L24 21ZM18 23L18 24L17 24L17 25L16 25L16 26L17 26L17 25L18 25L18 24L19 24L19 23ZM25 25L25 28L28 28L28 25ZM29 25L29 27L30 27L30 25ZM26 26L26 27L27 27L27 26ZM19 27L19 28L20 28L20 27ZM23 28L23 29L24 29L24 28ZM30 28L30 29L29 29L29 30L28 30L28 29L26 29L26 30L28 30L28 31L29 31L29 32L30 32L30 29L31 29L31 28ZM10 30L10 31L11 31L11 30ZM19 31L19 32L20 32L20 31ZM12 32L12 33L14 33L14 32ZM0 0L0 7L7 7L7 0ZM1 1L1 6L6 6L6 1ZM2 2L2 5L5 5L5 2ZM26 0L26 7L33 7L33 0ZM27 1L27 6L32 6L32 1ZM28 2L28 5L31 5L31 2ZM0 26L0 33L7 33L7 26ZM1 27L1 32L6 32L6 27ZM2 28L2 31L5 31L5 28Z" fill="#000000"/></g></g></svg>
