<svg xmlns="http://www.w3.org/2000/svg" width="300" height="300" viewBox="0 0 300 300"><rect width="300" height="300" fill="white"/><rect x="0" y="0" width="12" height="12" fill="black"/><rect x="12" y="0" width="12" height="12" fill="black"/><rect x="24" y="0" width="12" height="12" fill="black"/><rect x="36" y="0" width="12" height="12" fill="black"/><rect x="48" y="0" width="12" height="12" fill="black"/><rect x="60" y="0" width="12" height="12" fill="black"/><rect x="72" y="0" width="12" height="12" fill="black"/><rect x="216" y="0" width="12" height="12" fill="black"/><rect x="228" y="0" width="12" height="12" fill="black"/><rect x="240" y="0" width="12" height="12" fill="black"/><rect x="252" y="0" width="12" height="12" fill="black"/><rect x="264" y="0" width="12" height="12" fill="black"/><rect x="276" y="0" width="12" height="12" fill="black"/><rect x="288" y="0" width="12" height="12" fill="black"/><rect x="0" y="12" width="12" height="12" fill="black"/><rect x="72" y="12" width="12" height="12" fill="black"/><rect x="216" y="12" width="12" height="12" fill="black"/><rect x="288" y="12" width="12" height="12" fill="black"/><rect x="0" y="24" width="12" height="12" fill="black"/><rect x="24" y="24" width="12" height="12" fill="black"/><rect x="36" y="24" width="12" height="12" fill="black"/><rect x="48" y="24" width="12" height="12" fill="black"/><rect x="72" y="24" width="12" height="12" fill="black"/><rect x="108" y="24" width="12" height="12" fill="black"/><rect x="156" y="24" width="12" height="12" fill="black"/><rect x="168" y="24" width="12" height="12" fill="black"/><rect x="180" y="24" width="12" height="12" fill="black"/><rect x="216" y="24" width="12" height="12" fill="black"/><rect x="240" y="24" width="12" height="12" fill="black"/><rect x="252" y="24" width="12" height="12" fill="black"/><rect x="264" y="24" width="12" height="12" fill="black"/><rect x="288" y="24" width="12" height="12" fill="black"/><rect x="0" y="36" width="12" height="12" fill="black"/><rect x="24" y="36" width="12" height="12" fill="black"/><rect x="36" y="36" width="12" height="12" fill="black"/><rect x="48" y="36" width="12" height="12" fill="black"/><rect x="72" y="36" width="12" height="12" fill="black"/><rect x="108" y="36" width="12" height="12" fill="black"/><rect x="132" y="36" width="12" height="12" fill="black"/><rect x="144" y="36" width="12" height="12" fill="black"/><rect x="156" y="36" width="12" height="12" fill="black"/><rect x="168" y="36" width="12" height="12" fill="black"/><rect x="180" y="36" width="12" height="12" fill="black"/><rect x="216" y="36" width="12" height="12" fill="black"/><rect x="240" y="36" width="12" height="12" fill="black"/><rect x="252" y="36" width="12" height="12" fill="black"/><rect x="264" y="36" width="12" height="12" fill="black"/><rect x="288" y="36" width="12" height="12" fill="black"/><rect x="0" y="48" width="12" height="12" fill="black"/><rect x="24" y="48" width="12" height="12" fill="black"/><rect x="36" y="48" width="12" height="12" fill="black"/><rect x="48" y="48" width="12" height="12" fill="black"/><rect x="72" y="48" width="12" height="12" fill="black"/><rect x="132" y="48" width="12" height="12" fill="black"/><rect x="144" y="48" width="12" height="12" fill="black"/><rect x="156" y="48" width="12" height="12" fill="black"/><rect x="168" y="48" width="12" height="12" fill="black"/><rect x="180" y="48" width="12" height="12" fill="black"/><rect x="216" y="48" width="12" height="12" fill="black"/><rect x="240" y="48" width="12" height="12" fill="black"/><rect x="252" y="48" width="12" height="12" fill="black"/><rect x="264" y="48" width="12" height="12" fill="black"/><rect x="288" y="48" width="12" height="12" fill="black"/><rect x="0" y="60" width="12" height="12" fill="black"/><rect x="72" y="60" width="12" height="12" fill="black"/><rect x="108" y="60" width="12" height="12" fill="black"/><rect x="132" y="60" width="12" height="12" fill="black"/><rect x="180" y="60" width="12" height="12" fill="black"/><rect x="216" y="60" width="12" height="12" fill="black"/><rect x="288" y="60" width="12" height="12" fill="black"/><rect x="0" y="72" width="12" height="12" fill="black"/><rect x="12" y="72" width="12" height="12" fill="black"/><rect x="24" y="72" width="12" height="12" fill="black"/><rect x="36" y="72" width="12" height="12" fill="black"/><rect x="48" y="72" width="12" height="12" fill="black"/><rect x="60" y="72" width="12" height="12" fill="black"/><rect x="72" y="72" width="12" height="12" fill="black"/><rect x="132" y="72" width="12" height="12" fill="black"/><rect x="156" y="72" width="12" height="12" fill="black"/><rect x="180" y="72" width="12" height="12" fill="black"/><rect x="216" y="72" width="12" height="12" fill="black"/><rect x="228" y="72" width="12" height="12" fill="black"/><rect x="240" y="72" width="12" height="12" fill="black"/><rect x="252" y="72" width="12" height="12" fill="black"/><rect x="264" y="72" width="12" height="12" fill="black"/><rect x="276" y="72" width="12" height="12" fill="black"/><rect x="288" y="72" width="12" height="12" fill="black"/><rect x="120" y="84" width="12" height="12" fill="black"/><rect x="132" y="84" width="12" height="12" fill="black"/><rect x="144" y="84" width="12" height="12" fill="black"/><rect x="156" y="84" width="12" height="12" fill="black"/><rect x="180" y="84" width="12" height="12" fill="black"/><rect x="108" y="96" width="12" height="12" fill="black"/><rect x="120" y="96" width="12" height="12" fill="black"/><rect x="132" y="96" width="12" height="12" fill="black"/><rect x="144" y="96" width="12" height="12" fill="black"/><rect x="60" y="108" width="12" height="12" fill="black"/><rect x="84" y="108" width="12" height="12" fill="black"/><rect x="120" y="108" width="12" height="12" fill="black"/><rect x="132" y="108" width="12" height="12" fill="black"/><rect x="156" y="108" width="12" height="12" fill="black"/><rect x="168" y="108" width="12" height="12" fill="black"/><rect x="180" y="108" width="12" height="12" fill="black"/><rect x="204" y="108" width="12" height="12" fill="black"/><rect x="252" y="108" width="12" height="12" fill="black"/><rect x="264" y="108" width="12" height="12" fill="black"/><rect x="24" y="120" width="12" height="12" fill="black"/><rect x="36" y="120" width="12" height="12" fill="black"/><rect x="60" y="120" width="12" height="12" fill="black"/><rect x="72" y="120" width="12" height="12" fill="black"/><rect x="84" y="120" width="12" height="12" fill="black"/><rect x="96" y="120" width="12" height="12" fill="black"/><rect x="108" y="120" width="12" height="12" fill="black"/><rect x="144" y="120" width="12" height="12" fill="black"/><rect x="156" y="120" width="12" height="12" fill="black"/><rect x="168" y="120" width="12" height="12" fill="black"/><rect x="180" y="120" width="12" height="12" fill="black"/><rect x="192" y="120" width="12" height="12" fill="black"/><rect x="204" y="120" width="12" height="12" fill="black"/><rect x="228" y="120" width="12" height="12" fill="black"/><rect x="24" y="132" width="12" height="12" fill="black"/><rect x="60" y="132" width="12" height="12" fill="black"/><rect x="84" y="132" width="12" height="12" fill="black"/><rect x="108" y="132" width="12" height="12" fill="black"/><rect x="132" y="132" width="12" height="12" fill="black"/><rect x="144" y="132" width="12" height="12" fill="black"/><rect x="156" y="132" width="12" height="12" fill="black"/><rect x="168" y="132" width="12" height="12" fill="black"/><rect x="192" y="132" width="12" height="12" fill="black"/><rect x="204" y="132" width="12" height="12" fill="black"/><rect x="216" y="132" width="12" height="12" fill="black"/><rect x="228" y="132" width="12" height="12" fill="black"/><rect x="240" y="132" width="12" height="12" fill="black"/><rect x="72" y="144" width="12" height="12" fill="black"/><rect x="96" y="144" width="12" height="12" fill="black"/><rect x="132" y="144" width="12" height="12" fill="black"/><rect x="144" y="144" width="12" height="12" fill="black"/><rect x="168" y="144" width="12" height="12" fill="black"/><rect x="180" y="144" width="12" height="12" fill="black"/><rect x="192" y="144" width="12" height="12" fill="black"/><rect x="216" y="144" width="12" height="12" fill="black"/><rect x="264" y="144" width="12" height="12" fill="black"/><rect x="24" y="156" width="12" height="12" fill="black"/><rect x="36" y="156" width="12" height="12" fill="black"/><rect x="48" y="156" width="12" height="12" fill="black"/><rect x="72" y="156" width="12" height="12" fill="black"/><rect x="84" y="156" width="12" height="12" fill="black"/><rect x="96" y="156" width="12" height="12" fill="black"/><rect x="108" y="156" width="12" height="12" fill="black"/><rect x="120" y="156" width="12" height="12" fill="black"/><rect x="156" y="156" width="12" height="12" fill="black"/><rect x="168" y="156" width="12" height="12" fill="black"/><rect x="180" y="156" width="12" height="12" fill="black"/><rect x="192" y="156" width="12" height="12" fill="black"/><rect x="204" y="156" width="12" height="12" fill="black"/><rect x="216" y="156" width="12" height="12" fill="black"/><rect x="240" y="156" width="12" height="12" fill="black"/><rect x="36" y="168" width="12" height="12" fill="black"/><rect x="72" y="168" width="12" height="12" fill="black"/><rect x="96" y="168" width="12" height="12" fill="black"/><rect x="120" y="168" width="12" height="12" fill="black"/><rect x="144" y="168" width="12" height="12" fill="black"/><rect x="156" y="168" width="12" height="12" fill="black"/><rect x="168" y="168" width="12" height="12" fill="black"/><rect x="180" y="168" width="12" height="12" fill="black"/><rect x="204" y="168" width="12" height="12" fill="black"/><rect x="216" y="168" width="12" height="12" fill="black"/><rect x="228" y="168" width="12" height="12" fill="black"/><rect x="240" y="168" width="12" height="12" fill="black"/><rect x="252" y="168" width="12" height="12" fill="black"/><rect x="84" y="180" width="12" height="12" fill="black"/><rect x="108" y="180" width="12" height="12" fill="black"/><rect x="144" y="180" width="12" height="12" fill="black"/><rect x="156" y="180" width="12" height="12" fill="black"/><rect x="180" y="180" width="12" height="12" fill="black"/><rect x="192" y="180" width="12" height="12" fill="black"/><rect x="204" y="180" width="12" height="12" fill="black"/><rect x="228" y="180" width="12" height="12" fill="black"/><rect x="108" y="192" width="12" height="12" fill="black"/><rect x="120" y="192" width="12" height="12" fill="black"/><rect x="132" y="192" width="12" height="12" fill="black"/><rect x="144" y="192" width="12" height="12" fill="black"/><rect x="168" y="192" width="12" height="12" fill="black"/><rect x="180" y="192" width="12" height="12" fill="black"/><rect x="192" y="192" width="12" height="12" fill="black"/><rect x="204" y="192" width="12" height="12" fill="black"/><rect x="216" y="192" width="12" height="12" fill="black"/><rect x="252" y="192" width="12" height="12" fill="black"/><rect x="264" y="192" width="12" height="12" fill="black"/><rect x="108" y="204" width="12" height="12" fill="black"/><rect x="120" y="204" width="12" height="12" fill="black"/><rect x="132" y="204" width="12" height="12" fill="black"/><rect x="144" y="204" width="12" height="12" fill="black"/><rect x="168" y="204" width="12" height="12" fill="black"/><rect x="216" y="204" width="12" height="12" fill="black"/><rect x="252" y="204" width="12" height="12" fill="black"/><rect x="0" y="216" width="12" height="12" fill="black"/><rect x="12" y="216" width="12" height="12" fill="black"/><rect x="24" y="216" width="12" height="12" fill="black"/><rect x="36" y="216" width="12" height="12" fill="black"/><rect x="48" y="216" width="12" height="12" fill="black"/><rect x="60" y="216" width="12" height="12" fill="black"/><rect x="72" y="216" width="12" height="12" fill="black"/><rect x="108" y="216" width="12" height="12" fill="black"/><rect x="132" y="216" width="12" height="12" fill="black"/><rect x="156" y="216" width="12" height="12" fill="black"/><rect x="168" y="216" width="12" height="12" fill="black"/><rect x="180" y="216" width="12" height="12" fill="black"/><rect x="192" y="216" width="12" height="12" fill="black"/><rect x="216" y="216" width="12" height="12" fill="black"/><rect x="228" y="216" width="12" height="12" fill="black"/><rect x="240" y="216" width="12" height="12" fill="black"/><rect x="252" y="216" width="12" height="12" fill="black"/><rect x="264" y="216" width="12" height="12" fill="black"/><rect x="0" y="228" width="12" height="12" fill="black"/><rect x="72" y="228" width="12" height="12" fill="black"/><rect x="180" y="228" width="12" height="12" fill="black"/><rect x="204" y="228" width="12" height="12" fill="black"/><rect x="240" y="228" width="12" height="12" fill="black"/><rect x="252" y="228" width="12" height="12" fill="black"/><rect x="0" y="240" width="12" height="12" fill="black"/><rect x="24" y="240" width="12" height="12" fill="black"/><rect x="36" y="240" width="12" height="12" fill="black"/><rect x="48" y="240" width="12" height="12" fill="black"/><rect x="72" y="240" width="12" height="12" fill="black"/><rect x="108" y="240" width="12" height="12" fill="black"/><rect x="120" y="240" width="12" height="12" fill="black"/><rect x="132" y="240" width="12" height="12" fill="black"/><rect x="156" y="240" width="12" height="12" fill="black"/><rect x="204" y="240" width="12" height="12" fill="black"/><rect x="216" y="240" width="12" height="12" fill="black"/><rect x="228" y="240" width="12" height="12" fill="black"/><rect x="240" y="240" width="12" height="12" fill="black"/><rect x="264" y="240" width="12" height="12" fill="black"/><rect x="0" y="252" width="12" height="12" fill="black"/><rect x="24" y="252" width="12" height="12" fill="black"/><rect x="36" y="252" width="12" height="12" fill="black"/><rect x="48" y="252" width="12" height="12" fill="black"/><rect x="72" y="252" width="12" height="12" fill="black"/><rect x="108" y="252" width="12" height="12" fill="black"/><rect x="120" y="252" width="12" height="12" fill="black"/><rect x="132" y="252" width="12" height="12" fill="black"/><rect x="144" y="252" width="12" height="12" fill="black"/><rect x="180" y="252" width="12" height="12" fill="black"/><rect x="192" y="252" width="12" height="12" fill="black"/><rect x="204" y="252" width="12" height="12" fill="black"/><rect x="216" y="252" width="12" height="12" fill="black"/><rect x="228" y="252" width="12" height="12" fill="black"/><rect x="240" y="252" width="12" height="12" fill="black"/><rect x="264" y="252" width="12" height="12" fill="black"/><rect x="0" y="264" width="12" height="12" fill="black"/><rect x="24" y="264" width="12" height="12" fill="black"/><rect x="36" y="264" width="12" height="12" fill="black"/><rect x="48" y="264" width="12" height="12" fill="black"/><rect x="72" y="264" width="12" height="12" fill="black"/><rect x="144" y="264" width="12" height="12" fill="black"/><rect x="180" y="264" width="12" height="12" fill="black"/><rect x="204" y="264" width="12" height="12" fill="black"/><rect x="228" y="264" width="12" height="12" fill="black"/><rect x="252" y="264" width="12" height="12" fill="black"/><rect x="264" y="264" width="12" height="12" fill="black"/><rect x="0" y="276" width="12" height="12" fill="black"/><rect x="72" y="276" width="12" height="12" fill="black"/><rect x="0" y="288" width="12" height="12" fill="black"/><rect x="12" y="288" width="12" height="12" fill="black"/><rect x="24" y="288" width="12" height="12" fill="black"/><rect x="36" y="288" width="12" height="12" fill="black"/><rect x="48" y="288" width="12" height="12" fill="black"/><rect x="60" y="288" width="12" height="12" fill="black"/><rect x="72" y="288" width="12" height="12" fill="black"/></svg>