<?xml version="1.0" encoding="UTF-8"?>
<svg xmlns="http://www.w3.org/2000/svg" version="1.1" width="300" height="300" viewBox="0 0 300 300"><rect x="0" y="0" width="300" height="300" fill="#ffffff"/><g transform="scale(10.345)"><g transform="translate(0,0)"><path fill-rule="evenodd" d="M8 0L8 1L10 1L10 0ZM13 0L13 2L11 2L11 4L10 4L10 3L9 3L9 2L8 2L8 5L9 5L9 6L8 6L8 7L9 7L9 8L8 8L8 9L7 9L7 8L6 8L6 9L7 9L7 10L6 10L6 11L7 11L7 12L6 12L6 13L4 13L4 12L5 12L5 11L4 11L4 10L5 10L5 9L4 9L4 8L0 8L0 9L1 9L1 10L0 10L0 11L4 11L4 12L3 12L3 13L2 13L2 12L0 12L0 13L1 13L1 14L0 14L0 17L1 17L1 16L2 16L2 18L3 18L3 19L2 19L2 20L1 20L1 21L2 21L2 20L3 20L3 19L4 19L4 20L6 20L6 21L8 21L8 22L9 22L9 20L10 20L10 22L11 22L11 23L10 23L10 24L9 24L9 25L8 25L8 29L10 29L10 27L11 27L11 26L10 26L10 24L12 24L12 21L13 21L13 19L10 19L10 18L14 18L14 21L15 21L15 20L16 20L16 18L17 18L17 17L16 17L16 16L17 16L17 15L18 15L18 16L19 16L19 15L20 15L20 14L21 14L21 15L22 15L22 16L21 16L21 19L20 19L20 21L19 21L19 24L17 24L17 23L18 23L18 22L17 22L17 23L16 23L16 24L15 24L15 23L13 23L13 25L12 25L12 26L13 26L13 27L12 27L12 28L11 28L11 29L14 29L14 28L16 28L16 29L17 29L17 28L16 28L16 27L17 27L17 26L19 26L19 27L18 27L18 28L20 28L20 29L21 29L21 27L22 27L22 25L23 25L23 28L24 28L24 29L25 29L25 28L26 28L26 25L27 25L27 26L28 26L28 27L27 27L27 29L28 29L28 27L29 27L29 25L28 25L28 24L29 24L29 23L28 23L28 22L29 22L29 21L27 21L27 18L28 18L28 15L29 15L29 13L27 13L27 12L26 12L26 11L28 11L28 12L29 12L29 11L28 11L28 10L29 10L29 8L28 8L28 10L26 10L26 11L24 11L24 10L25 10L25 9L27 9L27 8L24 8L24 9L22 9L22 8L21 8L21 6L20 6L20 5L21 5L21 4L20 4L20 3L21 3L21 2L20 2L20 3L19 3L19 1L21 1L21 0L18 0L18 1L17 1L17 0L16 0L16 2L18 2L18 3L17 3L17 4L16 4L16 3L14 3L14 0ZM12 4L12 5L10 5L10 6L9 6L9 7L10 7L10 8L9 8L9 9L10 9L10 10L7 10L7 11L9 11L9 12L8 12L8 13L6 13L6 14L5 14L5 15L4 15L4 13L3 13L3 16L5 16L5 17L6 17L6 18L7 18L7 17L6 17L6 16L7 16L7 15L6 15L6 14L10 14L10 16L12 16L12 17L13 17L13 16L14 16L14 18L15 18L15 16L14 16L14 15L12 15L12 12L13 12L13 9L14 9L14 11L15 11L15 12L14 12L14 13L15 13L15 12L16 12L16 13L17 13L17 12L18 12L18 13L20 13L20 12L21 12L21 14L22 14L22 15L23 15L23 16L22 16L22 19L23 19L23 16L24 16L24 15L25 15L25 17L24 17L24 20L26 20L26 19L25 19L25 18L26 18L26 17L27 17L27 15L25 15L25 14L27 14L27 13L25 13L25 12L22 12L22 10L21 10L21 9L20 9L20 10L19 10L19 9L17 9L17 8L15 8L15 9L14 9L14 6L13 6L13 7L12 7L12 5L15 5L15 7L16 7L16 5L15 5L15 4ZM17 4L17 5L19 5L19 4ZM10 6L10 7L11 7L11 8L12 8L12 7L11 7L11 6ZM17 6L17 7L18 7L18 6ZM19 6L19 8L20 8L20 6ZM3 9L3 10L4 10L4 9ZM11 9L11 12L12 12L12 9ZM16 9L16 11L17 11L17 9ZM20 10L20 11L18 11L18 12L20 12L20 11L21 11L21 10ZM9 12L9 13L10 13L10 14L11 14L11 13L10 13L10 12ZM22 13L22 14L23 14L23 15L24 15L24 14L23 14L23 13ZM1 14L1 15L2 15L2 14ZM15 14L15 15L17 15L17 14ZM5 15L5 16L6 16L6 15ZM3 17L3 18L4 18L4 17ZM8 17L8 18L9 18L9 17ZM18 17L18 19L17 19L17 21L18 21L18 19L19 19L19 17ZM0 18L0 19L1 19L1 18ZM6 19L6 20L9 20L9 19ZM11 20L11 21L12 21L12 20ZM21 21L21 24L24 24L24 21ZM22 22L22 23L23 23L23 22ZM26 22L26 23L25 23L25 25L26 25L26 24L27 24L27 22ZM14 24L14 25L15 25L15 24ZM19 24L19 26L21 26L21 25L20 25L20 24ZM16 25L16 26L15 26L15 27L16 27L16 26L17 26L17 25ZM9 26L9 27L10 27L10 26ZM24 26L24 28L25 28L25 26ZM13 27L13 28L14 28L14 27ZM0 0L0 7L7 7L7 0ZM1 1L1 6L6 6L6 1ZM2 2L2 5L5 5L5 2ZM22 0L22 7L29 7L29 0ZM23 1L23 6L28 6L28 1ZM24 2L24 5L27 5L27 2ZM0 22L0 29L7 29L7 22ZM1 23L1 28L6 28L6 23ZM2 24L2 27L5 27L5 24Z" fill="#000000"/></g></g></svg>
