<?xml version="1.0" encoding="UTF-8"?>
<svg xmlns="http://www.w3.org/2000/svg" version="1.1" width="300" height="300" viewBox="0 0 300 300"><rect x="0" y="0" width="300" height="300" fill="#ffffff"/><g transform="scale(8.571)"><g transform="translate(1,1)"><path fill-rule="evenodd" d="M11 0L11 1L9 1L9 2L8 2L8 8L9 8L9 5L11 5L11 4L9 4L9 3L10 3L10 2L11 2L11 3L12 3L12 4L13 4L13 3L14 3L14 4L15 4L15 5L14 5L14 8L12 8L12 7L13 7L13 5L12 5L12 7L11 7L11 6L10 6L10 9L9 9L9 10L8 10L8 12L5 12L5 13L7 13L7 14L6 14L6 15L3 15L3 14L4 14L4 13L3 13L3 14L2 14L2 15L1 15L1 14L0 14L0 17L1 17L1 19L4 19L4 20L3 20L3 21L2 21L2 22L3 22L3 23L2 23L2 24L3 24L3 25L8 25L8 26L9 26L9 27L8 27L8 31L9 31L9 32L8 32L8 33L12 33L12 32L14 32L14 33L15 33L15 32L14 32L14 31L15 31L15 30L17 30L17 31L16 31L16 33L18 33L18 32L17 32L17 31L18 31L18 29L19 29L19 30L20 30L20 32L19 32L19 33L20 33L20 32L22 32L22 33L23 33L23 31L22 31L22 30L20 30L20 29L21 29L21 28L24 28L24 29L23 29L23 30L26 30L26 31L28 31L28 32L27 32L27 33L28 33L28 32L29 32L29 33L30 33L30 32L31 32L31 33L32 33L32 32L31 32L31 30L33 30L33 27L32 27L32 26L33 26L33 25L32 25L32 26L31 26L31 25L30 25L30 24L31 24L31 23L32 23L32 24L33 24L33 23L32 23L32 22L33 22L33 21L32 21L32 19L31 19L31 17L30 17L30 16L31 16L31 15L32 15L32 14L33 14L33 11L32 11L32 10L33 10L33 9L31 9L31 8L26 8L26 10L28 10L28 13L25 13L25 18L27 18L27 20L28 20L28 21L25 21L25 19L23 19L23 18L24 18L24 17L23 17L23 15L22 15L22 14L24 14L24 13L23 13L23 12L22 12L22 11L23 11L23 10L24 10L24 11L25 11L25 10L24 10L24 9L25 9L25 8L24 8L24 7L25 7L25 5L24 5L24 4L25 4L25 3L24 3L24 4L23 4L23 1L24 1L24 0L23 0L23 1L22 1L22 0L16 0L16 1L14 1L14 0ZM16 1L16 2L14 2L14 3L16 3L16 2L17 2L17 1ZM18 1L18 2L20 2L20 3L17 3L17 4L16 4L16 5L17 5L17 7L16 7L16 6L15 6L15 7L16 7L16 8L18 8L18 9L17 9L17 10L16 10L16 9L15 9L15 8L14 8L14 9L11 9L11 10L12 10L12 11L11 11L11 12L10 12L10 11L9 11L9 12L10 12L10 14L12 14L12 15L11 15L11 16L9 16L9 17L10 17L10 18L8 18L8 20L7 20L7 19L6 19L6 20L7 20L7 21L6 21L6 22L7 22L7 23L6 23L6 24L9 24L9 23L8 23L8 22L7 22L7 21L8 21L8 20L9 20L9 21L10 21L10 25L9 25L9 26L10 26L10 27L9 27L9 29L12 29L12 30L11 30L11 31L10 31L10 30L9 30L9 31L10 31L10 32L12 32L12 31L14 31L14 30L15 30L15 28L16 28L16 29L18 29L18 28L19 28L19 29L20 29L20 28L21 28L21 27L22 27L22 26L23 26L23 25L22 25L22 24L25 24L25 23L27 23L27 22L25 22L25 21L24 21L24 20L23 20L23 19L22 19L22 20L20 20L20 19L21 19L21 18L18 18L18 19L19 19L19 20L17 20L17 21L16 21L16 22L17 22L17 21L19 21L19 22L18 22L18 23L16 23L16 25L15 25L15 24L14 24L14 25L13 25L13 23L15 23L15 21L14 21L14 20L16 20L16 19L12 19L12 18L11 18L11 17L12 17L12 16L13 16L13 15L14 15L14 17L13 17L13 18L17 18L17 16L19 16L19 15L18 15L18 14L20 14L20 15L21 15L21 14L20 14L20 13L22 13L22 12L20 12L20 13L18 13L18 12L19 12L19 11L20 11L20 10L19 10L19 11L18 11L18 9L20 9L20 8L21 8L21 11L22 11L22 10L23 10L23 9L24 9L24 8L23 8L23 9L22 9L22 8L21 8L21 7L22 7L22 6L21 6L21 7L20 7L20 5L23 5L23 7L24 7L24 5L23 5L23 4L22 4L22 3L21 3L21 1ZM20 3L20 4L21 4L21 3ZM17 4L17 5L18 5L18 7L19 7L19 4ZM0 8L0 13L2 13L2 11L7 11L7 10L6 10L6 9L7 9L7 8L2 8L2 10L1 10L1 8ZM3 9L3 10L4 10L4 9ZM28 9L28 10L29 10L29 11L30 11L30 10L29 10L29 9ZM15 10L15 11L14 11L14 12L15 12L15 11L16 11L16 12L17 12L17 11L16 11L16 10ZM11 12L11 13L12 13L12 14L14 14L14 15L15 15L15 14L17 14L17 13L13 13L13 12ZM30 12L30 13L28 13L28 16L29 16L29 14L30 14L30 15L31 15L31 14L30 14L30 13L31 13L31 12ZM7 14L7 15L6 15L6 16L4 16L4 18L7 18L7 17L8 17L8 16L7 16L7 15L8 15L8 14ZM2 15L2 16L3 16L3 15ZM16 15L16 16L17 16L17 15ZM6 16L6 17L7 17L7 16ZM20 16L20 17L22 17L22 16ZM26 16L26 17L27 17L27 16ZM32 16L32 18L33 18L33 16ZM28 17L28 18L29 18L29 19L30 19L30 18L29 18L29 17ZM10 18L10 19L11 19L11 18ZM0 20L0 25L1 25L1 20ZM4 20L4 21L5 21L5 20ZM11 20L11 21L13 21L13 22L14 22L14 21L13 21L13 20ZM22 20L22 21L21 21L21 22L20 22L20 23L21 23L21 24L20 24L20 25L18 25L18 24L19 24L19 23L18 23L18 24L17 24L17 25L16 25L16 26L15 26L15 27L16 27L16 26L17 26L17 25L18 25L18 27L19 27L19 28L20 28L20 27L21 27L21 24L22 24L22 23L23 23L23 22L24 22L24 21L23 21L23 20ZM30 20L30 21L31 21L31 22L29 22L29 21L28 21L28 24L30 24L30 23L31 23L31 22L32 22L32 21L31 21L31 20ZM22 21L22 22L21 22L21 23L22 23L22 22L23 22L23 21ZM10 25L10 26L11 26L11 27L12 27L12 26L11 26L11 25ZM25 25L25 28L28 28L28 25ZM29 25L29 27L30 27L30 25ZM13 26L13 28L14 28L14 26ZM19 26L19 27L20 27L20 26ZM26 26L26 27L27 27L27 26ZM30 28L30 29L29 29L29 30L28 30L28 29L26 29L26 30L28 30L28 31L29 31L29 32L30 32L30 29L31 29L31 28ZM13 29L13 30L14 30L14 29ZM24 32L24 33L26 33L26 32ZM0 0L0 7L7 7L7 0ZM1 1L1 6L6 6L6 1ZM2 2L2 5L5 5L5 2ZM26 0L26 7L33 7L33 0ZM27 1L27 6L32 6L32 1ZM28 2L28 5L31 5L31 2ZM0 26L0 33L7 33L7 26ZM1 27L1 32L6 32L6 27ZM2 28L2 31L5 31L5 28Z" fill="#000000"/></g></g></svg>
