<?xml version="1.0" encoding="UTF-8"?>
<svg xmlns="http://www.w3.org/2000/svg" version="1.1" width="300" height="300" viewBox="0 0 300 300"><rect x="0" y="0" width="300" height="300" fill="#ffffff"/><g transform="scale(8.571)"><g transform="translate(1,1)"><path fill-rule="evenodd" d="M11 0L11 1L9 1L9 2L8 2L8 8L10 8L10 7L11 7L11 8L12 8L12 9L11 9L11 10L10 10L10 9L7 9L7 8L2 8L2 10L1 10L1 8L0 8L0 10L1 10L1 11L0 11L0 12L2 12L2 14L3 14L3 15L2 15L2 16L0 16L0 18L1 18L1 21L0 21L0 25L1 25L1 21L2 21L2 20L3 20L3 18L4 18L4 17L5 17L5 16L6 16L6 17L7 17L7 18L6 18L6 19L7 19L7 18L8 18L8 22L5 22L5 25L8 25L8 26L9 26L9 27L8 27L8 31L10 31L10 32L11 32L11 31L10 31L10 30L9 30L9 27L11 27L11 26L10 26L10 24L12 24L12 23L13 23L13 24L15 24L15 25L13 25L13 26L15 26L15 27L14 27L14 28L13 28L13 27L12 27L12 28L11 28L11 30L12 30L12 28L13 28L13 29L15 29L15 30L17 30L17 31L16 31L16 33L18 33L18 32L17 32L17 31L19 31L19 33L21 33L21 32L22 32L22 31L20 31L20 30L21 30L21 29L22 29L22 30L23 30L23 33L26 33L26 32L24 32L24 31L27 31L27 33L29 33L29 32L31 32L31 33L32 33L32 32L31 32L31 29L30 29L30 28L31 28L31 26L33 26L33 24L31 24L31 23L32 23L32 22L33 22L33 21L32 21L32 20L33 20L33 19L32 19L32 20L31 20L31 17L30 17L30 16L31 16L31 15L32 15L32 14L33 14L33 12L32 12L32 10L33 10L33 9L32 9L32 10L31 10L31 8L26 8L26 9L25 9L25 8L24 8L24 9L23 9L23 10L24 10L24 12L27 12L27 13L26 13L26 14L27 14L27 15L28 15L28 14L27 14L27 13L29 13L29 16L27 16L27 17L24 17L24 16L23 16L23 17L22 17L22 19L23 19L23 20L20 20L20 21L21 21L21 22L20 22L20 23L21 23L21 24L20 24L20 25L19 25L19 26L18 26L18 27L19 27L19 26L20 26L20 25L21 25L21 29L20 29L20 28L18 28L18 29L20 29L20 30L17 30L17 29L16 29L16 28L17 28L17 27L16 27L16 26L15 26L15 25L18 25L18 24L16 24L16 23L18 23L18 22L19 22L19 21L17 21L17 20L19 20L19 19L18 19L18 18L20 18L20 17L21 17L21 16L22 16L22 15L23 15L23 14L25 14L25 13L22 13L22 12L23 12L23 11L22 11L22 9L21 9L21 8L22 8L22 7L23 7L23 6L22 6L22 4L24 4L24 7L25 7L25 3L24 3L24 2L25 2L25 0L22 0L22 2L23 2L23 3L20 3L20 4L21 4L21 5L20 5L20 7L21 7L21 8L20 8L20 9L18 9L18 8L16 8L16 7L17 7L17 6L18 6L18 7L19 7L19 6L18 6L18 5L19 5L19 4L17 4L17 3L19 3L19 2L18 2L18 1L20 1L20 0L17 0L17 3L16 3L16 1L15 1L15 0ZM11 1L11 3L10 3L10 2L9 2L9 4L10 4L10 5L9 5L9 7L10 7L10 5L11 5L11 7L12 7L12 6L13 6L13 8L14 8L14 9L12 9L12 11L11 11L11 13L10 13L10 14L9 14L9 17L8 17L8 18L11 18L11 17L12 17L12 18L13 18L13 19L15 19L15 18L16 18L16 20L17 20L17 17L16 17L16 15L17 15L17 16L19 16L19 14L20 14L20 15L22 15L22 13L21 13L21 9L20 9L20 10L19 10L19 11L18 11L18 9L15 9L15 7L16 7L16 6L15 6L15 4L14 4L14 3L15 3L15 2L14 2L14 3L13 3L13 1ZM23 1L23 2L24 2L24 1ZM11 4L11 5L13 5L13 4ZM16 4L16 5L17 5L17 4ZM14 6L14 7L15 7L15 6ZM21 6L21 7L22 7L22 6ZM3 9L3 10L2 10L2 11L3 11L3 10L4 10L4 9ZM5 9L5 12L7 12L7 13L6 13L6 14L5 14L5 13L4 13L4 12L3 12L3 14L5 14L5 15L6 15L6 16L8 16L8 14L7 14L7 13L8 13L8 12L10 12L10 11L9 11L9 10L7 10L7 9ZM14 9L14 10L15 10L15 11L14 11L14 12L15 12L15 13L11 13L11 14L10 14L10 15L11 15L11 16L10 16L10 17L11 17L11 16L12 16L12 17L13 17L13 16L14 16L14 15L12 15L12 14L17 14L17 13L16 13L16 10L15 10L15 9ZM28 9L28 10L27 10L27 12L28 12L28 10L29 10L29 11L30 11L30 10L29 10L29 9ZM6 10L6 11L7 11L7 12L8 12L8 11L7 11L7 10ZM18 12L18 13L19 13L19 12ZM30 12L30 13L31 13L31 12ZM20 13L20 14L21 14L21 13ZM0 14L0 15L1 15L1 14ZM6 14L6 15L7 15L7 14ZM3 15L3 17L1 17L1 18L3 18L3 17L4 17L4 15ZM25 15L25 16L26 16L26 15ZM32 16L32 18L33 18L33 16ZM14 17L14 18L15 18L15 17ZM28 17L28 18L27 18L27 19L26 19L26 21L27 21L27 22L25 22L25 24L26 24L26 23L27 23L27 24L28 24L28 23L27 23L27 22L29 22L29 23L31 23L31 22L32 22L32 21L31 21L31 20L30 20L30 21L31 21L31 22L29 22L29 21L28 21L28 18L29 18L29 19L30 19L30 18L29 18L29 17ZM23 18L23 19L24 19L24 20L25 20L25 19L24 19L24 18ZM9 19L9 21L12 21L12 22L13 22L13 23L15 23L15 21L14 21L14 20L13 20L13 21L12 21L12 19ZM5 20L5 21L7 21L7 20ZM3 21L3 22L2 22L2 25L3 25L3 24L4 24L4 23L3 23L3 22L4 22L4 21ZM13 21L13 22L14 22L14 21ZM16 21L16 22L17 22L17 21ZM22 21L22 23L24 23L24 22L23 22L23 21ZM9 22L9 24L10 24L10 22ZM6 23L6 24L8 24L8 23ZM21 24L21 25L23 25L23 26L22 26L22 27L23 27L23 28L22 28L22 29L24 29L24 30L27 30L27 29L24 29L24 27L23 27L23 26L24 26L24 24ZM29 24L29 28L30 28L30 25L31 25L31 24ZM25 25L25 28L28 28L28 25ZM26 26L26 27L27 27L27 26ZM15 27L15 28L16 28L16 27ZM32 29L32 30L33 30L33 29ZM28 30L28 31L29 31L29 30ZM12 31L12 32L13 32L13 31ZM14 31L14 33L15 33L15 31ZM8 32L8 33L9 33L9 32ZM0 0L0 7L7 7L7 0ZM1 1L1 6L6 6L6 1ZM2 2L2 5L5 5L5 2ZM26 0L26 7L33 7L33 0ZM27 1L27 6L32 6L32 1ZM28 2L28 5L31 5L31 2ZM0 26L0 33L7 33L7 26ZM1 27L1 32L6 32L6 27ZM2 28L2 31L5 31L5 28Z" fill="#000000"/></g></g></svg>
