<?xml version="1.0" encoding="UTF-8"?>
<svg xmlns="http://www.w3.org/2000/svg" version="1.1" width="300" height="300" viewBox="0 0 300 300"><rect x="0" y="0" width="300" height="300" fill="#ffffff"/><g transform="scale(7.692)"><g transform="translate(1,1)"><path fill-rule="evenodd" d="M8 0L8 1L9 1L9 2L10 2L10 3L11 3L11 5L10 5L10 8L9 8L9 3L8 3L8 8L6 8L6 9L8 9L8 10L6 10L6 11L5 11L5 10L4 10L4 9L5 9L5 8L4 8L4 9L3 9L3 10L2 10L2 9L1 9L1 8L0 8L0 9L1 9L1 10L0 10L0 11L1 11L1 10L2 10L2 13L0 13L0 14L1 14L1 15L0 15L0 16L1 16L1 17L0 17L0 20L1 20L1 21L2 21L2 20L3 20L3 21L4 21L4 22L5 22L5 23L7 23L7 24L4 24L4 23L3 23L3 22L2 22L2 23L3 23L3 25L7 25L7 26L6 26L6 27L7 27L7 28L5 28L5 26L4 26L4 27L2 27L2 28L0 28L0 29L2 29L2 28L4 28L4 29L8 29L8 31L9 31L9 30L10 30L10 31L11 31L11 30L10 30L10 29L8 29L8 27L7 27L7 26L9 26L9 28L10 28L10 26L11 26L11 23L12 23L12 25L13 25L13 26L12 26L12 27L15 27L15 28L16 28L16 29L15 29L15 30L14 30L14 28L11 28L11 29L13 29L13 31L12 31L12 33L11 33L11 32L8 32L8 33L11 33L11 35L12 35L12 36L10 36L10 37L14 37L14 36L13 36L13 35L12 35L12 33L13 33L13 32L14 32L14 35L15 35L15 32L18 32L18 33L19 33L19 34L20 34L20 35L21 35L21 36L18 36L18 34L17 34L17 33L16 33L16 35L17 35L17 36L15 36L15 37L23 37L23 36L25 36L25 35L26 35L26 36L27 36L27 37L28 37L28 35L29 35L29 34L30 34L30 35L31 35L31 34L32 34L32 33L36 33L36 34L37 34L37 33L36 33L36 32L35 32L35 31L33 31L33 27L34 27L34 29L35 29L35 30L36 30L36 29L37 29L37 27L34 27L34 26L33 26L33 25L35 25L35 24L36 24L36 25L37 25L37 24L36 24L36 23L35 23L35 22L36 22L36 21L35 21L35 20L36 20L36 19L35 19L35 18L36 18L36 17L37 17L37 15L35 15L35 14L36 14L36 13L37 13L37 12L36 12L36 11L35 11L35 10L36 10L36 9L37 9L37 8L36 8L36 9L35 9L35 10L34 10L34 8L29 8L29 4L27 4L27 3L28 3L28 2L29 2L29 0L25 0L25 1L22 1L22 0L19 0L19 1L17 1L17 0L15 0L15 1L12 1L12 3L11 3L11 2L10 2L10 1L11 1L11 0L10 0L10 1L9 1L9 0ZM16 1L16 2L15 2L15 3L12 3L12 4L14 4L14 6L13 6L13 5L11 5L11 9L9 9L9 10L8 10L8 11L9 11L9 12L8 12L8 13L6 13L6 12L7 12L7 11L6 11L6 12L5 12L5 11L4 11L4 10L3 10L3 11L4 11L4 12L3 12L3 13L2 13L2 14L3 14L3 15L2 15L2 18L1 18L1 20L2 20L2 19L3 19L3 18L4 18L4 20L5 20L5 22L7 22L7 23L8 23L8 24L7 24L7 25L8 25L8 24L9 24L9 23L10 23L10 22L11 22L11 21L13 21L13 22L12 22L12 23L14 23L14 20L17 20L17 19L16 19L16 17L17 17L17 18L18 18L18 20L21 20L21 19L22 19L22 21L18 21L18 22L17 22L17 21L16 21L16 22L17 22L17 25L16 25L16 24L14 24L14 25L15 25L15 26L16 26L16 27L17 27L17 26L18 26L18 28L19 28L19 29L16 29L16 30L18 30L18 31L19 31L19 32L20 32L20 33L21 33L21 35L23 35L23 33L24 33L24 34L27 34L27 35L28 35L28 34L29 34L29 33L28 33L28 29L27 29L27 28L30 28L30 27L31 27L31 25L33 25L33 24L34 24L34 23L33 23L33 24L31 24L31 25L29 25L29 26L30 26L30 27L26 27L26 26L25 26L25 25L28 25L28 24L29 24L29 23L31 23L31 21L30 21L30 22L28 22L28 24L26 24L26 22L27 22L27 21L29 21L29 20L32 20L32 21L33 21L33 22L35 22L35 21L34 21L34 18L35 18L35 17L36 17L36 16L35 16L35 17L34 17L34 18L33 18L33 19L32 19L32 18L31 18L31 17L30 17L30 18L31 18L31 19L28 19L28 20L26 20L26 19L27 19L27 18L26 18L26 19L23 19L23 17L24 17L24 18L25 18L25 17L26 17L26 16L27 16L27 15L24 15L24 16L23 16L23 17L22 17L22 15L23 15L23 13L22 13L22 14L21 14L21 16L20 16L20 12L19 12L19 11L18 11L18 9L20 9L20 11L22 11L22 9L23 9L23 10L24 10L24 9L23 9L23 8L24 8L24 5L25 5L25 3L27 3L27 2L28 2L28 1L25 1L25 3L24 3L24 2L22 2L22 3L21 3L21 1L20 1L20 2L19 2L19 4L18 4L18 3L16 3L16 2L17 2L17 1ZM20 3L20 4L21 4L21 3ZM15 4L15 6L14 6L14 7L13 7L13 6L12 6L12 7L13 7L13 8L12 8L12 9L11 9L11 10L12 10L12 11L11 11L11 12L9 12L9 13L8 13L8 15L7 15L7 14L5 14L5 15L4 15L4 16L3 16L3 17L4 17L4 18L5 18L5 15L7 15L7 16L6 16L6 17L7 17L7 16L8 16L8 20L6 20L6 21L7 21L7 22L8 22L8 23L9 23L9 22L10 22L10 21L9 21L9 22L8 22L8 20L10 20L10 17L11 17L11 20L13 20L13 18L12 18L12 16L13 16L13 15L14 15L14 16L15 16L15 15L16 15L16 13L15 13L15 15L14 15L14 12L17 12L17 13L19 13L19 12L18 12L18 11L16 11L16 10L15 10L15 9L17 9L17 6L18 6L18 7L19 7L19 8L20 8L20 9L21 9L21 8L22 8L22 7L23 7L23 6L22 6L22 7L21 7L21 6L20 6L20 5L19 5L19 6L18 6L18 4L17 4L17 5L16 5L16 4ZM22 4L22 5L24 5L24 4ZM26 5L26 6L25 6L25 14L26 14L26 13L27 13L27 12L28 12L28 13L29 13L29 14L28 14L28 17L29 17L29 16L31 16L31 14L32 14L32 13L34 13L34 14L35 14L35 13L34 13L34 10L32 10L32 9L29 9L29 8L26 8L26 6L27 6L27 7L28 7L28 5ZM15 6L15 7L14 7L14 9L13 9L13 10L14 10L14 11L12 11L12 12L11 12L11 13L9 13L9 15L8 15L8 16L11 16L11 15L13 15L13 12L14 12L14 11L15 11L15 10L14 10L14 9L15 9L15 8L16 8L16 6ZM19 6L19 7L20 7L20 6ZM26 9L26 10L27 10L27 11L26 11L26 12L27 12L27 11L28 11L28 9ZM29 10L29 11L30 11L30 12L29 12L29 13L31 13L31 12L33 12L33 11L32 11L32 10L31 10L31 11L30 11L30 10ZM23 11L23 12L24 12L24 11ZM4 12L4 13L5 13L5 12ZM10 14L10 15L11 15L11 14ZM17 14L17 16L18 16L18 17L19 17L19 18L20 18L20 19L21 19L21 17L20 17L20 16L19 16L19 15L18 15L18 14ZM33 15L33 16L32 16L32 17L33 17L33 16L34 16L34 15ZM24 16L24 17L25 17L25 16ZM14 17L14 19L15 19L15 17ZM6 18L6 19L7 19L7 18ZM24 20L24 21L23 21L23 22L20 22L20 23L19 23L19 22L18 22L18 23L19 23L19 24L20 24L20 25L18 25L18 26L19 26L19 28L20 28L20 32L21 32L21 30L23 30L23 31L22 31L22 33L23 33L23 31L24 31L24 29L25 29L25 31L26 31L26 32L27 32L27 31L26 31L26 30L27 30L27 29L25 29L25 28L24 28L24 29L23 29L23 27L24 27L24 23L25 23L25 22L24 22L24 21L25 21L25 20ZM22 23L22 24L21 24L21 25L20 25L20 27L23 27L23 26L21 26L21 25L23 25L23 23ZM0 24L0 26L2 26L2 24ZM32 26L32 27L33 27L33 26ZM35 28L35 29L36 29L36 28ZM29 29L29 32L32 32L32 29ZM30 30L30 31L31 31L31 30ZM14 31L14 32L15 32L15 31ZM34 34L34 35L32 35L32 36L29 36L29 37L32 37L32 36L34 36L34 37L37 37L37 36L36 36L36 35L35 35L35 34ZM8 36L8 37L9 37L9 36ZM0 0L0 7L7 7L7 0ZM1 1L1 6L6 6L6 1ZM2 2L2 5L5 5L5 2ZM30 0L30 7L37 7L37 0ZM31 1L31 6L36 6L36 1ZM32 2L32 5L35 5L35 2ZM0 30L0 37L7 37L7 30ZM1 31L1 36L6 36L6 31ZM2 32L2 35L5 35L5 32Z" fill="#000000"/></g></g></svg>
