<?xml version="1.0" encoding="UTF-8"?>
<svg xmlns="http://www.w3.org/2000/svg" version="1.1" width="300" height="300" viewBox="0 0 300 300"><rect x="0" y="0" width="300" height="300" fill="#ffffff"/><g transform="scale(9.091)"><g transform="translate(0,0)"><path fill-rule="evenodd" d="M9 0L9 1L8 1L8 2L9 2L9 3L8 3L8 4L10 4L10 7L11 7L11 4L12 4L12 5L13 5L13 6L12 6L12 9L13 9L13 8L14 8L14 9L15 9L15 10L17 10L17 11L16 11L16 13L12 13L12 11L13 11L13 10L11 10L11 11L10 11L10 9L11 9L11 8L6 8L6 9L5 9L5 8L0 8L0 9L3 9L3 12L2 12L2 10L1 10L1 11L0 11L0 15L1 15L1 16L2 16L2 15L3 15L3 18L0 18L0 20L1 20L1 19L2 19L2 21L0 21L0 25L1 25L1 22L2 22L2 21L3 21L3 22L4 22L4 23L5 23L5 25L8 25L8 27L10 27L10 28L8 28L8 33L10 33L10 30L11 30L11 29L12 29L12 30L13 30L13 31L12 31L12 33L13 33L13 32L14 32L14 33L15 33L15 32L16 32L16 31L17 31L17 29L18 29L18 28L19 28L19 30L20 30L20 32L22 32L22 33L23 33L23 32L24 32L24 33L25 33L25 32L24 32L24 31L27 31L27 32L28 32L28 33L29 33L29 31L30 31L30 32L31 32L31 33L32 33L32 32L31 32L31 31L30 31L30 30L33 30L33 29L32 29L32 28L33 28L33 27L32 27L32 26L33 26L33 24L32 24L32 26L31 26L31 25L30 25L30 24L31 24L31 23L32 23L32 22L33 22L33 21L32 21L32 20L31 20L31 19L32 19L32 18L33 18L33 17L32 17L32 16L31 16L31 15L32 15L32 14L33 14L33 13L31 13L31 15L30 15L30 13L29 13L29 10L28 10L28 8L27 8L27 9L26 9L26 8L25 8L25 10L27 10L27 11L28 11L28 12L27 12L27 13L25 13L25 14L26 14L26 16L28 16L28 17L25 17L25 16L24 16L24 15L23 15L23 17L21 17L21 18L20 18L20 16L22 16L22 14L24 14L24 13L21 13L21 12L22 12L22 10L24 10L24 9L19 9L19 10L21 10L21 12L20 12L20 13L18 13L18 12L19 12L19 11L18 11L18 10L17 10L17 9L18 9L18 8L17 8L17 9L16 9L16 7L17 7L17 5L20 5L20 7L21 7L21 8L22 8L22 7L23 7L23 8L24 8L24 7L25 7L25 4L21 4L21 3L22 3L22 1L24 1L24 3L25 3L25 0L18 0L18 2L19 2L19 3L17 3L17 2L16 2L16 4L12 4L12 2L13 2L13 1L11 1L11 2L10 2L10 0ZM15 0L15 1L17 1L17 0ZM19 1L19 2L20 2L20 3L19 3L19 4L20 4L20 3L21 3L21 1ZM14 2L14 3L15 3L15 2ZM10 3L10 4L11 4L11 3ZM16 4L16 5L17 5L17 4ZM8 5L8 7L9 7L9 5ZM22 5L22 6L21 6L21 7L22 7L22 6L23 6L23 7L24 7L24 5ZM13 6L13 7L14 7L14 8L15 8L15 7L16 7L16 6L15 6L15 7L14 7L14 6ZM18 6L18 7L19 7L19 6ZM29 8L29 9L30 9L30 8ZM31 8L31 10L33 10L33 9L32 9L32 8ZM4 9L4 10L5 10L5 12L3 12L3 13L2 13L2 14L3 14L3 13L4 13L4 17L5 17L5 18L3 18L3 19L4 19L4 20L3 20L3 21L4 21L4 22L5 22L5 23L6 23L6 24L7 24L7 23L6 23L6 22L7 22L7 21L6 21L6 22L5 22L5 21L4 21L4 20L7 20L7 19L6 19L6 18L9 18L9 19L8 19L8 20L9 20L9 21L10 21L10 20L11 20L11 18L13 18L13 19L12 19L12 21L11 21L11 23L10 23L10 22L9 22L9 23L8 23L8 25L10 25L10 26L13 26L13 27L12 27L12 29L15 29L15 30L16 30L16 29L17 29L17 28L18 28L18 27L21 27L21 26L18 26L18 27L17 27L17 26L16 26L16 25L17 25L17 24L18 24L18 25L20 25L20 23L21 23L21 22L23 22L23 23L24 23L24 24L27 24L27 22L25 22L25 21L27 21L27 20L28 20L28 19L26 19L26 18L22 18L22 19L23 19L23 20L20 20L20 21L21 21L21 22L18 22L18 21L19 21L19 20L18 20L18 19L20 19L20 18L15 18L15 17L14 17L14 16L15 16L15 15L14 15L14 16L13 16L13 17L12 17L12 15L13 15L13 14L12 14L12 13L11 13L11 12L10 12L10 13L9 13L9 12L8 12L8 13L6 13L6 12L7 12L7 11L8 11L8 10L9 10L9 9L8 9L8 10L7 10L7 9L6 9L6 10L5 10L5 9ZM6 10L6 11L7 11L7 10ZM14 11L14 12L15 12L15 11ZM17 11L17 12L18 12L18 11ZM23 11L23 12L26 12L26 11ZM30 11L30 12L31 12L31 11ZM5 13L5 14L6 14L6 15L5 15L5 16L6 16L6 17L8 17L8 16L9 16L9 17L10 17L10 18L11 18L11 17L10 17L10 15L11 15L11 13L10 13L10 14L9 14L9 15L8 15L8 14L6 14L6 13ZM16 13L16 14L17 14L17 15L16 15L16 17L17 17L17 16L18 16L18 17L19 17L19 16L20 16L20 14L19 14L19 15L18 15L18 13ZM28 13L28 16L29 16L29 17L28 17L28 18L29 18L29 17L30 17L30 19L29 19L29 20L30 20L30 21L28 21L28 24L30 24L30 23L29 23L29 22L30 22L30 21L31 21L31 20L30 20L30 19L31 19L31 16L30 16L30 15L29 15L29 13ZM6 15L6 16L7 16L7 15ZM14 19L14 20L15 20L15 19ZM16 19L16 20L17 20L17 21L18 21L18 20L17 20L17 19ZM24 20L24 21L23 21L23 22L24 22L24 21L25 21L25 20ZM12 21L12 22L13 22L13 23L12 23L12 25L13 25L13 24L14 24L14 25L16 25L16 23L17 23L17 22L16 22L16 21ZM2 23L2 25L3 25L3 23ZM14 23L14 24L15 24L15 23ZM10 24L10 25L11 25L11 24ZM21 24L21 25L22 25L22 26L24 26L24 25L22 25L22 24ZM25 25L25 28L28 28L28 25ZM29 25L29 28L30 28L30 29L31 29L31 28L32 28L32 27L31 27L31 26L30 26L30 25ZM15 26L15 27L14 27L14 28L15 28L15 27L16 27L16 28L17 28L17 27L16 27L16 26ZM26 26L26 27L27 27L27 26ZM23 27L23 31L22 31L22 30L21 30L21 31L22 31L22 32L23 32L23 31L24 31L24 27ZM30 27L30 28L31 28L31 27ZM10 28L10 29L11 29L11 28ZM20 28L20 29L22 29L22 28ZM25 29L25 30L28 30L28 31L29 31L29 30L28 30L28 29ZM14 31L14 32L15 32L15 31ZM18 31L18 32L17 32L17 33L18 33L18 32L19 32L19 31ZM0 0L0 7L7 7L7 0ZM1 1L1 6L6 6L6 1ZM2 2L2 5L5 5L5 2ZM26 0L26 7L33 7L33 0ZM27 1L27 6L32 6L32 1ZM28 2L28 5L31 5L31 2ZM0 26L0 33L7 33L7 26ZM1 27L1 32L6 32L6 27ZM2 28L2 31L5 31L5 28Z" fill="#000000"/></g></g></svg>
