<?xml version="1.0" standalone="no"?>
<svg xmlns="http://www.w3.org/2000/svg" version="1.1" width="297" height="297">
	<!-- Created with https://api.qrserver.com (QR Code API, see goQR.me/api for information) -->
	<title>QR Code</title>
	<desc>http://127.0.0.1:8000/e/sv000004-evento-qr-2</desc>
	<rect style="fill:rgb(255, 255, 255);fill-opacity:1" x="0" y="0" width="297" height="297" />
	<g id="elements">
		<path style="fill:rgb(0, 0, 0)" d="M 0,0 l 9,0 0,9 -9,0 z M 9,0 l 9,0 0,9 -9,0 z M 18,0 l 9,0 0,9 -9,0 z M 27,0 l 9,0 0,9 -9,0 z M 36,0 l 9,0 0,9 -9,0 z M 45,0 l 9,0 0,9 -9,0 z M 54,0 l 9,0 0,9 -9,0 z M 90,0 l 9,0 0,9 -9,0 z M 99,0 l 9,0 0,9 -9,0 z M 108,0 l 9,0 0,9 -9,0 z M 135,0 l 9,0 0,9 -9,0 z M 171,0 l 9,0 0,9 -9,0 z M 180,0 l 9,0 0,9 -9,0 z M 189,0 l 9,0 0,9 -9,0 z M 234,0 l 9,0 0,9 -9,0 z M 243,0 l 9,0 0,9 -9,0 z M 252,0 l 9,0 0,9 -9,0 z M 261,0 l 9,0 0,9 -9,0 z M 270,0 l 9,0 0,9 -9,0 z M 279,0 l 9,0 0,9 -9,0 z M 288,0 l 9,0 0,9 -9,0 z M 0,9 l 9,0 0,9 -9,0 z M 54,9 l 9,0 0,9 -9,0 z M 90,9 l 9,0 0,9 -9,0 z M 135,9 l 9,0 0,9 -9,0 z M 162,9 l 9,0 0,9 -9,0 z M 171,9 l 9,0 0,9 -9,0 z M 189,9 l 9,0 0,9 -9,0 z M 207,9 l 9,0 0,9 -9,0 z M 216,9 l 9,0 0,9 -9,0 z M 234,9 l 9,0 0,9 -9,0 z M 288,9 l 9,0 0,9 -9,0 z M 0,18 l 9,0 0,9 -9,0 z M 18,18 l 9,0 0,9 -9,0 z M 27,18 l 9,0 0,9 -9,0 z M 36,18 l 9,0 0,9 -9,0 z M 54,18 l 9,0 0,9 -9,0 z M 72,18 l 9,0 0,9 -9,0 z M 90,18 l 9,0 0,9 -9,0 z M 108,18 l 9,0 0,9 -9,0 z M 126,18 l 9,0 0,9 -9,0 z M 135,18 l 9,0 0,9 -9,0 z M 171,18 l 9,0 0,9 -9,0 z M 189,18 l 9,0 0,9 -9,0 z M 207,18 l 9,0 0,9 -9,0 z M 234,18 l 9,0 0,9 -9,0 z M 252,18 l 9,0 0,9 -9,0 z M 261,18 l 9,0 0,9 -9,0 z M 270,18 l 9,0 0,9 -9,0 z M 288,18 l 9,0 0,9 -9,0 z M 0,27 l 9,0 0,9 -9,0 z M 18,27 l 9,0 0,9 -9,0 z M 27,27 l 9,0 0,9 -9,0 z M 36,27 l 9,0 0,9 -9,0 z M 54,27 l 9,0 0,9 -9,0 z M 72,27 l 9,0 0,9 -9,0 z M 81,27 l 9,0 0,9 -9,0 z M 90,27 l 9,0 0,9 -9,0 z M 99,27 l 9,0 0,9 -9,0 z M 135,27 l 9,0 0,9 -9,0 z M 162,27 l 9,0 0,9 -9,0 z M 189,27 l 9,0 0,9 -9,0 z M 207,27 l 9,0 0,9 -9,0 z M 216,27 l 9,0 0,9 -9,0 z M 234,27 l 9,0 0,9 -9,0 z M 252,27 l 9,0 0,9 -9,0 z M 261,27 l 9,0 0,9 -9,0 z M 270,27 l 9,0 0,9 -9,0 z M 288,27 l 9,0 0,9 -9,0 z M 0,36 l 9,0 0,9 -9,0 z M 18,36 l 9,0 0,9 -9,0 z M 27,36 l 9,0 0,9 -9,0 z M 36,36 l 9,0 0,9 -9,0 z M 54,36 l 9,0 0,9 -9,0 z M 72,36 l 9,0 0,9 -9,0 z M 81,36 l 9,0 0,9 -9,0 z M 99,36 l 9,0 0,9 -9,0 z M 108,36 l 9,0 0,9 -9,0 z M 126,36 l 9,0 0,9 -9,0 z M 135,36 l 9,0 0,9 -9,0 z M 144,36 l 9,0 0,9 -9,0 z M 180,36 l 9,0 0,9 -9,0 z M 189,36 l 9,0 0,9 -9,0 z M 216,36 l 9,0 0,9 -9,0 z M 234,36 l 9,0 0,9 -9,0 z M 252,36 l 9,0 0,9 -9,0 z M 261,36 l 9,0 0,9 -9,0 z M 270,36 l 9,0 0,9 -9,0 z M 288,36 l 9,0 0,9 -9,0 z M 0,45 l 9,0 0,9 -9,0 z M 54,45 l 9,0 0,9 -9,0 z M 72,45 l 9,0 0,9 -9,0 z M 153,45 l 9,0 0,9 -9,0 z M 171,45 l 9,0 0,9 -9,0 z M 198,45 l 9,0 0,9 -9,0 z M 207,45 l 9,0 0,9 -9,0 z M 216,45 l 9,0 0,9 -9,0 z M 234,45 l 9,0 0,9 -9,0 z M 288,45 l 9,0 0,9 -9,0 z M 0,54 l 9,0 0,9 -9,0 z M 9,54 l 9,0 0,9 -9,0 z M 18,54 l 9,0 0,9 -9,0 z M 27,54 l 9,0 0,9 -9,0 z M 36,54 l 9,0 0,9 -9,0 z M 45,54 l 9,0 0,9 -9,0 z M 54,54 l 9,0 0,9 -9,0 z M 72,54 l 9,0 0,9 -9,0 z M 90,54 l 9,0 0,9 -9,0 z M 108,54 l 9,0 0,9 -9,0 z M 126,54 l 9,0 0,9 -9,0 z M 144,54 l 9,0 0,9 -9,0 z M 162,54 l 9,0 0,9 -9,0 z M 180,54 l 9,0 0,9 -9,0 z M 198,54 l 9,0 0,9 -9,0 z M 216,54 l 9,0 0,9 -9,0 z M 234,54 l 9,0 0,9 -9,0 z M 243,54 l 9,0 0,9 -9,0 z M 252,54 l 9,0 0,9 -9,0 z M 261,54 l 9,0 0,9 -9,0 z M 270,54 l 9,0 0,9 -9,0 z M 279,54 l 9,0 0,9 -9,0 z M 288,54 l 9,0 0,9 -9,0 z M 72,63 l 9,0 0,9 -9,0 z M 90,63 l 9,0 0,9 -9,0 z M 99,63 l 9,0 0,9 -9,0 z M 144,63 l 9,0 0,9 -9,0 z M 171,63 l 9,0 0,9 -9,0 z M 180,63 l 9,0 0,9 -9,0 z M 198,63 l 9,0 0,9 -9,0 z M 0,72 l 9,0 0,9 -9,0 z M 18,72 l 9,0 0,9 -9,0 z M 27,72 l 9,0 0,9 -9,0 z M 36,72 l 9,0 0,9 -9,0 z M 45,72 l 9,0 0,9 -9,0 z M 54,72 l 9,0 0,9 -9,0 z M 90,72 l 9,0 0,9 -9,0 z M 153,72 l 9,0 0,9 -9,0 z M 162,72 l 9,0 0,9 -9,0 z M 171,72 l 9,0 0,9 -9,0 z M 180,72 l 9,0 0,9 -9,0 z M 198,72 l 9,0 0,9 -9,0 z M 207,72 l 9,0 0,9 -9,0 z M 216,72 l 9,0 0,9 -9,0 z M 234,72 l 9,0 0,9 -9,0 z M 243,72 l 9,0 0,9 -9,0 z M 252,72 l 9,0 0,9 -9,0 z M 261,72 l 9,0 0,9 -9,0 z M 270,72 l 9,0 0,9 -9,0 z M 0,81 l 9,0 0,9 -9,0 z M 18,81 l 9,0 0,9 -9,0 z M 45,81 l 9,0 0,9 -9,0 z M 72,81 l 9,0 0,9 -9,0 z M 90,81 l 9,0 0,9 -9,0 z M 99,81 l 9,0 0,9 -9,0 z M 108,81 l 9,0 0,9 -9,0 z M 117,81 l 9,0 0,9 -9,0 z M 135,81 l 9,0 0,9 -9,0 z M 153,81 l 9,0 0,9 -9,0 z M 180,81 l 9,0 0,9 -9,0 z M 198,81 l 9,0 0,9 -9,0 z M 207,81 l 9,0 0,9 -9,0 z M 216,81 l 9,0 0,9 -9,0 z M 225,81 l 9,0 0,9 -9,0 z M 234,81 l 9,0 0,9 -9,0 z M 252,81 l 9,0 0,9 -9,0 z M 261,81 l 9,0 0,9 -9,0 z M 270,81 l 9,0 0,9 -9,0 z M 279,81 l 9,0 0,9 -9,0 z M 0,90 l 9,0 0,9 -9,0 z M 9,90 l 9,0 0,9 -9,0 z M 45,90 l 9,0 0,9 -9,0 z M 54,90 l 9,0 0,9 -9,0 z M 63,90 l 9,0 0,9 -9,0 z M 72,90 l 9,0 0,9 -9,0 z M 81,90 l 9,0 0,9 -9,0 z M 90,90 l 9,0 0,9 -9,0 z M 99,90 l 9,0 0,9 -9,0 z M 108,90 l 9,0 0,9 -9,0 z M 117,90 l 9,0 0,9 -9,0 z M 126,90 l 9,0 0,9 -9,0 z M 135,90 l 9,0 0,9 -9,0 z M 153,90 l 9,0 0,9 -9,0 z M 198,90 l 9,0 0,9 -9,0 z M 216,90 l 9,0 0,9 -9,0 z M 234,90 l 9,0 0,9 -9,0 z M 252,90 l 9,0 0,9 -9,0 z M 270,90 l 9,0 0,9 -9,0 z M 279,90 l 9,0 0,9 -9,0 z M 288,90 l 9,0 0,9 -9,0 z M 18,99 l 9,0 0,9 -9,0 z M 36,99 l 9,0 0,9 -9,0 z M 45,99 l 9,0 0,9 -9,0 z M 63,99 l 9,0 0,9 -9,0 z M 72,99 l 9,0 0,9 -9,0 z M 99,99 l 9,0 0,9 -9,0 z M 117,99 l 9,0 0,9 -9,0 z M 135,99 l 9,0 0,9 -9,0 z M 153,99 l 9,0 0,9 -9,0 z M 162,99 l 9,0 0,9 -9,0 z M 171,99 l 9,0 0,9 -9,0 z M 180,99 l 9,0 0,9 -9,0 z M 207,99 l 9,0 0,9 -9,0 z M 225,99 l 9,0 0,9 -9,0 z M 234,99 l 9,0 0,9 -9,0 z M 261,99 l 9,0 0,9 -9,0 z M 270,99 l 9,0 0,9 -9,0 z M 288,99 l 9,0 0,9 -9,0 z M 9,108 l 9,0 0,9 -9,0 z M 18,108 l 9,0 0,9 -9,0 z M 27,108 l 9,0 0,9 -9,0 z M 36,108 l 9,0 0,9 -9,0 z M 45,108 l 9,0 0,9 -9,0 z M 54,108 l 9,0 0,9 -9,0 z M 72,108 l 9,0 0,9 -9,0 z M 90,108 l 9,0 0,9 -9,0 z M 99,108 l 9,0 0,9 -9,0 z M 108,108 l 9,0 0,9 -9,0 z M 126,108 l 9,0 0,9 -9,0 z M 135,108 l 9,0 0,9 -9,0 z M 144,108 l 9,0 0,9 -9,0 z M 180,108 l 9,0 0,9 -9,0 z M 189,108 l 9,0 0,9 -9,0 z M 198,108 l 9,0 0,9 -9,0 z M 216,108 l 9,0 0,9 -9,0 z M 225,108 l 9,0 0,9 -9,0 z M 234,108 l 9,0 0,9 -9,0 z M 261,108 l 9,0 0,9 -9,0 z M 0,117 l 9,0 0,9 -9,0 z M 45,117 l 9,0 0,9 -9,0 z M 99,117 l 9,0 0,9 -9,0 z M 108,117 l 9,0 0,9 -9,0 z M 135,117 l 9,0 0,9 -9,0 z M 162,117 l 9,0 0,9 -9,0 z M 189,117 l 9,0 0,9 -9,0 z M 243,117 l 9,0 0,9 -9,0 z M 279,117 l 9,0 0,9 -9,0 z M 288,117 l 9,0 0,9 -9,0 z M 0,126 l 9,0 0,9 -9,0 z M 9,126 l 9,0 0,9 -9,0 z M 18,126 l 9,0 0,9 -9,0 z M 27,126 l 9,0 0,9 -9,0 z M 36,126 l 9,0 0,9 -9,0 z M 54,126 l 9,0 0,9 -9,0 z M 81,126 l 9,0 0,9 -9,0 z M 108,126 l 9,0 0,9 -9,0 z M 135,126 l 9,0 0,9 -9,0 z M 144,126 l 9,0 0,9 -9,0 z M 153,126 l 9,0 0,9 -9,0 z M 180,126 l 9,0 0,9 -9,0 z M 189,126 l 9,0 0,9 -9,0 z M 261,126 l 9,0 0,9 -9,0 z M 270,126 l 9,0 0,9 -9,0 z M 279,126 l 9,0 0,9 -9,0 z M 0,135 l 9,0 0,9 -9,0 z M 45,135 l 9,0 0,9 -9,0 z M 63,135 l 9,0 0,9 -9,0 z M 72,135 l 9,0 0,9 -9,0 z M 81,135 l 9,0 0,9 -9,0 z M 99,135 l 9,0 0,9 -9,0 z M 108,135 l 9,0 0,9 -9,0 z M 117,135 l 9,0 0,9 -9,0 z M 135,135 l 9,0 0,9 -9,0 z M 189,135 l 9,0 0,9 -9,0 z M 198,135 l 9,0 0,9 -9,0 z M 207,135 l 9,0 0,9 -9,0 z M 216,135 l 9,0 0,9 -9,0 z M 234,135 l 9,0 0,9 -9,0 z M 252,135 l 9,0 0,9 -9,0 z M 261,135 l 9,0 0,9 -9,0 z M 270,135 l 9,0 0,9 -9,0 z M 36,144 l 9,0 0,9 -9,0 z M 54,144 l 9,0 0,9 -9,0 z M 63,144 l 9,0 0,9 -9,0 z M 72,144 l 9,0 0,9 -9,0 z M 81,144 l 9,0 0,9 -9,0 z M 108,144 l 9,0 0,9 -9,0 z M 126,144 l 9,0 0,9 -9,0 z M 135,144 l 9,0 0,9 -9,0 z M 144,144 l 9,0 0,9 -9,0 z M 153,144 l 9,0 0,9 -9,0 z M 189,144 l 9,0 0,9 -9,0 z M 207,144 l 9,0 0,9 -9,0 z M 243,144 l 9,0 0,9 -9,0 z M 252,144 l 9,0 0,9 -9,0 z M 261,144 l 9,0 0,9 -9,0 z M 270,144 l 9,0 0,9 -9,0 z M 288,144 l 9,0 0,9 -9,0 z M 18,153 l 9,0 0,9 -9,0 z M 45,153 l 9,0 0,9 -9,0 z M 72,153 l 9,0 0,9 -9,0 z M 108,153 l 9,0 0,9 -9,0 z M 126,153 l 9,0 0,9 -9,0 z M 162,153 l 9,0 0,9 -9,0 z M 180,153 l 9,0 0,9 -9,0 z M 189,153 l 9,0 0,9 -9,0 z M 207,153 l 9,0 0,9 -9,0 z M 252,153 l 9,0 0,9 -9,0 z M 261,153 l 9,0 0,9 -9,0 z M 270,153 l 9,0 0,9 -9,0 z M 9,162 l 9,0 0,9 -9,0 z M 18,162 l 9,0 0,9 -9,0 z M 27,162 l 9,0 0,9 -9,0 z M 54,162 l 9,0 0,9 -9,0 z M 72,162 l 9,0 0,9 -9,0 z M 81,162 l 9,0 0,9 -9,0 z M 90,162 l 9,0 0,9 -9,0 z M 99,162 l 9,0 0,9 -9,0 z M 108,162 l 9,0 0,9 -9,0 z M 117,162 l 9,0 0,9 -9,0 z M 126,162 l 9,0 0,9 -9,0 z M 135,162 l 9,0 0,9 -9,0 z M 162,162 l 9,0 0,9 -9,0 z M 189,162 l 9,0 0,9 -9,0 z M 234,162 l 9,0 0,9 -9,0 z M 252,162 l 9,0 0,9 -9,0 z M 270,162 l 9,0 0,9 -9,0 z M 45,171 l 9,0 0,9 -9,0 z M 108,171 l 9,0 0,9 -9,0 z M 117,171 l 9,0 0,9 -9,0 z M 135,171 l 9,0 0,9 -9,0 z M 189,171 l 9,0 0,9 -9,0 z M 198,171 l 9,0 0,9 -9,0 z M 216,171 l 9,0 0,9 -9,0 z M 225,171 l 9,0 0,9 -9,0 z M 234,171 l 9,0 0,9 -9,0 z M 261,171 l 9,0 0,9 -9,0 z M 270,171 l 9,0 0,9 -9,0 z M 279,171 l 9,0 0,9 -9,0 z M 9,180 l 9,0 0,9 -9,0 z M 27,180 l 9,0 0,9 -9,0 z M 45,180 l 9,0 0,9 -9,0 z M 54,180 l 9,0 0,9 -9,0 z M 90,180 l 9,0 0,9 -9,0 z M 135,180 l 9,0 0,9 -9,0 z M 162,180 l 9,0 0,9 -9,0 z M 189,180 l 9,0 0,9 -9,0 z M 216,180 l 9,0 0,9 -9,0 z M 225,180 l 9,0 0,9 -9,0 z M 261,180 l 9,0 0,9 -9,0 z M 279,180 l 9,0 0,9 -9,0 z M 0,189 l 9,0 0,9 -9,0 z M 9,189 l 9,0 0,9 -9,0 z M 18,189 l 9,0 0,9 -9,0 z M 27,189 l 9,0 0,9 -9,0 z M 36,189 l 9,0 0,9 -9,0 z M 45,189 l 9,0 0,9 -9,0 z M 72,189 l 9,0 0,9 -9,0 z M 81,189 l 9,0 0,9 -9,0 z M 90,189 l 9,0 0,9 -9,0 z M 117,189 l 9,0 0,9 -9,0 z M 126,189 l 9,0 0,9 -9,0 z M 135,189 l 9,0 0,9 -9,0 z M 144,189 l 9,0 0,9 -9,0 z M 180,189 l 9,0 0,9 -9,0 z M 189,189 l 9,0 0,9 -9,0 z M 198,189 l 9,0 0,9 -9,0 z M 216,189 l 9,0 0,9 -9,0 z M 225,189 l 9,0 0,9 -9,0 z M 243,189 l 9,0 0,9 -9,0 z M 252,189 l 9,0 0,9 -9,0 z M 261,189 l 9,0 0,9 -9,0 z M 288,189 l 9,0 0,9 -9,0 z M 0,198 l 9,0 0,9 -9,0 z M 36,198 l 9,0 0,9 -9,0 z M 45,198 l 9,0 0,9 -9,0 z M 54,198 l 9,0 0,9 -9,0 z M 63,198 l 9,0 0,9 -9,0 z M 72,198 l 9,0 0,9 -9,0 z M 171,198 l 9,0 0,9 -9,0 z M 189,198 l 9,0 0,9 -9,0 z M 207,198 l 9,0 0,9 -9,0 z M 216,198 l 9,0 0,9 -9,0 z M 252,198 l 9,0 0,9 -9,0 z M 261,198 l 9,0 0,9 -9,0 z M 270,198 l 9,0 0,9 -9,0 z M 279,198 l 9,0 0,9 -9,0 z M 0,207 l 9,0 0,9 -9,0 z M 18,207 l 9,0 0,9 -9,0 z M 27,207 l 9,0 0,9 -9,0 z M 36,207 l 9,0 0,9 -9,0 z M 63,207 l 9,0 0,9 -9,0 z M 108,207 l 9,0 0,9 -9,0 z M 117,207 l 9,0 0,9 -9,0 z M 144,207 l 9,0 0,9 -9,0 z M 162,207 l 9,0 0,9 -9,0 z M 171,207 l 9,0 0,9 -9,0 z M 180,207 l 9,0 0,9 -9,0 z M 189,207 l 9,0 0,9 -9,0 z M 225,207 l 9,0 0,9 -9,0 z M 243,207 l 9,0 0,9 -9,0 z M 252,207 l 9,0 0,9 -9,0 z M 0,216 l 9,0 0,9 -9,0 z M 18,216 l 9,0 0,9 -9,0 z M 45,216 l 9,0 0,9 -9,0 z M 54,216 l 9,0 0,9 -9,0 z M 63,216 l 9,0 0,9 -9,0 z M 81,216 l 9,0 0,9 -9,0 z M 90,216 l 9,0 0,9 -9,0 z M 108,216 l 9,0 0,9 -9,0 z M 162,216 l 9,0 0,9 -9,0 z M 171,216 l 9,0 0,9 -9,0 z M 189,216 l 9,0 0,9 -9,0 z M 207,216 l 9,0 0,9 -9,0 z M 216,216 l 9,0 0,9 -9,0 z M 225,216 l 9,0 0,9 -9,0 z M 234,216 l 9,0 0,9 -9,0 z M 243,216 l 9,0 0,9 -9,0 z M 252,216 l 9,0 0,9 -9,0 z M 261,216 l 9,0 0,9 -9,0 z M 270,216 l 9,0 0,9 -9,0 z M 279,216 l 9,0 0,9 -9,0 z M 72,225 l 9,0 0,9 -9,0 z M 90,225 l 9,0 0,9 -9,0 z M 108,225 l 9,0 0,9 -9,0 z M 153,225 l 9,0 0,9 -9,0 z M 162,225 l 9,0 0,9 -9,0 z M 180,225 l 9,0 0,9 -9,0 z M 207,225 l 9,0 0,9 -9,0 z M 216,225 l 9,0 0,9 -9,0 z M 252,225 l 9,0 0,9 -9,0 z M 270,225 l 9,0 0,9 -9,0 z M 279,225 l 9,0 0,9 -9,0 z M 288,225 l 9,0 0,9 -9,0 z M 0,234 l 9,0 0,9 -9,0 z M 9,234 l 9,0 0,9 -9,0 z M 18,234 l 9,0 0,9 -9,0 z M 27,234 l 9,0 0,9 -9,0 z M 36,234 l 9,0 0,9 -9,0 z M 45,234 l 9,0 0,9 -9,0 z M 54,234 l 9,0 0,9 -9,0 z M 99,234 l 9,0 0,9 -9,0 z M 135,234 l 9,0 0,9 -9,0 z M 153,234 l 9,0 0,9 -9,0 z M 180,234 l 9,0 0,9 -9,0 z M 198,234 l 9,0 0,9 -9,0 z M 207,234 l 9,0 0,9 -9,0 z M 216,234 l 9,0 0,9 -9,0 z M 234,234 l 9,0 0,9 -9,0 z M 252,234 l 9,0 0,9 -9,0 z M 270,234 l 9,0 0,9 -9,0 z M 279,234 l 9,0 0,9 -9,0 z M 0,243 l 9,0 0,9 -9,0 z M 54,243 l 9,0 0,9 -9,0 z M 72,243 l 9,0 0,9 -9,0 z M 81,243 l 9,0 0,9 -9,0 z M 90,243 l 9,0 0,9 -9,0 z M 99,243 l 9,0 0,9 -9,0 z M 108,243 l 9,0 0,9 -9,0 z M 126,243 l 9,0 0,9 -9,0 z M 135,243 l 9,0 0,9 -9,0 z M 153,243 l 9,0 0,9 -9,0 z M 162,243 l 9,0 0,9 -9,0 z M 171,243 l 9,0 0,9 -9,0 z M 216,243 l 9,0 0,9 -9,0 z M 252,243 l 9,0 0,9 -9,0 z M 270,243 l 9,0 0,9 -9,0 z M 279,243 l 9,0 0,9 -9,0 z M 288,243 l 9,0 0,9 -9,0 z M 0,252 l 9,0 0,9 -9,0 z M 18,252 l 9,0 0,9 -9,0 z M 27,252 l 9,0 0,9 -9,0 z M 36,252 l 9,0 0,9 -9,0 z M 54,252 l 9,0 0,9 -9,0 z M 72,252 l 9,0 0,9 -9,0 z M 81,252 l 9,0 0,9 -9,0 z M 99,252 l 9,0 0,9 -9,0 z M 108,252 l 9,0 0,9 -9,0 z M 126,252 l 9,0 0,9 -9,0 z M 135,252 l 9,0 0,9 -9,0 z M 144,252 l 9,0 0,9 -9,0 z M 171,252 l 9,0 0,9 -9,0 z M 180,252 l 9,0 0,9 -9,0 z M 189,252 l 9,0 0,9 -9,0 z M 198,252 l 9,0 0,9 -9,0 z M 207,252 l 9,0 0,9 -9,0 z M 216,252 l 9,0 0,9 -9,0 z M 225,252 l 9,0 0,9 -9,0 z M 234,252 l 9,0 0,9 -9,0 z M 243,252 l 9,0 0,9 -9,0 z M 252,252 l 9,0 0,9 -9,0 z M 0,261 l 9,0 0,9 -9,0 z M 18,261 l 9,0 0,9 -9,0 z M 27,261 l 9,0 0,9 -9,0 z M 36,261 l 9,0 0,9 -9,0 z M 54,261 l 9,0 0,9 -9,0 z M 72,261 l 9,0 0,9 -9,0 z M 81,261 l 9,0 0,9 -9,0 z M 90,261 l 9,0 0,9 -9,0 z M 99,261 l 9,0 0,9 -9,0 z M 108,261 l 9,0 0,9 -9,0 z M 135,261 l 9,0 0,9 -9,0 z M 162,261 l 9,0 0,9 -9,0 z M 189,261 l 9,0 0,9 -9,0 z M 207,261 l 9,0 0,9 -9,0 z M 234,261 l 9,0 0,9 -9,0 z M 0,270 l 9,0 0,9 -9,0 z M 18,270 l 9,0 0,9 -9,0 z M 27,270 l 9,0 0,9 -9,0 z M 36,270 l 9,0 0,9 -9,0 z M 54,270 l 9,0 0,9 -9,0 z M 72,270 l 9,0 0,9 -9,0 z M 90,270 l 9,0 0,9 -9,0 z M 117,270 l 9,0 0,9 -9,0 z M 126,270 l 9,0 0,9 -9,0 z M 135,270 l 9,0 0,9 -9,0 z M 144,270 l 9,0 0,9 -9,0 z M 162,270 l 9,0 0,9 -9,0 z M 180,270 l 9,0 0,9 -9,0 z M 189,270 l 9,0 0,9 -9,0 z M 207,270 l 9,0 0,9 -9,0 z M 216,270 l 9,0 0,9 -9,0 z M 243,270 l 9,0 0,9 -9,0 z M 252,270 l 9,0 0,9 -9,0 z M 261,270 l 9,0 0,9 -9,0 z M 270,270 l 9,0 0,9 -9,0 z M 0,279 l 9,0 0,9 -9,0 z M 54,279 l 9,0 0,9 -9,0 z M 90,279 l 9,0 0,9 -9,0 z M 117,279 l 9,0 0,9 -9,0 z M 126,279 l 9,0 0,9 -9,0 z M 135,279 l 9,0 0,9 -9,0 z M 189,279 l 9,0 0,9 -9,0 z M 207,279 l 9,0 0,9 -9,0 z M 216,279 l 9,0 0,9 -9,0 z M 225,279 l 9,0 0,9 -9,0 z M 234,279 l 9,0 0,9 -9,0 z M 243,279 l 9,0 0,9 -9,0 z M 261,279 l 9,0 0,9 -9,0 z M 270,279 l 9,0 0,9 -9,0 z M 0,288 l 9,0 0,9 -9,0 z M 9,288 l 9,0 0,9 -9,0 z M 18,288 l 9,0 0,9 -9,0 z M 27,288 l 9,0 0,9 -9,0 z M 36,288 l 9,0 0,9 -9,0 z M 45,288 l 9,0 0,9 -9,0 z M 54,288 l 9,0 0,9 -9,0 z M 72,288 l 9,0 0,9 -9,0 z M 81,288 l 9,0 0,9 -9,0 z M 117,288 l 9,0 0,9 -9,0 z M 135,288 l 9,0 0,9 -9,0 z M 144,288 l 9,0 0,9 -9,0 z M 153,288 l 9,0 0,9 -9,0 z M 162,288 l 9,0 0,9 -9,0 z M 207,288 l 9,0 0,9 -9,0 z M 216,288 l 9,0 0,9 -9,0 z M 243,288 l 9,0 0,9 -9,0 z M 261,288 l 9,0 0,9 -9,0 z M 270,288 l 9,0 0,9 -9,0 z M 279,288 l 9,0 0,9 -9,0 z " />
	</g>
</svg>
